<svg width="178" height="168" viewBox="0 0 178 168" fill="none" xmlns="http://www.w3.org/2000/svg">
<path d="M89.0426 101.445C115.843 101.445 137.57 79.5735 137.57 52.5939C137.57 25.6144 115.843 3.74316 89.0426 3.74316C62.2419 3.74316 40.5156 25.6144 40.5156 52.5939C40.5156 79.5735 62.2419 101.445 89.0426 101.445Z" fill="#FDD39E" style="fill:#FDD39E;fill:color(display-p3 0.9917 0.8290 0.6198);fill-opacity:1;"/>
<path d="M89.0425 104.898C75.1634 104.898 62.1169 99.4568 52.3011 89.5803C42.4901 79.699 37.085 66.5655 37.085 52.5937C37.085 38.622 42.4901 25.4885 52.3011 15.6072C62.1169 5.73072 75.1634 0.289551 89.0425 0.289551C102.922 0.289551 115.968 5.73072 125.784 15.6072C135.6 25.4885 141 38.622 141 52.5937C141 66.5655 135.595 79.699 125.784 89.5803C115.968 99.4615 102.922 104.898 89.0425 104.898ZM89.0425 1.52531C61.0701 1.52531 38.3125 24.4347 38.3125 52.5937C38.3125 80.7527 61.0701 103.662 89.0425 103.662C117.015 103.662 139.772 80.7527 139.772 52.5937C139.772 24.4347 117.015 1.52531 89.0425 1.52531Z" fill="#FDD39E" style="fill:#FDD39E;fill:color(display-p3 0.9917 0.8290 0.6198);fill-opacity:1;"/>
<path d="M134.225 52.5939C134.225 53.5088 133.587 54.3997 133.53 55.3049C133.473 56.2102 134.006 57.1825 133.896 58.0782C133.787 58.9883 133.049 59.7929 132.888 60.6838C132.726 61.5747 133.135 62.5997 132.921 63.481C132.707 64.3624 131.874 65.0808 131.603 65.943C131.332 66.8052 131.617 67.8781 131.298 68.7258C130.975 69.5784 130.066 70.1819 129.695 71.0106C129.324 71.8392 129.476 72.9312 129.057 73.7359C128.639 74.5406 127.659 75.034 127.192 75.8099C126.726 76.5858 126.745 77.6875 126.231 78.4347C125.717 79.1819 124.685 79.5507 124.128 80.2644C123.571 80.9828 123.462 82.0749 122.862 82.7551C122.263 83.4352 121.197 83.6747 120.56 84.3213C119.922 84.9679 119.684 86.036 119.004 86.6395C118.323 87.2431 117.243 87.3532 116.53 87.9136C115.821 88.474 115.454 89.5134 114.712 90.0307C113.97 90.548 112.875 90.524 112.105 90.9982C111.334 91.4676 110.848 92.4543 110.044 92.8758C109.245 93.2973 108.165 93.144 107.337 93.5176C106.514 93.8912 105.914 94.8109 105.067 95.1318C104.221 95.4527 103.169 95.1701 102.303 95.4383C101.442 95.7066 100.738 96.5448 99.8574 96.7651C98.9772 96.9854 97.9733 96.5687 97.0788 96.7316C96.1938 96.8944 95.3897 97.6416 94.4904 97.747C93.5959 97.8572 92.6443 97.3207 91.7355 97.3782C90.8267 97.4357 89.9513 98.0775 89.0425 98.0775C88.1337 98.0775 87.2487 97.4357 86.3494 97.3782C85.4502 97.3207 84.4843 97.8572 83.5945 97.747C82.6905 97.6368 81.8912 96.8944 81.0062 96.7316C80.1117 96.5687 79.103 96.9806 78.2275 96.7651C77.3473 96.5496 76.6383 95.7113 75.7819 95.4383C74.9159 95.1653 73.8596 95.4527 73.0175 95.1318C72.1705 94.8061 71.571 93.8912 70.7479 93.5176C69.92 93.144 68.8399 93.2973 68.0406 92.8758C67.2412 92.4543 66.7512 91.4676 65.9804 90.9982C65.2096 90.5288 64.1152 90.548 63.373 90.0307C62.6307 89.5134 62.2644 88.474 61.5554 87.9136C60.8465 87.3532 59.7569 87.2431 59.0812 86.6395C58.4056 86.036 58.1677 84.9631 57.5254 84.3213C56.883 83.6795 55.822 83.44 55.2225 82.7551C54.623 82.0749 54.5135 80.9828 53.9569 80.2644C53.4002 79.5459 52.3677 79.1819 51.8538 78.4347C51.34 77.6875 51.3637 76.5858 50.8927 75.8099C50.4217 75.034 49.4463 74.5454 49.0276 73.7359C48.6089 72.9312 48.7611 71.844 48.39 71.0106C48.0189 70.1819 47.1053 69.5784 46.7865 68.7258C46.4677 67.8781 46.7485 66.8147 46.482 65.943C46.2156 65.0713 45.3829 64.3672 45.164 63.481C44.9452 62.5949 45.3591 61.5843 45.1974 60.6838C45.0356 59.7929 44.2933 58.9835 44.1887 58.0782C44.0792 57.1777 44.6121 56.2198 44.555 55.3049C44.5027 54.4045 43.8604 53.5088 43.8604 52.5939C43.8604 51.6791 44.4979 50.7882 44.555 49.8829C44.6121 48.9777 44.0792 48.0053 44.1887 47.1096C44.2981 46.1996 45.0356 45.3949 45.1974 44.504C45.3591 43.6035 44.9499 42.5881 45.164 41.7068C45.3782 40.8207 46.2108 40.107 46.482 39.2449C46.7532 38.3731 46.4677 37.3098 46.7865 36.462C47.1101 35.6094 48.0189 35.0059 48.39 34.1773C48.7611 33.3439 48.6089 32.2566 49.0276 31.4519C49.451 30.6472 50.4264 30.1539 50.8927 29.378C51.359 28.602 51.34 27.5004 51.8538 26.7532C52.3677 26.006 53.4002 25.6371 53.9569 24.9235C54.5135 24.205 54.623 23.1129 55.2225 22.4328C55.822 21.7527 56.8878 21.5132 57.5254 20.8665C58.1629 20.2199 58.4008 19.1518 59.0812 18.5483C59.7616 17.9448 60.8417 17.8346 61.5554 17.2742C62.2691 16.7138 62.6307 15.6744 63.373 15.1572C64.1152 14.6399 65.2096 14.6638 65.9804 14.1896C66.7512 13.7154 67.2365 12.7335 68.0406 12.312C68.8399 11.8905 69.92 12.0438 70.7479 11.6702C71.571 11.2966 72.1705 10.377 73.0175 10.0561C73.8644 9.73514 74.9159 10.0177 75.7819 9.74951C76.6431 9.48128 77.3473 8.64308 78.2275 8.42275C79.1077 8.20242 80.1117 8.61913 81.0062 8.45627C81.8912 8.29342 82.6953 7.54622 83.5945 7.44085C84.4891 7.33068 85.4407 7.86713 86.3494 7.80966C87.2582 7.75218 88.1337 7.11035 89.0425 7.11035C89.9513 7.11035 90.8362 7.75218 91.7355 7.80966C92.6443 7.86234 93.6007 7.33068 94.4904 7.44085C95.3944 7.55101 96.1938 8.29342 97.0788 8.45627C97.9637 8.61913 98.982 8.20721 99.8574 8.42275C100.733 8.63829 101.447 9.47649 102.303 9.74951C103.169 10.0225 104.225 9.73514 105.067 10.0561C105.91 10.377 106.514 11.2966 107.337 11.6702C108.16 12.0438 109.245 11.8905 110.044 12.312C110.844 12.7335 111.334 13.7202 112.105 14.1896C112.88 14.6638 113.97 14.6399 114.712 15.1572C115.454 15.6744 115.821 16.7138 116.53 17.2742C117.243 17.8346 118.328 17.9448 119.004 18.5483C119.679 19.1518 119.917 20.2247 120.56 20.8665C121.202 21.5084 122.263 21.7479 122.862 22.4328C123.462 23.1177 123.571 24.205 124.128 24.9235C124.685 25.6371 125.717 26.006 126.231 26.7532C126.745 27.5004 126.721 28.602 127.192 29.378C127.659 30.1539 128.639 30.6424 129.057 31.4519C129.476 32.2566 129.324 33.3439 129.695 34.1773C130.066 35.0107 130.98 35.6094 131.298 36.462C131.617 37.3146 131.336 38.3731 131.603 39.2449C131.869 40.1166 132.702 40.8207 132.921 41.7068C133.135 42.5881 132.726 43.6035 132.888 44.504C133.049 45.3949 133.792 46.2044 133.896 47.1096C134.006 48.0101 133.473 48.9681 133.53 49.8829C133.582 50.7834 134.225 51.6791 134.225 52.5939Z" fill="#FDD39E" style="fill:#FDD39E;fill:color(display-p3 0.9917 0.8290 0.6198);fill-opacity:1;"/>
<path d="M89.0423 98.3888C88.5094 98.3888 88.0098 98.202 87.5197 98.0152C87.1058 97.8572 86.7109 97.7135 86.3302 97.6895C85.9401 97.6656 85.5309 97.7661 85.0932 97.8715C84.5936 97.9913 84.0749 98.1206 83.5563 98.0583C83.0282 97.9961 82.5524 97.747 82.0908 97.5075C81.6959 97.3015 81.3248 97.11 80.9489 97.0381C80.5683 96.9663 80.1448 97.0189 79.7023 97.0716C79.1884 97.1339 78.6603 97.1962 78.1512 97.0716C77.6373 96.9423 77.1948 96.6405 76.7666 96.3436C76.4003 96.0897 76.0529 95.855 75.6866 95.7401C75.3154 95.6251 74.8967 95.6203 74.4495 95.6203C73.9308 95.6203 73.3979 95.6155 72.9079 95.4287C72.413 95.242 72.0086 94.8827 71.6184 94.5378C71.2854 94.2409 70.9714 93.9631 70.6193 93.805C70.2672 93.647 69.8485 93.5895 69.406 93.5368C68.8921 93.4697 68.364 93.4027 67.8977 93.1584C67.4314 92.9093 67.0745 92.507 66.7272 92.119C66.4322 91.7837 66.1515 91.4676 65.8232 91.2712C65.4901 91.0701 65.0857 90.9647 64.6527 90.8545C64.1531 90.7252 63.6345 90.5959 63.2015 90.2941C62.7685 89.9924 62.4593 89.5517 62.1643 89.1206C61.9121 88.7518 61.6694 88.407 61.3649 88.1675C61.0604 87.928 60.6702 87.7747 60.2515 87.6119C59.771 87.4251 59.2714 87.2287 58.8765 86.879C58.4816 86.5246 58.2294 86.0504 57.9867 85.5906C57.7774 85.193 57.5823 84.8194 57.3063 84.5464C57.0304 84.2734 56.664 84.0722 56.2691 83.8615C55.8123 83.6172 55.3413 83.3633 54.9892 82.9658C54.6418 82.5682 54.4468 82.0653 54.2612 81.5816C54.0994 81.1648 53.9472 80.7673 53.7093 80.4607C53.4714 80.1542 53.124 79.9147 52.7624 79.6561C52.339 79.3591 51.8965 79.0526 51.5967 78.6119C51.297 78.176 51.1637 77.6539 51.04 77.151C50.9306 76.7151 50.8259 76.3032 50.6261 75.9727C50.4262 75.6422 50.1122 75.3596 49.7839 75.0627C49.3985 74.713 48.9988 74.3538 48.7514 73.8844C48.5088 73.415 48.4374 72.8833 48.3755 72.366C48.3184 71.9206 48.2661 71.4991 48.1091 71.1447C47.9521 70.7902 47.6761 70.4741 47.3811 70.1388C47.0385 69.7461 46.6864 69.3389 46.4961 68.8408C46.3106 68.3474 46.3058 67.811 46.3058 67.2889C46.3058 66.8387 46.3058 66.4172 46.1868 66.0436C46.0727 65.6748 45.8348 65.3251 45.5873 64.9563C45.2971 64.5252 44.9926 64.0798 44.8641 63.5625C44.7404 63.05 44.8023 62.5183 44.8641 62.001C44.9165 61.5556 44.964 61.1341 44.8974 60.7461C44.8308 60.3677 44.6357 59.9941 44.4311 59.5965C44.1932 59.1319 43.9458 58.653 43.884 58.1213C43.8221 57.5992 43.9458 57.0771 44.0695 56.5742C44.1742 56.1383 44.2741 55.7216 44.2503 55.3289C44.2265 54.9457 44.079 54.5481 43.9268 54.1314C43.746 53.6429 43.5557 53.1352 43.5557 52.5987C43.5557 52.0623 43.7412 51.5593 43.9268 51.066C44.0838 50.6493 44.2265 50.2517 44.2503 49.8685C44.2741 49.4758 44.1742 49.0639 44.0695 48.6232C43.9506 48.1203 43.8221 47.5982 43.884 47.0761C43.9458 46.5444 44.1932 46.0655 44.4311 45.6009C44.6357 45.2033 44.8261 44.8297 44.8974 44.4513C44.9688 44.0681 44.9165 43.6419 44.8641 43.1964C44.8023 42.6791 44.7404 42.1474 44.8641 41.6349C44.9926 41.1176 45.2923 40.6722 45.5873 40.2411C45.8395 39.8723 46.0727 39.5227 46.1868 39.1538C46.301 38.7802 46.3058 38.354 46.3058 37.9085C46.3058 37.3864 46.3106 36.85 46.4961 36.3566C46.6817 35.8585 47.0385 35.4514 47.3811 35.0586C47.6761 34.7233 47.9521 34.4072 48.1091 34.0528C48.2661 33.6983 48.3232 33.2768 48.3755 32.8314C48.4421 32.3141 48.5088 31.7824 48.7514 31.313C48.9988 30.8436 49.3985 30.4844 49.7839 30.1347C50.117 29.8378 50.431 29.5552 50.6261 29.2247C50.8259 28.8894 50.9306 28.4823 51.04 28.0464C51.1685 27.5435 51.297 27.0214 51.5967 26.5855C51.8965 26.1496 52.3342 25.8383 52.7624 25.5413C53.1288 25.2875 53.4714 25.0432 53.7093 24.7367C53.9472 24.4301 54.0994 24.0374 54.2612 23.6159C54.4468 23.1321 54.6418 22.6292 54.9892 22.2316C55.3413 21.8341 55.8123 21.5802 56.2691 21.3359C56.664 21.1252 57.0351 20.9288 57.3063 20.651C57.5775 20.378 57.7774 20.0044 57.9867 19.6068C58.2294 19.147 58.4816 18.6728 58.8765 18.3184C59.2714 17.9687 59.771 17.7724 60.2515 17.5856C60.6655 17.4227 61.0604 17.2694 61.3649 17.0299C61.6694 16.7905 61.9073 16.4408 62.1643 16.0768C62.4593 15.6505 62.7638 15.205 63.2015 14.9033C63.6345 14.6015 64.1531 14.4722 64.6527 14.3429C65.0857 14.2327 65.4949 14.1273 65.8232 13.9262C66.1515 13.725 66.4322 13.4089 66.7272 13.0784C67.0745 12.6904 67.4314 12.2881 67.8977 12.039C68.364 11.7947 68.8921 11.7229 69.406 11.6606C69.8485 11.6031 70.2672 11.5505 70.6193 11.3924C70.9714 11.2343 71.2854 10.9565 71.6184 10.6596C72.0086 10.3147 72.413 9.96026 72.9079 9.76867C73.3979 9.58187 73.9308 9.57708 74.4495 9.57708C74.8967 9.57708 75.3154 9.57708 75.6866 9.45733C76.0529 9.34238 76.4003 9.10289 76.7666 8.85382C77.1948 8.56165 77.6373 8.2551 78.1512 8.12578C78.6603 8.00124 79.1932 8.06351 79.7023 8.12578C80.1448 8.17847 80.5635 8.22636 80.9489 8.15931C81.3248 8.09225 81.6959 7.89587 82.0908 7.68991C82.5524 7.45042 83.0282 7.20135 83.5563 7.13909C84.0749 7.07682 84.5936 7.20135 85.0932 7.32589C85.5261 7.43126 85.9401 7.53185 86.3302 7.5079C86.7109 7.48395 87.1058 7.33547 87.5197 7.1822C88.0051 7.00018 88.5094 6.80859 89.0423 6.80859C89.5752 6.80859 90.0748 6.99539 90.5649 7.1822C90.9788 7.34026 91.3737 7.48395 91.7544 7.5079C92.1445 7.53185 92.5537 7.43126 92.9915 7.32589C93.491 7.20135 94.0097 7.07682 94.5283 7.13909C95.0564 7.20135 95.5322 7.45042 95.9938 7.68991C96.3887 7.89587 96.7598 8.08746 97.1357 8.15931C97.5163 8.23115 97.935 8.17847 98.3823 8.12578C98.8962 8.06351 99.4243 8.00124 99.9334 8.12578C100.447 8.2551 100.89 8.55686 101.318 8.85382C101.684 9.10768 102.032 9.34238 102.398 9.45733C102.769 9.57229 103.193 9.57708 103.635 9.57708C104.154 9.57708 104.687 9.58187 105.177 9.76867C105.672 9.95547 106.076 10.3147 106.466 10.6596C106.799 10.9565 107.113 11.2343 107.465 11.3924C107.817 11.5505 108.236 11.6079 108.679 11.6606C109.192 11.7277 109.721 11.7947 110.187 12.039C110.653 12.2881 111.01 12.6904 111.357 13.0784C111.652 13.4137 111.933 13.7298 112.261 13.9262C112.594 14.1273 112.999 14.2327 113.432 14.3429C113.931 14.4722 114.45 14.6015 114.883 14.9033C115.316 15.205 115.625 15.6457 115.92 16.0768C116.173 16.4456 116.415 16.7905 116.72 17.0299C117.024 17.2694 117.414 17.4227 117.833 17.5856C118.314 17.7724 118.813 17.9687 119.208 18.3184C119.603 18.6728 119.855 19.147 120.098 19.6068C120.307 20.0044 120.502 20.378 120.778 20.651C121.049 20.924 121.421 21.1252 121.816 21.3359C122.272 21.5802 122.743 21.8341 123.095 22.2316C123.443 22.6292 123.638 23.1321 123.823 23.6159C123.985 24.0326 124.137 24.4301 124.375 24.7367C124.613 25.0432 124.961 25.2827 125.322 25.5413C125.746 25.8383 126.188 26.1449 126.488 26.5855C126.788 27.0214 126.916 27.5435 127.045 28.0464C127.154 28.4823 127.259 28.8942 127.459 29.2247C127.658 29.5552 127.972 29.8378 128.301 30.1347C128.686 30.4844 129.086 30.8436 129.333 31.313C129.576 31.7824 129.647 32.3141 129.709 32.8314C129.766 33.2768 129.818 33.6983 129.976 34.0528C130.133 34.4072 130.408 34.7233 130.703 35.0586C131.046 35.4514 131.398 35.8585 131.588 36.3566C131.774 36.85 131.779 37.3912 131.779 37.9085C131.779 38.3587 131.779 38.7802 131.898 39.1538C132.012 39.5227 132.25 39.8723 132.497 40.2411C132.787 40.6722 133.092 41.1176 133.22 41.6397C133.344 42.1522 133.282 42.6839 133.22 43.2012C133.168 43.6466 133.121 44.0681 133.187 44.4561C133.254 44.8345 133.449 45.2081 133.653 45.6057C133.891 46.0703 134.139 46.5492 134.201 47.0809C134.262 47.603 134.139 48.1251 134.015 48.628C133.91 49.0639 133.81 49.4806 133.834 49.8733C133.858 50.2565 134.006 50.6541 134.158 51.0708C134.339 51.5593 134.529 52.067 134.529 52.6035C134.529 53.1399 134.343 53.6429 134.158 54.1362C134.001 54.5529 133.858 54.9505 133.834 55.3337C133.81 55.7264 133.91 56.1383 134.015 56.579C134.134 57.0819 134.262 57.604 134.201 58.1261C134.139 58.6578 133.891 59.1367 133.653 59.6013C133.449 59.9989 133.259 60.3725 133.187 60.7509C133.116 61.1341 133.168 61.5604 133.22 62.0058C133.282 62.5231 133.344 63.0548 133.22 63.5673C133.092 64.0846 132.792 64.53 132.497 64.9659C132.245 65.3347 132.012 65.6843 131.898 66.0531C131.784 66.4267 131.779 66.8482 131.779 67.2985C131.779 67.8206 131.774 68.357 131.588 68.8504C131.403 69.3485 131.046 69.7556 130.703 70.1484C130.408 70.4837 130.133 70.7998 129.976 71.1542C129.818 71.5087 129.761 71.9302 129.709 72.3756C129.642 72.8929 129.576 73.4246 129.333 73.894C129.086 74.3634 128.686 74.7226 128.301 75.0723C127.968 75.3692 127.654 75.6518 127.459 75.9823C127.259 76.3176 127.154 76.7247 127.045 77.1606C126.916 77.6635 126.788 78.1856 126.488 78.6215C126.188 79.0573 125.75 79.3687 125.322 79.6656C124.956 79.9195 124.613 80.1638 124.375 80.4703C124.137 80.7769 123.985 81.1696 123.823 81.5911C123.638 82.0749 123.443 82.5778 123.095 82.9754C122.743 83.3729 122.272 83.6268 121.816 83.8711C121.421 84.0818 121.049 84.2782 120.778 84.556C120.507 84.829 120.307 85.2026 120.098 85.6002C119.855 86.06 119.603 86.5342 119.208 86.8886C118.813 87.243 118.314 87.4346 117.833 87.6214C117.419 87.7843 117.024 87.9376 116.72 88.177C116.415 88.4165 116.177 88.7662 115.92 89.1302C115.625 89.5565 115.321 90.0019 114.883 90.3037C114.45 90.6055 113.931 90.7396 113.432 90.8641C112.999 90.9743 112.59 91.0796 112.261 91.2808C111.933 91.482 111.652 91.7981 111.357 92.1286C111.01 92.5166 110.653 92.9189 110.187 93.168C109.721 93.4123 109.192 93.4841 108.679 93.5464C108.236 93.6038 107.817 93.6565 107.465 93.8146C107.113 93.9727 106.799 94.2505 106.466 94.5474C106.076 94.8923 105.672 95.2467 105.177 95.4383C104.687 95.6251 104.149 95.6299 103.635 95.6299C103.188 95.6299 102.769 95.6299 102.398 95.7497C102.032 95.8646 101.684 96.1041 101.318 96.3532C100.89 96.6453 100.447 96.9519 99.9286 97.0812C99.4195 97.2057 98.8914 97.1435 98.3775 97.0812C97.935 97.0285 97.5163 96.9806 97.1309 97.0477C96.755 97.1147 96.3839 97.3111 95.989 97.5171C95.5275 97.7566 95.0517 98.0056 94.5235 98.0679C94.0049 98.1302 93.4863 98.0056 92.9867 97.8811C92.5537 97.7757 92.1398 97.6751 91.7496 97.6991C91.369 97.723 90.9741 97.8715 90.5601 98.0248C90.0748 98.2068 89.5704 98.3984 89.0375 98.3984L89.0423 98.3888ZM86.216 97.0668C86.2684 97.0668 86.316 97.0668 86.3683 97.0668C86.8393 97.0956 87.2961 97.268 87.7338 97.4309C88.1906 97.6033 88.6188 97.7614 89.0423 97.7614C89.4658 97.7614 89.894 97.5985 90.3508 97.4309C90.7885 97.268 91.2453 97.0956 91.7163 97.0668C92.1969 97.0381 92.6727 97.1531 93.1342 97.268C93.6005 97.383 94.0477 97.4883 94.4569 97.4404C94.8756 97.3878 95.2801 97.177 95.713 96.9519C96.1317 96.7364 96.56 96.5112 97.0263 96.425C97.4973 96.3388 97.9826 96.3963 98.4537 96.449C98.9342 96.5064 99.3862 96.5591 99.7859 96.4585C100.195 96.358 100.571 96.0993 100.975 95.8215C101.361 95.5533 101.765 95.2803 102.217 95.1366C102.674 94.9929 103.164 94.9929 103.635 94.9881C104.12 94.9881 104.577 94.9881 104.963 94.8348C105.353 94.6863 105.7 94.3798 106.062 94.0589C106.414 93.7475 106.78 93.4266 107.213 93.2255C107.651 93.0291 108.131 92.9668 108.603 92.9045C109.083 92.8423 109.535 92.7848 109.901 92.5884C110.273 92.392 110.577 92.0472 110.901 91.6832C111.215 91.3287 111.538 90.9647 111.947 90.7156C112.357 90.4666 112.828 90.3468 113.284 90.2319C113.755 90.1121 114.198 90.0019 114.541 89.7625C114.883 89.523 115.145 89.1446 115.421 88.747C115.692 88.3591 115.968 87.9567 116.344 87.6598C116.72 87.3628 117.176 87.1856 117.614 87.0179C118.066 86.8407 118.494 86.6779 118.804 86.4C119.118 86.1222 119.332 85.7151 119.555 85.284C119.774 84.8673 120.003 84.4315 120.341 84.0914C120.678 83.7513 121.107 83.5214 121.525 83.3011C121.953 83.0712 122.358 82.8556 122.634 82.5443C122.91 82.233 123.076 81.8019 123.248 81.3468C123.419 80.9062 123.59 80.4464 123.89 80.068C124.185 79.6896 124.585 79.4118 124.97 79.1388C125.37 78.861 125.741 78.5975 125.979 78.2527C126.217 77.9078 126.326 77.4624 126.445 76.9882C126.559 76.5284 126.678 76.0542 126.926 75.6423C127.173 75.2303 127.535 74.9046 127.887 74.5885C128.248 74.2628 128.591 73.9563 128.786 73.5826C128.981 73.2138 129.038 72.7588 129.1 72.275C129.162 71.8056 129.219 71.3171 129.419 70.8764C129.614 70.4406 129.933 70.0718 130.247 69.7173C130.566 69.3485 130.87 69.0036 131.018 68.6109C131.165 68.2229 131.165 67.7631 131.17 67.2745C131.17 66.8004 131.175 66.307 131.317 65.8472C131.46 65.3922 131.731 64.985 131.998 64.5971C132.274 64.1947 132.531 63.8115 132.63 63.3996C132.73 62.9973 132.678 62.5375 132.621 62.0585C132.564 61.5843 132.512 61.0957 132.597 60.6216C132.683 60.1522 132.906 59.7163 133.121 59.2996C133.344 58.8637 133.554 58.4566 133.606 58.0351C133.653 57.6232 133.549 57.1777 133.435 56.7035C133.325 56.2389 133.206 55.7599 133.235 55.2762C133.263 54.802 133.435 54.3422 133.596 53.9015C133.768 53.4417 133.925 53.0106 133.925 52.5843C133.925 52.158 133.763 51.727 133.596 51.2672C133.435 50.8265 133.263 50.3667 133.235 49.8925C133.206 49.4087 133.32 48.9297 133.435 48.4651C133.549 47.9957 133.653 47.5503 133.606 47.1336C133.554 46.7121 133.344 46.305 133.121 45.8691C132.906 45.4476 132.683 45.0165 132.597 44.5471C132.512 44.0729 132.569 43.5844 132.621 43.1102C132.678 42.6264 132.73 42.1714 132.63 41.7691C132.531 41.3571 132.274 40.9787 131.998 40.5716C131.731 40.1836 131.46 39.7765 131.317 39.3215C131.175 38.8617 131.175 38.3683 131.17 37.8941C131.17 37.4056 131.17 36.9458 131.018 36.5578C130.87 36.165 130.566 35.8154 130.247 35.4514C129.937 35.0969 129.614 34.7281 129.419 34.2922C129.224 33.8516 129.162 33.3678 129.1 32.8936C129.038 32.4099 128.981 31.9548 128.786 31.586C128.591 31.2124 128.248 30.9059 127.887 30.5802C127.535 30.2641 127.173 29.9383 126.926 29.5264C126.678 29.1145 126.559 28.6403 126.445 28.1805C126.326 27.7063 126.217 27.2609 125.979 26.916C125.741 26.5711 125.365 26.3077 124.97 26.0299C124.585 25.7569 124.185 25.4791 123.89 25.1007C123.595 24.7223 123.419 24.2625 123.252 23.8218C123.076 23.3668 122.915 22.9357 122.639 22.6244C122.363 22.3083 121.958 22.0927 121.53 21.8676C121.116 21.6473 120.683 21.4174 120.345 21.0773C120.007 20.7372 119.779 20.3061 119.56 19.8846C119.332 19.4536 119.118 19.0464 118.808 18.7686C118.499 18.4908 118.071 18.3232 117.619 18.1507C117.181 17.9783 116.724 17.8059 116.349 17.5089C115.973 17.212 115.697 16.8096 115.425 16.4216C115.15 16.0193 114.888 15.6409 114.545 15.4062C114.203 15.1667 113.76 15.0566 113.289 14.9368C112.832 14.8219 112.361 14.7021 111.952 14.4531C111.543 14.204 111.219 13.84 110.905 13.4855C110.582 13.1215 110.277 12.7766 109.906 12.5803C109.54 12.3839 109.088 12.3264 108.607 12.2641C108.141 12.2019 107.656 12.1444 107.218 11.9432C106.785 11.7468 106.419 11.4259 106.066 11.1098C105.7 10.7889 105.358 10.4823 104.967 10.3339C104.582 10.1854 104.125 10.1854 103.64 10.1806C103.169 10.1806 102.679 10.1758 102.222 10.0321C101.77 9.88841 101.366 9.61539 100.98 9.34717C100.58 9.06936 100.2 8.81071 99.7907 8.71013C99.391 8.60954 98.9342 8.66223 98.4584 8.71971C97.9874 8.77719 97.5021 8.82987 97.031 8.74366C96.5647 8.65744 96.1317 8.43232 95.7178 8.21678C95.2848 7.99166 94.8804 7.78092 94.4617 7.72823C94.0525 7.68033 93.61 7.78571 93.139 7.90066C92.6774 8.01082 92.2064 8.13057 91.7211 8.10183C91.25 8.07309 90.7933 7.90066 90.3555 7.73781C89.8987 7.56538 89.4705 7.40731 89.0471 7.40731C88.6236 7.40731 88.1954 7.57017 87.7386 7.73781C87.3009 7.90066 86.8441 8.07309 86.3731 8.10183C85.8925 8.13057 85.4167 8.01561 84.9552 7.90066C84.4889 7.78571 84.0464 7.68033 83.6324 7.72823C83.2137 7.78092 82.8093 7.99166 82.3763 8.21678C81.9576 8.43232 81.5294 8.65744 81.0631 8.74366C80.5921 8.82987 80.1067 8.7724 79.6357 8.71971C79.1551 8.66223 78.7031 8.60954 78.3035 8.71013C77.8943 8.81071 77.5184 9.06936 77.114 9.34717C76.7286 9.61539 76.3241 9.88841 75.8721 10.0321C75.4153 10.1758 74.9253 10.1758 74.4542 10.1806C73.9689 10.1806 73.5121 10.1806 73.1267 10.3339C72.7366 10.4823 72.3892 10.7889 72.0276 11.1098C71.6755 11.4211 71.3092 11.742 70.8762 11.9432C70.4385 12.1396 69.9579 12.2019 69.4869 12.2641C69.0063 12.3264 68.5543 12.3839 68.1879 12.5803C67.8168 12.7766 67.5123 13.1215 67.1887 13.4855C66.8747 13.84 66.5512 14.204 66.142 14.4531C65.7328 14.7021 65.2617 14.8219 64.805 14.9368C64.3339 15.0566 63.8914 15.1667 63.5488 15.4062C63.2063 15.6457 62.9446 16.0241 62.6686 16.4216C62.3974 16.8096 62.1214 17.212 61.7456 17.5089C61.3697 17.8059 60.9129 17.9831 60.4752 18.1555C60.0232 18.3328 59.5949 18.4956 59.2857 18.7734C58.9716 19.0512 58.7575 19.4584 58.5339 19.8894C58.315 20.3061 58.0866 20.742 57.7488 21.0821C57.411 21.4222 56.9828 21.6521 56.5641 21.8724C56.1359 22.1023 55.7314 22.3178 55.4555 22.6292C55.1795 22.9405 55.013 23.3716 54.8417 23.8266C54.6704 24.2673 54.4991 24.7271 54.2041 25.1055C53.9091 25.4839 53.5094 25.7617 53.124 26.0347C52.7244 26.3125 52.3485 26.5759 52.1153 26.9208C51.8774 27.2657 51.768 27.7111 51.649 28.1853C51.5349 28.6451 51.4159 29.1193 51.1685 29.5312C50.9211 29.9431 50.5595 30.2688 50.2074 30.585C49.8458 30.9107 49.5032 31.2172 49.3081 31.5908C49.113 31.9596 49.0559 32.4194 48.9941 32.8984C48.9322 33.3678 48.8751 33.8564 48.6753 34.297C48.4802 34.7329 48.1614 35.1017 47.8474 35.4562C47.5286 35.825 47.2241 36.1698 47.0766 36.5626C46.9291 36.9506 46.9291 37.4104 46.9243 37.8989C46.9243 38.3731 46.9196 38.8665 46.7768 39.3263C46.6341 39.7813 46.3629 40.1884 46.0964 40.5764C45.8205 40.9787 45.5635 41.3619 45.4636 41.7738C45.3637 42.1762 45.416 42.636 45.4731 43.115C45.5302 43.5892 45.5873 44.0777 45.4969 44.5519C45.4113 45.0213 45.1877 45.4572 44.9736 45.8739C44.7499 46.3097 44.5406 46.7217 44.4882 47.1384C44.4407 47.5503 44.5453 47.9957 44.6595 48.4699C44.769 48.9345 44.8879 49.4135 44.8594 49.8973C44.8308 50.3715 44.6595 50.8313 44.4978 51.2719C44.3265 51.7318 44.1694 52.1628 44.1694 52.5891C44.1694 53.0154 44.3312 53.4465 44.4978 53.9063C44.6595 54.347 44.8308 54.8068 44.8594 55.281C44.8879 55.7647 44.7737 56.2437 44.6595 56.7083C44.5453 57.1777 44.4407 57.6232 44.4882 58.0399C44.5406 58.4614 44.7499 58.8685 44.9736 59.3044C45.1877 59.7259 45.4113 60.1569 45.4969 60.6263C45.5826 61.1005 45.5255 61.5891 45.4731 62.0633C45.416 62.547 45.3637 63.0021 45.4636 63.4044C45.5635 63.8163 45.8205 64.1947 46.0964 64.6018C46.3629 64.9898 46.6341 65.3969 46.7768 65.852C46.9196 66.3118 46.9196 66.8051 46.9243 67.2793C46.9243 67.7679 46.9243 68.2277 47.0766 68.6157C47.2241 69.0084 47.5286 69.3581 47.8474 69.7221C48.1567 70.0765 48.4755 70.4454 48.6753 70.8812C48.8704 71.3219 48.9322 71.8056 48.9941 72.2798C49.0559 72.7636 49.113 73.2186 49.3081 73.5874C49.5032 73.961 49.8458 74.2676 50.2074 74.5933C50.5595 74.9094 50.9211 75.2351 51.1685 75.647C51.4159 76.059 51.5349 76.5331 51.649 76.993C51.768 77.4671 51.8774 77.9126 52.1153 78.2575C52.3532 78.6023 52.7291 78.8658 53.124 79.1436C53.5094 79.4166 53.9091 79.6944 54.2041 80.0728C54.4991 80.4512 54.6751 80.911 54.8417 81.3516C55.0177 81.8067 55.1795 82.2377 55.4555 82.5491C55.7314 82.8652 56.1359 83.0807 56.5641 83.3059C56.978 83.5262 57.411 83.7561 57.7488 84.0962C58.0866 84.4362 58.315 84.8673 58.5339 85.2888C58.7623 85.7199 58.9764 86.127 59.2857 86.4048C59.5949 86.6826 60.0232 86.8503 60.4752 87.0227C60.9129 87.1951 61.3697 87.3676 61.7456 87.6645C62.1214 87.9615 62.3974 88.3639 62.6686 88.7518C62.9446 89.1542 63.2063 89.5325 63.5488 89.7673C63.8914 90.0067 64.3339 90.1169 64.805 90.2366C65.2617 90.3516 65.7328 90.4713 66.142 90.7204C66.5512 90.9695 66.8747 91.3335 67.1887 91.688C67.5123 92.052 67.8168 92.3968 68.1879 92.5932C68.5543 92.7896 69.0111 92.8471 69.4869 92.9093C69.9531 92.9716 70.4385 93.0291 70.8762 93.2302C71.3092 93.4266 71.6755 93.7475 72.0276 94.0637C72.394 94.3846 72.7366 94.6911 73.1267 94.8396C73.5121 94.9881 73.9689 94.9881 74.4542 94.9929C74.9253 94.9929 75.4153 94.9977 75.8721 95.1414C76.3241 95.285 76.7286 95.5581 77.114 95.8263C77.5136 96.1041 77.8943 96.3627 78.3035 96.4633C78.7031 96.5639 79.1599 96.5112 79.6357 96.4538C80.1067 96.3963 80.5921 96.3436 81.0631 96.4298C81.5294 96.516 81.9624 96.7411 82.3763 96.9567C82.8093 97.1818 83.2137 97.3925 83.6324 97.4452C84.0416 97.4931 84.4841 97.3878 84.9552 97.2728C85.3644 97.1722 85.7926 97.0668 86.2208 97.0668H86.216Z" fill="#C67710" style="fill:#C67710;fill:color(display-p3 0.7750 0.4678 0.0646);fill-opacity:1;"/>
<path d="M53.0909 46.98L47.8428 55.9225H58.339L53.0909 46.98ZM53.0909 49.1881L56.3882 54.8017H49.7983L53.0956 49.1881H53.0909Z" fill="#C67710" style="fill:#C67710;fill:color(display-p3 0.7750 0.4678 0.0646);fill-opacity:1;"/>
<path d="M124.994 57.0431L130.242 48.1006H119.746L124.994 57.0431ZM124.994 54.8398L121.697 49.2262H128.287L124.989 54.8398H124.994Z" fill="#C67710" style="fill:#C67710;fill:color(display-p3 0.7750 0.4678 0.0646);fill-opacity:1;"/>
<path d="M94.2335 20.5309L91.7403 16.2823H94.1098V15.1615H91.0837L88.9854 11.5884L86.8871 15.1615H83.861V16.2823H86.2305L83.7373 20.5309H94.2335ZM88.9854 13.7965L89.7895 15.1663H88.1813L88.9854 13.7965ZM90.4461 16.2823L92.2779 19.4101H85.6881L87.5247 16.2823H90.4461Z" fill="#C67710" style="fill:#C67710;fill:color(display-p3 0.7750 0.4678 0.0646);fill-opacity:1;"/>
<path d="M83.7705 84.6562L85.9069 88.2965H83.8609V89.4173H86.5635L89.0186 93.5987L91.4737 89.4173H94.1097V88.2965H92.1303L94.2667 84.6562H83.7705ZM89.0186 91.3907L87.8576 89.4125H90.1796L89.0186 91.3907ZM87.201 88.2965L85.7213 85.7771H92.3111L90.8314 88.2965H87.1963H87.201Z" fill="#C67710" style="fill:#C67710;fill:color(display-p3 0.7750 0.4678 0.0646);fill-opacity:1;"/>
<path d="M73.1693 84.5844C72.5269 85.7004 71.1043 86.0836 69.9957 85.4418C68.887 84.7952 68.5064 83.363 69.144 82.247L69.4247 81.7632L66.1797 79.8809L65.623 80.8532L67.9402 82.1991C67.355 83.7558 67.9592 85.5615 69.439 86.4189C70.9187 87.2763 72.7696 86.9026 73.8163 85.6142L76.1335 86.9601L76.6902 85.9878L73.4452 84.1054L73.1645 84.5892L73.1693 84.5844Z" fill="#C67710" style="fill:#C67710;fill:color(display-p3 0.7750 0.4678 0.0646);fill-opacity:1;"/>
<path d="M67.0645 78.3311L66.5078 79.3018L77.0194 85.4111L77.5761 84.4405L67.0645 78.3311Z" fill="#C67710" style="fill:#C67710;fill:color(display-p3 0.7750 0.4678 0.0646);fill-opacity:1;"/>
<path d="M56.2884 66.4984L60.4564 68.2275L56.2932 70.6463L55.2892 68.9028L54.3281 69.4632L55.3273 71.2067L53.21 72.4377L53.7666 73.4052L55.884 72.1742L56.8879 73.9225L57.849 73.3621L56.8498 71.6138L61.0131 69.195L60.4136 73.6926L61.5175 73.8411L62.3216 67.7868L56.7119 65.459L56.2884 66.4984Z" fill="#C67710" style="fill:#C67710;fill:color(display-p3 0.7750 0.4678 0.0646);fill-opacity:1;"/>
<path d="M104.615 16.1818C105.067 16.0572 105.533 16.1243 105.938 16.359C106.475 16.6703 106.808 17.2547 106.808 17.9157C106.808 17.9396 106.913 20.1477 104.311 25.1003L105.276 25.6607C108.236 20.9141 110.191 19.8986 110.244 19.8699C110.781 19.5586 111.448 19.5586 111.985 19.8699C112.39 20.1046 112.675 20.483 112.799 20.9332C112.918 21.3835 112.856 21.8576 112.623 22.2648L113.589 22.8252C113.969 22.1594 114.069 21.3835 113.874 20.641C113.674 19.8986 113.203 19.2808 112.542 18.8976C111.662 18.3851 110.567 18.3851 109.73 18.8736C109.673 18.9024 108.778 19.343 107.313 20.9859C107.993 18.8928 107.927 17.9013 107.922 17.8678C107.922 16.8428 107.375 15.8896 106.494 15.3819C105.833 14.9987 105.062 14.8981 104.33 15.0945C103.592 15.2957 102.978 15.7699 102.598 16.4356L103.564 16.996C103.797 16.5889 104.173 16.3015 104.62 16.177L104.615 16.1818Z" fill="#C67710" style="fill:#C67710;fill:color(display-p3 0.7750 0.4678 0.0646);fill-opacity:1;"/>
<path d="M116.144 33.2191C115.278 32.5724 114.284 32.103 113.204 31.8348L112.938 32.9221C114.836 33.3915 116.42 34.5841 117.391 36.2797C118.362 37.9753 118.6 39.9487 118.052 41.8406L119.123 42.1568C119.437 41.0791 119.527 39.9774 119.404 38.8997L124.499 35.9396C125.365 36.5863 126.355 37.0557 127.44 37.3239L127.706 36.2366C125.808 35.7672 124.224 34.5746 123.253 32.879C122.282 31.1834 122.044 29.21 122.592 27.3181L121.521 27.002C121.207 28.0796 121.117 29.1813 121.24 30.259L116.144 33.2191ZM123.6 35.1637L119.18 37.731C118.994 37.0365 118.723 36.3611 118.352 35.7193C117.986 35.0775 117.539 34.5027 117.034 33.995L121.454 31.4277C121.64 32.1222 121.911 32.7976 122.282 33.4394C122.649 34.0812 123.096 34.656 123.6 35.1637Z" fill="#C67710" style="fill:#C67710;fill:color(display-p3 0.7750 0.4678 0.0646);fill-opacity:1;"/>
<path d="M68.4495 21.3737L66.7747 22.3221L67.3219 23.2992L68.9967 22.3509C69.7295 23.9363 69.8532 25.7181 69.3393 27.4184L70.4051 27.7441C71.0094 25.7468 70.8476 23.6585 69.9674 21.8L72.3321 20.4637C73.4502 22.188 75.1393 23.4094 77.1472 23.9315L77.4279 22.8442C75.715 22.3987 74.2734 21.369 73.3075 19.9129L74.9823 18.9645L74.4351 17.9874L72.7603 18.9358C72.0276 17.3503 71.9039 15.5685 72.4177 13.8682L71.3519 13.5425C70.7477 15.5398 70.9094 17.6281 71.7897 19.4866L69.4249 20.8229C68.3068 19.0986 66.6177 17.8772 64.6098 17.3551L64.3291 18.4424C66.042 18.8879 67.4837 19.9177 68.4495 21.3737Z" fill="#C67710" style="fill:#C67710;fill:color(display-p3 0.7750 0.4678 0.0646);fill-opacity:1;"/>
<path d="M120.317 65.5496C119.789 65.2575 119.175 65.1808 118.594 65.3389C117.99 65.5017 117.486 65.8897 117.172 66.4357C116.858 66.9818 116.777 67.6188 116.939 68.2223C117.1 68.8306 117.486 69.3383 118.028 69.6545C118.39 69.8652 118.79 69.9706 119.194 69.9706C119.399 69.9706 119.603 69.9466 119.803 69.8892C120.407 69.7263 120.912 69.3383 121.226 68.7923C121.44 68.4187 121.544 68.0068 121.54 67.5853C122.539 68.3612 123.662 69.5922 123.923 71.3165L125.023 71.1489C124.456 67.3554 120.612 65.6694 120.317 65.5448V65.5496ZM120.26 68.2367C119.922 68.8258 119.165 69.0318 118.58 68.6869C118.295 68.5241 118.095 68.2558 118.009 67.9349C117.924 67.614 117.966 67.2835 118.133 66.9961C118.361 66.5986 118.775 66.3783 119.199 66.3783C119.408 66.3783 119.617 66.431 119.813 66.5459C120.098 66.7088 120.298 66.977 120.383 67.2979C120.469 67.6188 120.426 67.9493 120.26 68.2367Z" fill="#C67710" style="fill:#C67710;fill:color(display-p3 0.7750 0.4678 0.0646);fill-opacity:1;"/>
<path d="M122.372 71.3022C121.83 70.9861 121.197 70.9046 120.597 71.0675C119.993 71.2303 119.489 71.6183 119.175 72.1643C118.961 72.5379 118.856 72.9499 118.861 73.3714C117.862 72.5954 116.734 71.3645 116.477 69.6401L115.378 69.8078C115.954 73.6683 119.927 75.3495 120.098 75.4214C120.44 75.6082 120.816 75.704 121.197 75.704C121.402 75.704 121.606 75.68 121.806 75.6226C122.41 75.4597 122.915 75.0717 123.229 74.5257C123.543 73.9797 123.624 73.3426 123.462 72.7391C123.3 72.1308 122.915 71.6231 122.372 71.307V71.3022ZM122.263 73.9605C121.925 74.5496 121.173 74.7508 120.583 74.4107C120.298 74.2479 120.098 73.9797 120.012 73.6587C119.927 73.3378 119.969 73.0073 120.136 72.72C120.302 72.4326 120.564 72.2266 120.883 72.1452C120.988 72.1164 121.097 72.1021 121.202 72.1021C121.416 72.1021 121.625 72.1596 121.811 72.2697C122.096 72.4326 122.296 72.7008 122.382 73.0217C122.467 73.3426 122.425 73.6731 122.258 73.9605H122.263Z" fill="#C67710" style="fill:#C67710;fill:color(display-p3 0.7750 0.4678 0.0646);fill-opacity:1;"/>
<path d="M62.7642 30.7569C62.4454 30.9581 62.2551 31.255 62.1219 31.4897C61.7175 32.2226 61.5367 33.0081 61.4082 33.7984C60.9419 33.6355 60.4661 33.3769 59.9808 33.0991C59.386 32.759 58.796 32.3902 58.2013 32.0262C57.6446 31.6813 57.0879 31.3412 56.5312 31.0155C55.2561 30.2731 53.6479 30.6707 52.9437 31.8921C52.5297 32.6153 52.525 33.4727 52.8533 34.2007C52.2823 34.239 51.659 34.445 51.1689 35.015L52.0111 35.7478C52.6392 35.015 53.8334 35.4125 54.0285 35.4796L59.2481 38.5163L59.8047 37.544L54.5424 34.4833C53.8001 34.0522 53.5146 33.1374 53.9096 32.4477C54.3045 31.7579 55.2323 31.5472 55.9745 31.9783C56.5217 32.2944 57.0689 32.6345 57.6208 32.9745C58.2251 33.3481 58.8294 33.717 59.4289 34.0666C60.0093 34.4019 60.6136 34.7276 61.2369 34.9144C61.2131 35.0868 61.1846 35.2545 61.1513 35.4221C60.8896 36.8495 60.3757 38.205 59.6192 39.4455L60.5708 40.0299C61.3939 38.6696 61.9601 37.1895 62.2456 35.6281C62.2789 35.4509 62.3075 35.2736 62.336 35.0916C62.5501 35.0916 62.7642 35.0677 62.9783 35.0198C63.9062 34.809 64.6817 34.1193 65.0053 33.2236C65.2574 32.5291 65.1908 31.7963 64.8292 31.2646C64.3629 30.5797 63.4161 30.345 62.7595 30.7569H62.7642ZM63.9633 32.8452C63.7682 33.3817 63.2876 33.808 62.7357 33.9325C62.6596 33.9517 62.5834 33.9612 62.5073 33.9708C62.6215 33.2763 62.7785 32.6201 63.0973 32.0405C63.1591 31.9304 63.2495 31.7771 63.3542 31.7148C63.3923 31.6909 63.4446 31.6765 63.497 31.6765C63.6445 31.6765 63.8205 31.7627 63.9157 31.9016C64.0727 32.1315 64.0917 32.4956 63.9633 32.8452Z" fill="#C67710" style="fill:#C67710;fill:color(display-p3 0.7750 0.4678 0.0646);fill-opacity:1;"/>
<path d="M113.309 82.3809L109.683 77.0786L108.765 77.7156L112.414 83.0514C112.681 83.4394 112.809 83.8849 112.771 84.3064C112.738 84.6848 112.576 84.9961 112.309 85.1781C112.043 85.3601 111.696 85.4032 111.334 85.3026C110.93 85.1877 110.563 84.9099 110.297 84.5171C109.926 83.9711 109.288 83.0131 108.632 82.0312C107.889 80.9152 107.123 79.7609 106.695 79.143L106.143 79.5262L105.724 79.8136L109.374 85.1494C109.64 85.5373 109.769 85.9828 109.731 86.4043C109.697 86.7827 109.536 87.094 109.269 87.276C108.689 87.6784 107.785 87.3862 107.256 86.615C106.89 86.0786 106.181 85.0152 105.444 83.9088C105.153 83.4682 104.854 83.0275 104.573 82.606C104.739 81.399 105.134 80.101 105.791 78.5826L104.768 78.1324C104.268 79.2771 103.916 80.3117 103.688 81.284C103.512 81.0206 103.355 80.7955 103.241 80.623L102.327 81.2601C102.57 81.6145 102.965 82.1989 103.417 82.879C103.402 83.0419 103.383 83.2047 103.379 83.3628C103.269 85.4032 103.797 87.2952 104.863 88.6842C105.058 88.9381 105.325 89.2446 105.715 89.4122C105.867 89.4793 106.034 89.508 106.2 89.508C106.586 89.508 106.971 89.3404 107.195 89.0434C107.371 88.8087 107.452 88.5357 107.475 88.2531C107.861 88.4543 108.275 88.5645 108.679 88.5645C109.112 88.5645 109.536 88.4447 109.897 88.1909C110.444 87.8125 110.777 87.209 110.839 86.4905C110.844 86.4282 110.844 86.366 110.844 86.3085C110.901 86.3276 110.958 86.3516 111.015 86.366C111.248 86.433 111.482 86.4665 111.705 86.4665C112.148 86.4665 112.566 86.3372 112.928 86.0882C113.475 85.7098 113.808 85.1063 113.87 84.3878C113.875 84.3064 113.88 84.2201 113.88 84.1387C114.179 84.268 114.512 84.359 114.86 84.359C115.107 84.359 115.364 84.3159 115.626 84.2106L115.207 83.1712C114.403 83.5017 113.442 82.5246 113.299 82.3713L113.309 82.3809ZM106.329 88.3681C106.295 88.392 106.2 88.4064 106.162 88.392C106.01 88.3298 105.867 88.1525 105.758 88.0088C105.039 87.0748 104.616 85.8582 104.521 84.5123C104.525 84.5219 104.53 84.5267 104.535 84.5363C105.025 85.2739 105.506 85.9876 105.877 86.5432C106.205 87.118 106.538 88.0951 106.333 88.3681H106.329Z" fill="#C67710" style="fill:#C67710;fill:color(display-p3 0.7750 0.4678 0.0646);fill-opacity:1;"/>
<path d="M89.042 78.7169C103.374 78.7169 114.992 67.0211 114.992 52.5936C114.992 38.166 103.374 26.4702 89.042 26.4702C74.7101 26.4702 63.0918 38.166 63.0918 52.5936C63.0918 67.0211 74.7101 78.7169 89.042 78.7169Z" fill="#C67710" style="fill:#C67710;fill:color(display-p3 0.7750 0.4678 0.0646);fill-opacity:1;"/>
<path d="M89.0421 68.2181C97.6139 68.2181 104.563 61.2229 104.563 52.5939C104.563 43.9649 97.6139 36.9697 89.0421 36.9697C80.4703 36.9697 73.5215 43.9649 73.5215 52.5939C73.5215 61.2229 80.4703 68.2181 89.0421 68.2181Z" fill="#FDD39E" style="fill:#FDD39E;fill:color(display-p3 0.9917 0.8290 0.6198);fill-opacity:1;"/>
<path d="M81.9053 35.2356C81.5818 37.482 81.263 39.5799 80.9823 41.6779C80.7777 43.1914 80.2257 44.5326 79.3122 45.7635C76.8713 49.0589 74.4781 52.3926 72.0657 55.7119C71.8421 56.0184 71.6137 56.325 71.3996 56.6459C70.7525 57.6182 69.8533 58.2552 68.7827 58.6671C68.502 58.7725 68.3973 58.9162 68.3973 59.2275C68.4068 67.4755 68.4116 75.7235 68.3973 83.9667C68.3973 84.3403 68.4972 84.4887 68.8731 84.5989C70.4623 85.0827 71.0428 86.9459 70.0912 88.3205C69.7058 88.8762 69.3489 89.4605 69.0492 90.064C68.8779 90.4089 68.7494 90.8543 69.2918 91.0938C69.3489 91.1178 69.406 91.2998 69.3727 91.3573C69.3299 91.4291 69.1396 91.5057 69.111 91.477C68.8969 91.2567 68.5543 91.022 68.5353 90.7729C68.5067 90.3562 68.6162 89.8868 68.797 89.5036C69.0396 88.9911 69.3965 88.5361 69.7153 88.0667C70.31 87.195 70.2006 86.0646 69.4488 85.4084C68.7018 84.7618 67.6218 84.7618 66.8843 85.4084C66.1182 86.0885 66.0373 87.1566 66.6131 88.0667C67.0603 88.7756 67.4695 89.5132 67.793 90.2844C67.8977 90.5382 67.7502 90.9693 67.5932 91.2471C67.4647 91.4722 67.146 91.6399 66.889 91.2806C67.4885 90.6532 67.5314 90.4041 67.1031 89.609C66.8747 89.1923 66.5988 88.7947 66.3181 88.4116C65.2427 86.9267 65.8089 85.1018 67.5456 84.5606C67.8692 84.46 67.9215 84.3019 67.9215 84.0098C67.9215 79.1003 67.931 74.1955 67.9358 69.286C67.9358 66.2062 67.9263 63.1264 67.9215 60.0418C67.9215 59.8454 67.9215 59.649 67.9215 59.4479C67.5837 59.5532 67.2601 59.764 67.0222 59.6922C66.7177 59.6011 66.4513 59.3138 66.2277 59.0551C65.8898 58.6671 65.5948 58.2409 65.2998 57.8194C65.0191 57.417 64.824 56.9524 64.1865 57.0147C64.058 57.029 63.7963 56.7896 63.782 56.6507C63.763 56.4495 63.8534 56.1429 64.0057 56.0328C64.4053 55.7502 64.8621 55.549 65.2998 55.3191C65.4521 55.2377 65.6186 55.1802 65.8803 55.07C65.2047 54.888 64.6385 54.7683 64.1008 54.5719C63.9153 54.5048 63.8058 54.2366 63.6631 54.0594C63.8867 53.978 64.1627 53.7672 64.3244 53.8343C64.9953 54.1169 65.5948 53.9061 66.2467 53.772C66.751 53.6666 67.303 53.8055 67.8787 53.8439V24.952C67.1983 25.4837 66.6749 26.2213 65.6377 26.3267C65.7471 26.0537 65.7899 25.8669 65.8898 25.7136C66.2277 25.1867 66.5797 24.6694 66.9318 24.1521C67.2221 23.721 67.4933 23.2995 67.4219 22.7296C67.3981 22.5523 67.5599 22.3129 67.6979 22.1644C68.6542 21.1537 69.4821 20.0665 69.9532 18.7301C70.0388 18.4906 70.2434 18.2895 70.3909 18.0739C70.4623 18.0883 70.5337 18.1027 70.605 18.1122C70.6145 18.3996 70.7002 18.7062 70.6241 18.9648C70.4718 19.4917 70.2339 19.9946 70.0341 20.5071C69.6534 21.4842 69.3775 22.5236 68.8588 23.4193C68.2498 24.4635 68.3973 25.5459 68.3926 26.6284C68.383 35.614 68.383 44.5996 68.3878 53.5852C68.3878 53.7289 68.4021 53.8726 68.4068 54.0402C68.4925 54.0642 68.5543 54.0881 68.6257 54.0977C70.0436 54.3228 69.7153 54.3707 70.3766 53.2308C71.3378 51.5783 72.3132 49.9306 73.3028 48.2925C74.1498 46.8939 75.0205 45.5145 75.8769 44.1206C75.9388 44.0201 75.9816 43.8859 75.9768 43.7662C75.915 40.7199 76.5145 37.7503 77.0188 34.7758C77.1521 33.9903 77.2234 33.2431 77.0854 32.4384C76.5954 29.622 78.1893 27.2703 80.9632 26.6141C81.2915 26.5374 81.5009 26.4129 81.6531 26.0872C82.1527 25.0191 82.9664 24.1904 83.9988 23.6779C85.1408 23.108 86.3445 22.6625 87.5531 22.2362C87.9813 22.0877 88.0432 21.8866 87.9861 21.5178C87.8481 20.5981 86.6491 19.5971 85.745 19.4342C82.4715 18.8403 79.8165 20.3155 77.2282 21.9728C76.6763 22.3272 76.2623 22.9212 75.8436 23.448C75.3297 24.0946 74.873 24.7892 74.3829 25.4597C74.2449 25.6465 74.0736 25.8094 73.7881 25.9435C73.8072 25.704 73.8024 25.4645 73.85 25.2346C74.3068 22.9834 75.3916 21.0627 77.1854 19.6641C79.4692 17.8823 81.8102 16.1676 84.213 14.5534C87.3057 12.4795 90.6886 12.6711 94.043 13.7583C98.1872 15.0995 101.014 17.9973 102.907 21.8578C104.634 25.3687 105.196 29.1431 105.186 33.0228C105.186 33.0946 105.162 33.1665 105.139 33.2958H102.132C102.132 33.5736 102.132 33.7891 102.132 34.0047C102.255 39.259 102.384 44.5182 102.512 49.7726C102.579 52.5219 102.498 55.2856 102.779 58.0109C102.95 59.6922 102.745 61.3111 102.66 62.954C102.598 64.1514 102.041 65.21 101.218 66.1104L101.261 66.2733C101.922 66.211 102.588 66.1535 103.34 66.0817C103.326 66.393 103.307 66.7714 103.288 67.1211C102.37 67.0205 101.542 66.9295 100.619 66.8241C100.714 67.7868 100.795 68.6586 100.89 69.5255C100.933 69.9279 100.994 70.3302 101.075 70.7278C101.156 71.1109 101.023 71.293 100.633 71.2882C100.214 71.2882 99.8002 71.2882 99.3434 71.2882C99.4291 69.8177 99.5147 68.3951 99.6099 66.8433C98.7772 66.9343 97.9969 67.0157 97.1215 67.1115C97.1072 66.781 97.0881 66.4122 97.0739 66.0769C97.8114 66.144 98.4965 66.211 99.2721 66.2829C98.7487 65.459 98.1635 64.822 97.9113 64.0748C97.6591 63.3276 97.5782 62.4463 98.1302 61.7039C98.2301 61.5697 98.3157 61.4213 98.4775 61.177C97.7067 61.6368 97.0596 62.0296 96.3507 62.4511C96.3792 62.7241 96.422 63.0833 96.4601 63.4473C96.4839 63.6964 96.6742 63.9886 96.2555 64.1227C96.2032 64.1371 96.2127 64.3957 96.2174 64.5394C96.246 65.3105 96.2793 66.0865 96.3173 66.8576C96.3221 66.9774 96.3459 67.1211 96.4125 67.2169C97.7448 69.1519 98.2348 71.384 98.6345 73.6399C99.3101 77.4286 99.4719 81.2604 99.5147 85.1018C99.5195 85.576 99.6813 86.0646 99.824 86.5244C100.205 87.7506 100.695 88.948 100.99 90.1933C101.299 91.5057 100.6 92.2721 99.2626 92.2146C96.3031 92.0805 93.3388 91.9225 90.3841 91.7309C89.9178 91.7021 89.4325 91.477 89.0233 91.2327C88.8473 91.1273 88.7616 90.7298 88.7854 90.4807C88.7949 90.3754 89.1851 90.27 89.4135 90.2269C89.8798 90.1455 90.3603 90.1502 90.8171 90.0401C92.9344 89.5419 94.6949 88.3397 96.4125 87.0704C96.541 86.9746 96.6171 86.6777 96.5838 86.5004C96.2269 84.6181 95.9415 82.7165 95.4371 80.8725C94.5616 77.6777 93.5958 74.5069 92.568 71.3552C92.1446 70.0524 91.4309 68.8502 90.9122 67.5761C90.5601 66.7092 90.308 65.7991 90.032 64.9034C89.9416 64.6112 89.8131 64.4867 89.4896 64.5107C89.0376 64.5442 88.5808 64.5202 88.0907 64.5202C87.8766 66.1871 87.4246 67.7246 87.5769 69.3627C87.7957 71.6953 87.5055 74.0183 87.0345 76.2935C86.3779 79.4834 85.5928 82.6495 84.8363 85.8155C84.7411 86.2131 84.7316 86.5435 84.9124 86.9172C85.4025 87.9182 85.7593 88.9624 85.7641 90.0928C85.7688 91.1992 85.2692 91.7596 84.1749 91.7644C81.2297 91.774 78.2845 91.7692 75.3345 91.7165C74.8111 91.7069 74.2687 91.4866 73.7881 91.2519C73.6073 91.1657 73.4979 90.7681 73.5027 90.5143C73.5027 90.4137 73.8976 90.246 74.1164 90.2365C75.5201 90.179 76.7571 89.5946 77.9276 88.9241C79.0029 88.3062 79.9783 87.5063 80.9727 86.7543C81.1393 86.6298 81.263 86.3663 81.2868 86.1508C81.6151 83.5212 82.0481 80.8916 82.2051 78.2477C82.3716 75.4936 82.286 72.7203 82.2669 69.9566C82.2669 69.5207 82.0148 69.0897 81.9148 68.6442C81.8387 68.3281 81.7816 67.9928 81.7864 67.6719C81.7959 67.2121 81.8149 66.7379 81.9386 66.302C82.3431 64.8555 82.0195 63.3563 82.3002 61.8907C82.5762 60.425 82.6999 58.9306 82.9045 57.4505C83.3708 54.1121 83.8894 50.7784 84.2891 47.4304C84.408 46.4054 84.2415 45.3372 84.1226 44.2979C83.8656 42.1041 83.623 39.9009 82.895 37.7934C82.6095 36.9647 82.2527 36.1601 81.8815 35.2261L81.9053 35.2356ZM96.7408 34.4741L96.579 34.4836C96.0985 35.6763 95.5894 36.8594 95.1469 38.0664C94.4141 40.0541 93.748 42.061 93.0058 44.044C92.825 44.5326 92.7821 44.9588 92.8963 45.4714C93.9288 50.2228 94.9375 54.979 95.9462 59.7305C96.0842 60.3771 96.1746 61.0333 96.2888 61.6847C97.1643 61.177 97.2499 60.3148 97.4165 59.5101C97.5069 59.0839 97.7067 58.8108 98.0826 58.6384C98.6155 58.3893 99.1579 58.1642 99.667 57.8768C99.8192 57.7906 99.9763 57.5128 99.9525 57.3452C99.7526 55.7933 99.4719 54.251 99.2911 52.6943C98.9818 50.0408 98.606 47.3873 98.487 44.7241C98.4014 42.8561 98.2967 41.0121 97.878 39.192C97.5164 37.6161 97.1214 36.0499 96.7408 34.4788V34.4741ZM101.908 63.5431C100.961 63.4473 100.238 63.3707 99.5147 63.3036C99.0532 63.2605 98.782 63.6006 98.9866 64.0125C99.1626 64.367 99.372 64.7262 99.6384 65.0136C100.024 65.4255 100.519 65.4494 100.89 65.0375C101.266 64.6208 101.532 64.1035 101.908 63.5431ZM85.2692 16.9244C84.9885 16.7088 83.8847 16.4454 83.7372 16.4502C83.5849 16.455 83.209 16.8382 83.0615 16.9627C83.19 17.1064 83.5944 17.3938 83.7419 17.4225C83.8894 17.4465 84.9552 17.0968 85.2645 16.9244H85.2692Z" fill="#5A045A" style="fill:#5A045A;fill:color(display-p3 0.3514 0.0163 0.3514);fill-opacity:1;"/>
<path d="M20.1933 150.349C20.1933 150.496 20.1685 150.617 20.1153 150.717C20.0622 150.817 19.9381 150.899 19.7396 150.963C19.541 151.031 19.2539 151.074 18.871 151.102C18.4917 151.127 17.9706 151.142 17.3148 151.142C16.7618 151.142 16.3222 151.127 15.9961 151.102C15.6664 151.074 15.4076 151.027 15.2162 150.952C15.0247 150.881 14.89 150.788 14.812 150.674C14.7341 150.563 14.6667 150.428 14.6135 150.267L12.327 144.536C12.0505 143.887 11.7811 143.312 11.5188 142.812C11.2564 142.309 10.9622 141.892 10.6432 141.553C10.3206 141.217 9.95189 140.96 9.53004 140.789C9.10819 140.618 8.62252 140.532 8.07305 140.532H6.45654V150.31C6.45654 150.442 6.41401 150.56 6.32893 150.667C6.24385 150.774 6.10205 150.86 5.90708 150.924C5.70856 150.992 5.44623 151.042 5.12009 151.084C4.79041 151.124 4.37211 151.145 3.85808 151.145C3.34406 151.145 2.94348 151.127 2.60671 151.084C2.27348 151.045 2.00761 150.992 1.80909 150.924C1.61057 150.86 1.47231 150.774 1.39432 150.667C1.31633 150.56 1.27734 150.442 1.27734 150.31V127.007C1.27734 126.425 1.42623 126.004 1.72047 125.747C2.0147 125.49 2.37983 125.362 2.81231 125.362H9.41305C10.0831 125.362 10.6361 125.376 11.0686 125.401C11.501 125.43 11.8945 125.462 12.249 125.501C13.2735 125.647 14.1952 125.897 15.0177 126.254C15.8365 126.611 16.5349 127.078 17.1056 127.653C17.6764 128.227 18.1124 128.909 18.4173 129.694C18.7186 130.483 18.871 131.382 18.871 132.403C18.871 133.263 18.7612 134.044 18.5449 134.754C18.3287 135.465 18.0096 136.093 17.5878 136.649C17.1659 137.206 16.6483 137.688 16.0315 138.098C15.4147 138.509 14.7128 138.841 13.9223 139.09C14.3016 139.276 14.6596 139.501 14.9964 139.765C15.3296 140.029 15.6451 140.35 15.9429 140.728C16.2371 141.107 16.5172 141.535 16.7795 142.017C17.0418 142.498 17.2971 143.044 17.5488 143.651L19.697 148.708C19.8955 149.211 20.0232 149.579 20.0905 149.807C20.1543 150.039 20.1898 150.221 20.1898 150.353L20.1933 150.349ZM13.5146 132.934C13.5146 132.089 13.3232 131.375 12.9438 130.793C12.561 130.212 11.9406 129.801 11.0721 129.562C10.8098 129.498 10.512 129.444 10.1752 129.405C9.84199 129.366 9.37761 129.344 8.78559 129.344H6.46009V136.624H9.10109C9.8349 136.624 10.4801 136.535 11.0331 136.357C11.5861 136.178 12.0434 135.929 12.4121 135.604C12.7808 135.279 13.0573 134.894 13.2381 134.444C13.4224 133.994 13.5146 133.491 13.5146 132.938V132.934Z" fill="white" style="fill:white;fill-opacity:1;"/>
<path d="M39.1057 148.979C39.1057 149.364 39.088 149.682 39.0561 149.943C39.0242 150.199 38.9746 150.41 38.9072 150.567C38.8399 150.724 38.7583 150.842 38.6626 150.913C38.5634 150.985 38.457 151.024 38.3365 151.024H25.532C25.0996 151.024 24.7344 150.895 24.4402 150.638C24.146 150.381 23.9971 149.96 23.9971 149.379V127.007C23.9971 126.425 24.146 126.004 24.4402 125.747C24.7344 125.49 25.0996 125.362 25.532 125.362H38.2585C38.3755 125.362 38.4818 125.394 38.574 125.462C38.6662 125.53 38.7442 125.644 38.8115 125.808C38.8789 125.972 38.925 126.186 38.9604 126.443C38.9923 126.7 39.01 127.028 39.01 127.424C39.01 127.796 38.9923 128.11 38.9604 128.367C38.9285 128.624 38.8789 128.834 38.8115 128.991C38.7442 129.148 38.6662 129.266 38.574 129.337C38.4818 129.409 38.3755 129.448 38.2585 129.448H29.155V135.714H36.8582C36.9752 135.714 37.0851 135.75 37.1844 135.825C37.2836 135.896 37.3652 136.011 37.4325 136.16C37.4963 136.314 37.546 136.517 37.5814 136.774C37.6133 137.031 37.631 137.345 37.631 137.716C37.631 138.088 37.6133 138.416 37.5814 138.669C37.5495 138.919 37.4999 139.122 37.4325 139.276C37.3652 139.429 37.2836 139.536 37.1844 139.604C37.0851 139.672 36.9788 139.704 36.8582 139.704H29.155V146.945H38.3365C38.4535 146.945 38.5634 146.981 38.6626 147.055C38.7619 147.127 38.8434 147.245 38.9072 147.402C38.971 147.559 39.0207 147.769 39.0561 148.026C39.088 148.283 39.1057 148.604 39.1057 148.99V148.979Z" fill="white" style="fill:white;fill-opacity:1;"/>
<path d="M57.681 148.84C57.681 149.236 57.6633 149.572 57.6314 149.843C57.5995 150.114 57.5498 150.339 57.4825 150.517C57.4151 150.696 57.3336 150.824 57.2379 150.903C57.1386 150.981 57.0252 151.02 56.894 151.02H45.2098C44.7773 151.02 44.4122 150.892 44.1179 150.635C43.8237 150.378 43.6748 149.957 43.6748 149.375V126.072C43.6748 125.94 43.7173 125.822 43.8024 125.715C43.8875 125.608 44.0293 125.523 44.2278 125.458C44.4263 125.394 44.6922 125.341 45.0254 125.301C45.3622 125.262 45.777 125.241 46.2768 125.241C46.7767 125.241 47.2092 125.262 47.5388 125.301C47.8685 125.341 48.1308 125.394 48.3258 125.458C48.5243 125.526 48.6626 125.612 48.7477 125.715C48.8327 125.822 48.8753 125.94 48.8753 126.072V146.717H56.894C57.0252 146.717 57.1386 146.752 57.2379 146.827C57.3371 146.899 57.4187 147.02 57.4825 147.184C57.5463 147.348 57.5959 147.57 57.6314 147.837C57.6633 148.108 57.681 148.444 57.681 148.84Z" fill="white" style="fill:white;fill-opacity:1;"/>
<path d="M82.9611 137.895C82.9611 140.022 82.6987 141.927 82.1741 143.605C81.6494 145.286 80.866 146.709 79.8309 147.88C78.7957 149.05 77.5089 149.943 75.981 150.556C74.4496 151.17 72.6807 151.477 70.6707 151.477C68.6607 151.477 66.9555 151.217 65.4808 150.692C64.0061 150.167 62.7724 149.372 61.7869 148.301C60.8014 147.23 60.0641 145.867 59.5713 144.215C59.0786 142.563 58.834 140.607 58.834 138.345C58.834 136.268 59.0963 134.401 59.621 132.742C60.1456 131.082 60.9291 129.673 61.9642 128.506C63.0029 127.342 64.2862 126.45 65.8176 125.829C67.349 125.208 69.125 124.898 71.1457 124.898C73.1663 124.898 74.7793 125.155 76.2575 125.672C77.7358 126.19 78.9694 126.982 79.962 128.053C80.9546 129.123 81.7026 130.476 82.2095 132.11C82.7165 133.745 82.9682 135.672 82.9682 137.891L82.9611 137.895ZM77.5231 138.17C77.5231 136.821 77.4167 135.597 77.2076 134.49C76.9984 133.384 76.6404 132.442 76.1334 131.653C75.6265 130.868 74.953 130.258 74.1128 129.83C73.2727 129.402 72.2198 129.184 70.9613 129.184C69.7029 129.184 68.6252 129.427 67.7709 129.908C66.9165 130.39 66.2288 131.036 65.7041 131.842C65.1795 132.649 64.8073 133.591 64.591 134.669C64.3748 135.747 64.2649 136.889 64.2649 138.091C64.2649 139.494 64.3712 140.753 64.5804 141.87C64.7895 142.987 65.144 143.944 65.6439 144.736C66.1437 145.528 66.8137 146.135 67.6539 146.549C68.494 146.966 69.5504 147.173 70.8266 147.173C72.1028 147.173 73.1628 146.934 74.0171 146.46C74.8714 145.985 75.5592 145.335 76.0874 144.515C76.612 143.694 76.9842 142.741 77.2005 141.649C77.4167 140.557 77.5266 139.397 77.5266 138.17H77.5231Z" fill="white" style="fill:white;fill-opacity:1;"/>
<path d="M107.644 149.079C107.8 149.553 107.899 149.932 107.938 150.21C107.977 150.488 107.924 150.695 107.782 150.835C107.637 150.974 107.382 151.059 107.013 151.092C106.644 151.124 106.141 151.141 105.496 151.141C104.851 151.141 104.305 151.131 103.929 151.113C103.553 151.095 103.27 151.052 103.071 150.995C102.873 150.934 102.738 150.852 102.656 150.745C102.578 150.638 102.511 150.503 102.458 150.328L100.746 145.171H91.1707L89.5541 150.189C89.501 150.374 89.4336 150.528 89.3485 150.656C89.2634 150.781 89.1252 150.881 88.9338 150.952C88.7423 151.024 88.4729 151.074 88.1255 151.102C87.7781 151.127 87.3208 151.141 86.7572 151.141C86.1545 151.141 85.6795 151.124 85.3392 151.081C84.9988 151.042 84.7613 150.945 84.6302 150.792C84.499 150.638 84.4529 150.424 84.4919 150.146C84.5309 149.867 84.6302 149.5 84.7861 149.036L92.6453 126.268C92.7233 126.043 92.8155 125.861 92.9219 125.722C93.0282 125.583 93.1948 125.479 93.4252 125.405C93.6557 125.333 93.9747 125.287 94.3824 125.265C94.7901 125.244 95.3289 125.237 95.9989 125.237C96.7753 125.237 97.3921 125.248 97.8494 125.265C98.3102 125.287 98.6683 125.333 98.9235 125.405C99.1787 125.476 99.3631 125.587 99.4765 125.733C99.5864 125.879 99.6821 126.075 99.7637 126.329L107.644 149.075V149.079ZM95.9422 130.258H95.9245L92.3192 141.167H99.551L95.9457 130.258H95.9422Z" fill="white" style="fill:white;fill-opacity:1;"/>
<path d="M132.388 137.813C132.388 140.165 132.083 142.181 131.473 143.851C130.864 145.525 129.985 146.888 128.843 147.948C127.702 149.004 126.312 149.782 124.678 150.278C123.043 150.774 121.094 151.02 118.836 151.02H112.749C112.316 151.02 111.951 150.892 111.657 150.635C111.363 150.378 111.214 149.957 111.214 149.375V127.004C111.214 126.422 111.363 126.001 111.657 125.744C111.951 125.487 112.316 125.358 112.749 125.358H119.289C121.562 125.358 123.49 125.626 125.071 126.161C126.652 126.697 127.989 127.489 129.07 128.542C130.151 129.594 130.977 130.893 131.541 132.439C132.104 133.984 132.388 135.779 132.388 137.813ZM127.032 137.991C127.032 136.774 126.89 135.643 126.606 134.601C126.323 133.559 125.869 132.653 125.248 131.885C124.625 131.118 123.823 130.519 122.845 130.09C121.867 129.662 120.583 129.444 118.992 129.444H116.372V146.899H119.07C120.488 146.899 121.682 146.713 122.654 146.342C123.625 145.971 124.437 145.414 125.085 144.665C125.734 143.919 126.22 142.987 126.542 141.878C126.865 140.768 127.024 139.472 127.024 137.991H127.032Z" fill="white" style="fill:white;fill-opacity:1;"/>
<path d="M151.754 148.979C151.754 149.364 151.736 149.682 151.705 149.943C151.673 150.199 151.623 150.41 151.556 150.567C151.488 150.724 151.407 150.842 151.311 150.913C151.212 150.985 151.105 151.024 150.985 151.024H138.18C137.748 151.024 137.383 150.895 137.089 150.638C136.794 150.381 136.646 149.96 136.646 149.379V127.007C136.646 126.425 136.794 126.004 137.089 125.747C137.383 125.49 137.748 125.362 138.18 125.362H150.907C151.024 125.362 151.13 125.394 151.222 125.462C151.315 125.53 151.393 125.644 151.46 125.808C151.527 125.972 151.573 126.186 151.609 126.443C151.641 126.7 151.658 127.028 151.658 127.424C151.658 127.796 151.641 128.11 151.609 128.367C151.577 128.624 151.527 128.834 151.46 128.991C151.393 129.148 151.315 129.266 151.222 129.337C151.13 129.409 151.024 129.448 150.907 129.448H141.803V135.714H149.507C149.624 135.714 149.734 135.75 149.833 135.825C149.932 135.896 150.014 136.011 150.081 136.16C150.145 136.314 150.194 136.517 150.23 136.774C150.262 137.031 150.279 137.345 150.279 137.716C150.279 138.088 150.262 138.416 150.23 138.669C150.198 138.919 150.148 139.122 150.081 139.276C150.014 139.429 149.932 139.536 149.833 139.604C149.734 139.672 149.627 139.704 149.507 139.704H141.803V146.945H150.985C151.102 146.945 151.212 146.981 151.311 147.055C151.41 147.127 151.492 147.245 151.556 147.402C151.619 147.559 151.669 147.769 151.705 148.026C151.736 148.283 151.754 148.604 151.754 148.99V148.979Z" fill="white" style="fill:white;fill-opacity:1;"/>
<path d="M177.505 137.813C177.505 140.165 177.2 142.181 176.591 143.851C175.981 145.525 175.102 146.888 173.96 147.948C172.819 149.004 171.429 149.782 169.795 150.278C168.161 150.774 166.211 151.02 163.953 151.02H157.866C157.434 151.02 157.068 150.892 156.774 150.635C156.48 150.378 156.331 149.957 156.331 149.375V127.004C156.331 126.422 156.48 126.001 156.774 125.744C157.068 125.487 157.434 125.358 157.866 125.358H164.407C166.679 125.358 168.607 125.626 170.188 126.161C171.769 126.697 173.106 127.489 174.187 128.542C175.268 129.594 176.094 130.893 176.658 132.439C177.222 133.984 177.505 135.779 177.505 137.813ZM172.145 137.991C172.145 136.774 172.003 135.643 171.72 134.601C171.436 133.559 170.982 132.653 170.362 131.885C169.738 131.118 168.937 130.519 167.959 130.09C166.98 129.662 165.697 129.444 164.105 129.444H161.485V146.899H164.183C165.601 146.899 166.796 146.713 167.767 146.342C168.738 145.971 169.55 145.414 170.199 144.665C170.848 143.919 171.333 142.987 171.656 141.878C171.979 140.768 172.138 139.472 172.138 137.991H172.145Z" fill="white" style="fill:white;fill-opacity:1;"/>
<path d="M6.13063 166.801C6.1519 166.854 6.16254 166.9 6.15899 166.936C6.15899 166.972 6.14481 166.997 6.11999 167.015C6.09518 167.032 6.05973 167.043 6.0101 167.05C5.96047 167.054 5.90021 167.057 5.82222 167.057C5.74423 167.057 5.68397 167.057 5.64143 167.05C5.59534 167.043 5.55989 167.036 5.53507 167.025C5.51026 167.015 5.49253 167 5.47835 166.983C5.46417 166.965 5.45355 166.943 5.44291 166.918L4.76936 165.03H1.68524L1.04005 166.904C1.03296 166.929 1.02233 166.95 1.00815 166.968C0.993966 166.986 0.972691 167 0.947877 167.015C0.923062 167.029 0.887616 167.036 0.841532 167.043C0.795447 167.05 0.738724 167.054 0.671369 167.054C0.596925 167.054 0.533123 167.054 0.479948 167.043C0.430319 167.036 0.391319 167.022 0.37005 167.004C0.34878 166.986 0.3346 166.961 0.331055 166.929C0.331055 166.897 0.338145 166.854 0.359415 166.797L2.81962 160.067C2.83026 160.038 2.84799 160.013 2.86926 159.992C2.89053 159.97 2.91888 159.956 2.95433 159.945C2.98978 159.934 3.02878 159.927 3.07841 159.92C3.12804 159.917 3.18121 159.913 3.24502 159.913C3.30883 159.913 3.36556 159.913 3.41519 159.92C3.46482 159.927 3.50735 159.934 3.53925 159.945C3.5747 159.956 3.59952 159.97 3.62079 159.992C3.64206 160.013 3.65624 160.038 3.66688 160.067L6.12709 166.797L6.13063 166.801ZM3.21312 160.666H3.20602L1.88021 164.47H4.5673L3.20957 160.666H3.21312Z" fill="white" style="fill:white;fill-opacity:1;"/>
<path d="M14.4544 166.704C14.4544 166.768 14.4438 166.825 14.426 166.868C14.4048 166.911 14.3799 166.947 14.3516 166.975C14.3232 167.004 14.2878 167.022 14.2488 167.032C14.2098 167.043 14.1743 167.05 14.1424 167.05H14.0077C13.9333 167.05 13.8695 167.04 13.8092 167.022C13.7489 167.004 13.6922 166.972 13.6355 166.925C13.5788 166.879 13.5221 166.818 13.4689 166.743C13.4122 166.668 13.3519 166.568 13.281 166.447L10.8031 162.029C10.679 161.815 10.5549 161.594 10.4308 161.365C10.3068 161.137 10.1862 160.916 10.0764 160.702H10.0693C10.0728 160.969 10.0764 161.241 10.0764 161.519V166.918C10.0764 166.94 10.0693 166.961 10.0586 166.979C10.048 166.997 10.0303 167.011 10.0055 167.022C9.98064 167.032 9.94519 167.043 9.9062 167.05C9.86721 167.057 9.81048 167.061 9.74667 167.061C9.68641 167.061 9.63323 167.061 9.59069 167.05C9.54815 167.043 9.5127 167.032 9.48789 167.022C9.46307 167.011 9.44535 166.997 9.43471 166.979C9.42408 166.961 9.41699 166.94 9.41699 166.918V160.298C9.41699 160.166 9.45244 160.077 9.5198 160.027C9.58715 159.977 9.6545 159.952 9.72185 159.952H9.99482C10.0834 159.952 10.1543 159.959 10.2111 159.974C10.2678 159.988 10.321 160.013 10.367 160.049C10.4131 160.084 10.4592 160.131 10.5053 160.195C10.5514 160.259 10.601 160.341 10.6542 160.438L12.5507 163.821C12.6713 164.031 12.7847 164.235 12.8911 164.431C12.9974 164.627 13.1002 164.816 13.203 165.005C13.3058 165.195 13.4051 165.377 13.5043 165.559C13.6036 165.741 13.7029 165.926 13.7986 166.112H13.8021C13.8021 165.805 13.7986 165.487 13.7986 165.155V160.081C13.7986 160.059 13.8021 160.038 13.8163 160.02C13.8269 160.002 13.8447 159.988 13.8695 159.974C13.8943 159.959 13.9297 159.952 13.9687 159.945C14.0113 159.942 14.0645 159.938 14.1283 159.938C14.185 159.938 14.2382 159.938 14.2807 159.945C14.3232 159.952 14.3587 159.959 14.3835 159.974C14.4083 159.988 14.426 160.002 14.4402 160.02C14.4544 160.038 14.4579 160.059 14.4579 160.081V166.701L14.4544 166.704Z" fill="white" style="fill:white;fill-opacity:1;"/>
<path d="M23.1109 166.062C23.1109 166.101 23.1109 166.137 23.1074 166.172C23.1038 166.204 23.0967 166.233 23.0896 166.261C23.0825 166.286 23.0719 166.311 23.0613 166.333C23.0471 166.354 23.0258 166.383 22.9904 166.418C22.9549 166.454 22.8805 166.508 22.7635 166.586C22.6465 166.665 22.5012 166.743 22.3275 166.818C22.1502 166.893 21.9517 166.961 21.7213 167.014C21.4908 167.068 21.2427 167.096 20.9662 167.096C20.5231 167.096 20.126 167.018 19.7645 166.865C19.4064 166.711 19.1015 166.483 18.8498 166.183C18.5981 165.883 18.4032 165.516 18.2685 165.08C18.1338 164.645 18.0664 164.145 18.0664 163.581C18.0664 163.018 18.1373 162.489 18.2827 162.033C18.428 161.576 18.6301 161.187 18.8924 160.869C19.1547 160.552 19.4702 160.305 19.8389 160.138C20.2076 159.966 20.6117 159.884 21.0584 159.884C21.2675 159.884 21.4731 159.906 21.6681 159.945C21.8631 159.984 22.0474 160.034 22.214 160.098C22.3806 160.163 22.5295 160.23 22.6607 160.313C22.7919 160.395 22.884 160.459 22.9337 160.505C22.9833 160.555 23.0116 160.591 23.0258 160.612C23.04 160.634 23.0471 160.659 23.0542 160.687C23.0613 160.716 23.0684 160.744 23.0719 160.78C23.0719 160.816 23.0755 160.855 23.0755 160.898C23.0755 160.948 23.0755 160.994 23.0684 161.033C23.0613 161.073 23.0542 161.105 23.04 161.133C23.0258 161.162 23.0116 161.183 22.9939 161.198C22.9762 161.212 22.9549 161.219 22.9301 161.219C22.8805 161.219 22.8096 161.183 22.7139 161.108C22.6182 161.033 22.5012 160.951 22.3487 160.859C22.1998 160.769 22.0155 160.684 21.7957 160.609C21.5795 160.534 21.3207 160.498 21.0194 160.498C20.6897 160.498 20.3884 160.566 20.1119 160.698C19.8353 160.83 19.6014 161.026 19.4029 161.287C19.2043 161.544 19.0519 161.865 18.942 162.243C18.8321 162.621 18.7754 163.057 18.7754 163.549C18.7754 164.042 18.825 164.438 18.9278 164.802C19.0306 165.166 19.176 165.473 19.3674 165.723C19.5588 165.972 19.7964 166.161 20.0799 166.294C20.3635 166.426 20.6826 166.49 21.0406 166.49C21.3349 166.49 21.5901 166.454 21.8099 166.379C22.0297 166.304 22.2176 166.222 22.37 166.129C22.526 166.037 22.6536 165.955 22.7529 165.88C22.8521 165.805 22.9301 165.769 22.9833 165.769C23.0046 165.769 23.0223 165.773 23.0365 165.783C23.0506 165.794 23.0613 165.808 23.0719 165.833C23.0825 165.858 23.0896 165.89 23.0932 165.93C23.0967 165.969 23.1003 166.019 23.1003 166.076L23.1109 166.062Z" fill="white" style="fill:white;fill-opacity:1;"/>
<path d="M27.1271 166.915C27.1271 166.936 27.12 166.957 27.1094 166.975C27.0988 166.993 27.0811 167.007 27.0562 167.018C27.0314 167.029 26.996 167.039 26.957 167.047C26.918 167.054 26.8613 167.057 26.7975 167.057C26.7372 167.057 26.684 167.057 26.6415 167.047C26.5989 167.039 26.5635 167.029 26.5387 167.018C26.5139 167.007 26.4961 166.993 26.4855 166.975C26.4749 166.957 26.4678 166.936 26.4678 166.915V160.059C26.4678 160.038 26.4749 160.016 26.4855 159.999C26.4997 159.981 26.5174 159.966 26.5458 159.956C26.5741 159.945 26.606 159.934 26.6486 159.927C26.6911 159.92 26.7407 159.917 26.7975 159.917C26.8613 159.917 26.9144 159.917 26.957 159.927C26.9995 159.938 27.0314 159.945 27.0562 159.956C27.0811 159.966 27.0988 159.981 27.1094 159.999C27.12 160.016 27.1271 160.038 27.1271 160.059V166.915Z" fill="white" style="fill:white;fill-opacity:1;"/>
<path d="M34.9509 166.729C34.9509 166.775 34.9474 166.818 34.9403 166.854C34.9332 166.89 34.9226 166.922 34.9048 166.947C34.8871 166.972 34.8694 166.993 34.8481 167.004C34.8268 167.018 34.802 167.022 34.7772 167.022H31.4875C31.4237 167.022 31.3563 166.997 31.2854 166.947C31.2145 166.897 31.1826 166.807 31.1826 166.675V160.288C31.1826 160.156 31.2181 160.066 31.2854 160.016C31.3528 159.966 31.4201 159.941 31.4875 159.941H34.7311C34.756 159.941 34.7808 159.949 34.802 159.959C34.8233 159.974 34.841 159.991 34.8552 160.016C34.8694 160.041 34.88 160.073 34.8871 160.113C34.8942 160.152 34.8978 160.195 34.8978 160.248C34.8978 160.295 34.8978 160.338 34.8871 160.373C34.88 160.409 34.8694 160.441 34.8552 160.462C34.841 160.487 34.8233 160.505 34.802 160.516C34.7808 160.53 34.756 160.534 34.7311 160.534H31.8455V163.021H34.3341C34.3625 163.021 34.3873 163.028 34.4085 163.039C34.4298 163.053 34.4475 163.071 34.4617 163.093C34.4759 163.114 34.4865 163.146 34.4936 163.185C34.5007 163.225 34.5043 163.267 34.5043 163.321C34.5043 163.367 34.5007 163.41 34.4936 163.442C34.4865 163.478 34.4759 163.506 34.4617 163.528C34.4475 163.549 34.4298 163.567 34.4085 163.578C34.3873 163.589 34.3625 163.596 34.3341 163.596H31.8455V166.418H34.7772C34.802 166.418 34.8268 166.426 34.8481 166.436C34.8694 166.447 34.8907 166.468 34.9048 166.49C34.919 166.511 34.9332 166.543 34.9403 166.583C34.9474 166.622 34.9509 166.665 34.9509 166.718V166.729Z" fill="white" style="fill:white;fill-opacity:1;"/>
<path d="M43.6683 166.704C43.6683 166.768 43.6576 166.825 43.6399 166.868C43.6186 166.911 43.5938 166.947 43.5655 166.975C43.5371 167.004 43.5017 167.022 43.4627 167.032C43.4237 167.043 43.3882 167.05 43.3563 167.05H43.2216C43.1471 167.05 43.0833 167.04 43.0231 167.022C42.9628 167.004 42.9061 166.972 42.8494 166.925C42.7927 166.879 42.7359 166.818 42.6828 166.743C42.626 166.668 42.5658 166.568 42.4949 166.447L40.0169 162.029C39.8929 161.815 39.7688 161.594 39.6447 161.365C39.5206 161.137 39.4001 160.916 39.2902 160.702H39.2831C39.2867 160.969 39.2902 161.241 39.2902 161.519V166.918C39.2902 166.94 39.2831 166.961 39.2725 166.979C39.2619 166.997 39.2441 167.011 39.2193 167.022C39.1945 167.032 39.1591 167.043 39.1201 167.05C39.0811 167.057 39.0243 167.061 38.9605 167.061C38.9003 167.061 38.8471 167.061 38.8046 167.05C38.762 167.043 38.7266 167.032 38.7018 167.022C38.6769 167.011 38.6592 166.997 38.6486 166.979C38.6379 166.961 38.6309 166.94 38.6309 166.918V160.298C38.6309 160.166 38.6663 160.077 38.7337 160.027C38.801 159.977 38.8684 159.952 38.9357 159.952H39.2087C39.2973 159.952 39.3682 159.959 39.4249 159.974C39.4816 159.988 39.5348 160.013 39.5809 160.049C39.627 160.084 39.6731 160.131 39.7192 160.195C39.7652 160.259 39.8149 160.341 39.8681 160.438L41.7646 163.821C41.8851 164.031 41.9986 164.235 42.1049 164.431C42.2113 164.627 42.3141 164.816 42.4169 165.005C42.5197 165.195 42.619 165.377 42.7182 165.559C42.8175 165.741 42.9167 165.926 43.0124 166.112H43.016C43.016 165.805 43.0124 165.487 43.0124 165.155V160.081C43.0124 160.059 43.016 160.038 43.0302 160.02C43.0408 160.002 43.0585 159.988 43.0833 159.974C43.1082 159.959 43.1436 159.952 43.1826 159.945C43.2251 159.942 43.2783 159.938 43.3421 159.938C43.3988 159.938 43.452 159.938 43.4946 159.945C43.5371 159.952 43.5725 159.959 43.5974 159.974C43.6222 159.988 43.6399 160.002 43.6541 160.02C43.6683 160.038 43.6718 160.059 43.6718 160.081V166.701L43.6683 166.704Z" fill="white" style="fill:white;fill-opacity:1;"/>
<path d="M51.9812 160.256C51.9812 160.302 51.9777 160.345 51.9706 160.381C51.9635 160.416 51.9529 160.448 51.9387 160.47C51.9245 160.495 51.9068 160.513 51.8855 160.523C51.8642 160.538 51.8394 160.541 51.8146 160.541H49.7195V166.911C49.7195 166.933 49.7124 166.954 49.7018 166.972C49.6912 166.99 49.6734 167.004 49.6486 167.015C49.6238 167.025 49.5884 167.036 49.5458 167.043C49.5033 167.05 49.4501 167.054 49.3898 167.054C49.3296 167.054 49.2764 167.054 49.2339 167.043C49.1913 167.036 49.1559 167.025 49.1311 167.015C49.1062 167.004 49.0885 166.99 49.0779 166.972C49.0673 166.954 49.0602 166.933 49.0602 166.911V160.541H46.9651C46.9367 160.541 46.9119 160.534 46.8906 160.523C46.8694 160.509 46.8552 160.491 46.8375 160.47C46.8197 160.448 46.8126 160.416 46.8056 160.381C46.7985 160.345 46.7949 160.302 46.7949 160.256C46.7949 160.206 46.7949 160.159 46.8056 160.12C46.8162 160.081 46.8233 160.049 46.8375 160.024C46.8516 159.999 46.8694 159.981 46.8906 159.967C46.9119 159.952 46.9332 159.949 46.9651 159.949H51.8217C51.8465 159.949 51.8713 159.956 51.8926 159.967C51.9139 159.981 51.9316 159.999 51.9458 160.024C51.9599 160.049 51.9706 160.081 51.9777 160.12C51.9848 160.159 51.9883 160.202 51.9883 160.256H51.9812Z" fill="white" style="fill:white;fill-opacity:1;"/>
<path d="M65.9843 166.904C65.9736 166.933 65.9559 166.958 65.9311 166.979C65.9063 167.001 65.8779 167.015 65.8389 167.026C65.7999 167.036 65.7574 167.043 65.7077 167.051C65.6581 167.054 65.6014 167.058 65.5376 167.058C65.4738 167.058 65.4135 167.058 65.3639 167.051C65.3143 167.043 65.2682 167.036 65.2292 167.026C65.1902 167.015 65.1618 167.001 65.137 166.979C65.1122 166.958 65.0945 166.936 65.0838 166.904L63.4212 161.091H63.4106L61.8898 166.904C61.8827 166.933 61.8685 166.958 61.8473 166.979C61.826 167.001 61.8012 167.015 61.7657 167.026C61.7303 167.036 61.6913 167.043 61.6417 167.051C61.592 167.054 61.5353 167.058 61.4644 167.058C61.3935 167.058 61.3297 167.058 61.2765 167.051C61.2234 167.043 61.1773 167.036 61.1383 167.026C61.0993 167.015 61.0674 167.001 61.0426 166.979C61.0177 166.958 61 166.936 60.9894 166.904L58.9971 160.174C58.9794 160.117 58.9688 160.07 58.9688 160.038C58.9688 160.006 58.9794 159.981 59.0042 159.963C59.029 159.945 59.0645 159.935 59.1141 159.928C59.1637 159.924 59.2275 159.92 59.3055 159.92C59.3835 159.92 59.4473 159.92 59.4969 159.928C59.543 159.935 59.5785 159.942 59.6068 159.953C59.6352 159.963 59.6494 159.978 59.66 159.995C59.6706 160.013 59.6777 160.035 59.6848 160.06L61.4502 166.265H61.4573L63.0809 160.06C63.088 160.035 63.0986 160.013 63.1093 159.995C63.1199 159.978 63.1376 159.963 63.166 159.953C63.1944 159.942 63.2298 159.935 63.2794 159.928C63.3291 159.924 63.3929 159.92 63.4709 159.92C63.5311 159.92 63.5808 159.92 63.6198 159.928C63.6587 159.935 63.6871 159.942 63.7119 159.953C63.7367 159.963 63.7545 159.978 63.7651 159.995C63.7793 160.013 63.7864 160.035 63.7935 160.06L65.5659 166.265H65.5766L67.2994 160.06C67.3065 160.035 67.3136 160.013 67.3243 159.995C67.3349 159.978 67.3491 159.963 67.3774 159.953C67.4058 159.942 67.4377 159.935 67.4802 159.928C67.5228 159.924 67.583 159.92 67.661 159.92C67.739 159.92 67.8028 159.92 67.8525 159.931C67.9021 159.942 67.934 159.953 67.9588 159.97C67.9836 159.988 67.9943 160.013 67.9978 160.045C67.9978 160.077 67.9942 160.12 67.9801 160.177L65.9878 166.908L65.9843 166.904Z" fill="white" style="fill:white;fill-opacity:1;"/>
<path d="M72.0812 166.915C72.0812 166.936 72.0741 166.957 72.0635 166.975C72.0529 166.993 72.0352 167.007 72.0103 167.018C71.9855 167.029 71.9501 167.039 71.9111 167.047C71.8721 167.054 71.8154 167.057 71.7516 167.057C71.6913 167.057 71.6381 167.057 71.5956 167.047C71.553 167.039 71.5176 167.029 71.4928 167.018C71.468 167.007 71.4502 166.993 71.4396 166.975C71.429 166.957 71.4219 166.936 71.4219 166.915V160.059C71.4219 160.038 71.429 160.016 71.4396 159.999C71.4538 159.981 71.4715 159.966 71.4999 159.956C71.5282 159.945 71.5601 159.934 71.6027 159.927C71.6452 159.92 71.6948 159.917 71.7516 159.917C71.8154 159.917 71.8685 159.917 71.9111 159.927C71.9536 159.938 71.9855 159.945 72.0103 159.956C72.0352 159.966 72.0529 159.981 72.0635 159.999C72.0741 160.016 72.0812 160.038 72.0812 160.059V166.915Z" fill="white" style="fill:white;fill-opacity:1;"/>
<path d="M79.6923 165.113C79.6923 165.427 79.6356 165.709 79.5257 165.955C79.4123 166.201 79.2563 166.412 79.0542 166.586C78.8522 166.761 78.6111 166.893 78.3311 166.983C78.051 167.075 77.7497 167.118 77.42 167.118C77.1967 167.118 76.984 167.097 76.7855 167.054C76.5869 167.011 76.4097 166.961 76.2537 166.904C76.0977 166.847 75.9666 166.786 75.8602 166.726C75.7539 166.665 75.6794 166.615 75.6404 166.572C75.6014 166.529 75.5731 166.479 75.5518 166.426C75.5341 166.369 75.5234 166.301 75.5234 166.215C75.5234 166.155 75.527 166.101 75.5341 166.062C75.5412 166.023 75.5518 165.99 75.5624 165.962C75.5766 165.937 75.5908 165.919 75.6121 165.908C75.6333 165.898 75.6546 165.894 75.6759 165.894C75.7255 165.894 75.7964 165.926 75.8886 165.99C75.9807 166.055 76.1013 166.122 76.2466 166.197C76.392 166.272 76.5692 166.34 76.7748 166.404C76.9804 166.469 77.2179 166.501 77.4874 166.501C77.7071 166.501 77.9092 166.472 78.0971 166.412C78.2814 166.351 78.441 166.265 78.5757 166.151C78.7104 166.037 78.8132 165.898 78.8876 165.733C78.9621 165.569 78.9975 165.38 78.9975 165.17C78.9975 164.959 78.9514 164.763 78.8557 164.606C78.76 164.449 78.6359 164.31 78.4835 164.192C78.3311 164.074 78.1538 163.967 77.9588 163.871C77.7639 163.774 77.5618 163.678 77.3597 163.582C77.1577 163.485 76.9556 163.382 76.7606 163.268C76.5657 163.153 76.392 163.021 76.236 162.871C76.0835 162.722 75.9595 162.543 75.8638 162.34C75.768 162.136 75.722 161.894 75.722 161.612C75.722 161.33 75.7716 161.094 75.8673 160.877C75.9666 160.659 76.1013 160.477 76.2821 160.323C76.4593 160.174 76.672 160.056 76.9202 159.977C77.1683 159.899 77.4413 159.856 77.739 159.856C77.8879 159.856 78.0368 159.87 78.1893 159.899C78.3417 159.927 78.4835 159.967 78.6218 160.009C78.7565 160.056 78.877 160.106 78.9869 160.163C79.0932 160.22 79.1641 160.266 79.1996 160.298C79.235 160.334 79.2563 160.359 79.2634 160.373C79.2705 160.388 79.2811 160.409 79.2882 160.438C79.2953 160.466 79.3024 160.495 79.3059 160.527C79.3059 160.563 79.3095 160.605 79.3095 160.655C79.3095 160.702 79.3095 160.745 79.3024 160.784C79.2953 160.823 79.2882 160.855 79.2776 160.884C79.2669 160.912 79.2527 160.93 79.235 160.948C79.2173 160.962 79.1996 160.969 79.1783 160.969C79.1393 160.969 79.0791 160.944 78.9975 160.891C78.916 160.837 78.8132 160.78 78.6891 160.712C78.565 160.648 78.4197 160.588 78.2495 160.534C78.0794 160.48 77.8844 160.455 77.6682 160.455C77.4519 160.455 77.2676 160.484 77.108 160.545C76.9485 160.602 76.8174 160.684 76.711 160.784C76.6047 160.884 76.5267 161.001 76.4735 161.137C76.4203 161.273 76.3955 161.415 76.3955 161.565C76.3955 161.783 76.4416 161.972 76.5373 162.129C76.633 162.286 76.7571 162.425 76.9131 162.543C77.0691 162.664 77.2463 162.772 77.4413 162.868C77.6362 162.964 77.8383 163.061 78.0439 163.157C78.2495 163.253 78.4481 163.357 78.6466 163.467C78.8451 163.578 79.0188 163.71 79.1748 163.86C79.3307 164.01 79.4548 164.188 79.5505 164.392C79.6462 164.595 79.6923 164.834 79.6923 165.109V165.113Z" fill="white" style="fill:white;fill-opacity:1;"/>
<path d="M88.3385 163.385C88.3385 163.981 88.2641 164.502 88.1152 164.959C87.9663 165.412 87.7465 165.794 87.4593 166.097C87.1687 166.404 86.8106 166.636 86.3852 166.793C85.9598 166.95 85.4529 167.029 84.8609 167.029H83.4748C83.411 167.029 83.3436 167.004 83.2727 166.954C83.2018 166.904 83.1699 166.815 83.1699 166.683V160.295C83.1699 160.163 83.2054 160.074 83.2727 160.024C83.3401 159.974 83.4074 159.949 83.4748 159.949H84.953C85.5521 159.949 86.0555 160.031 86.4668 160.195C86.878 160.359 87.2218 160.591 87.4983 160.891C87.7749 161.191 87.984 161.551 88.1258 161.972C88.2676 162.393 88.3385 162.861 88.3385 163.378V163.385ZM87.626 163.417C87.626 163.007 87.5728 162.625 87.47 162.272C87.3672 161.919 87.2076 161.615 86.9914 161.362C86.7752 161.109 86.5022 160.909 86.1725 160.762C85.8428 160.62 85.4245 160.545 84.9141 160.545H83.8328V166.429H84.9176C85.3962 166.429 85.8003 166.369 86.13 166.251C86.4597 166.133 86.7362 165.951 86.9595 165.701C87.1793 165.455 87.3459 165.141 87.4558 164.763C87.5657 164.385 87.6224 163.935 87.6224 163.414L87.626 163.417Z" fill="white" style="fill:white;fill-opacity:1;"/>
<path d="M97.58 163.407C97.58 163.97 97.5162 164.484 97.3886 164.941C97.2609 165.398 97.066 165.79 96.8107 166.112C96.5519 166.433 96.2293 166.683 95.8394 166.857C95.4495 167.032 94.9922 167.122 94.471 167.122C93.9499 167.122 93.5033 167.039 93.1275 166.872C92.7517 166.708 92.4469 166.468 92.2058 166.162C91.9647 165.855 91.7875 165.476 91.6741 165.034C91.5606 164.588 91.5039 164.088 91.5039 163.531C91.5039 162.975 91.5677 162.475 91.6953 162.022C91.8229 161.569 92.0144 161.183 92.2732 160.866C92.5319 160.548 92.8545 160.298 93.2445 160.123C93.6344 159.949 94.0917 159.859 94.6164 159.859C95.141 159.859 95.57 159.941 95.9422 160.106C96.3144 160.27 96.6228 160.505 96.8675 160.812C97.1121 161.119 97.2928 161.49 97.4098 161.929C97.5268 162.368 97.5871 162.861 97.5871 163.41L97.58 163.407ZM96.871 163.467C96.871 163.05 96.832 162.654 96.754 162.29C96.676 161.926 96.5484 161.604 96.3676 161.333C96.1868 161.062 95.9493 160.848 95.6551 160.694C95.3608 160.541 94.9922 160.462 94.5526 160.462C94.113 160.462 93.7514 160.545 93.4536 160.705C93.1559 160.869 92.9113 161.087 92.7269 161.358C92.5426 161.629 92.4079 161.951 92.3263 162.315C92.2448 162.679 92.2058 163.064 92.2058 163.467C92.2058 163.899 92.2413 164.299 92.3157 164.666C92.3901 165.037 92.5142 165.359 92.6915 165.63C92.8687 165.905 93.1062 166.119 93.404 166.272C93.7018 166.426 94.0705 166.504 94.5171 166.504C94.9638 166.504 95.3289 166.422 95.6303 166.254C95.9316 166.09 96.1726 165.865 96.357 165.587C96.5413 165.309 96.6725 164.984 96.754 164.62C96.8355 164.256 96.8745 163.867 96.8745 163.464L96.871 163.467Z" fill="white" style="fill:white;fill-opacity:1;"/>
<path d="M108.549 166.915C108.549 166.936 108.542 166.958 108.531 166.975C108.521 166.993 108.503 167.007 108.474 167.018C108.446 167.029 108.414 167.04 108.372 167.047C108.329 167.054 108.276 167.057 108.212 167.057C108.155 167.057 108.102 167.057 108.06 167.047C108.017 167.04 107.982 167.029 107.957 167.018C107.932 167.007 107.914 166.993 107.904 166.975C107.893 166.958 107.886 166.936 107.886 166.915V160.534H107.875L105.11 166.954C105.11 166.954 105.093 166.982 105.078 166.997C105.064 167.011 105.043 167.022 105.018 167.029C104.993 167.04 104.961 167.047 104.93 167.05C104.894 167.054 104.855 167.057 104.809 167.057C104.759 167.057 104.713 167.057 104.678 167.05C104.642 167.043 104.61 167.036 104.589 167.029C104.568 167.022 104.547 167.007 104.532 166.997C104.518 166.982 104.508 166.972 104.504 166.954L101.874 160.534H101.867V166.915C101.867 166.936 101.86 166.958 101.849 166.975C101.838 166.993 101.821 167.007 101.792 167.018C101.764 167.029 101.732 167.04 101.689 167.047C101.647 167.054 101.594 167.057 101.523 167.057C101.463 167.057 101.409 167.057 101.367 167.047C101.324 167.04 101.292 167.029 101.268 167.018C101.243 167.007 101.225 166.993 101.214 166.975C101.204 166.958 101.2 166.936 101.2 166.915V160.295C101.2 160.163 101.236 160.074 101.303 160.024C101.37 159.974 101.438 159.949 101.505 159.949H101.863C101.952 159.949 102.033 159.959 102.101 159.977C102.168 159.999 102.232 160.027 102.281 160.066C102.335 160.106 102.377 160.152 102.416 160.206C102.452 160.259 102.483 160.323 102.515 160.391L104.834 166.012H104.862L107.28 160.413C107.315 160.323 107.354 160.252 107.397 160.191C107.439 160.131 107.482 160.084 107.528 160.045C107.574 160.009 107.624 159.984 107.673 159.97C107.723 159.956 107.783 159.949 107.843 159.949H108.241C108.272 159.949 108.308 159.956 108.343 159.967C108.379 159.977 108.411 159.995 108.443 160.024C108.471 160.052 108.496 160.088 108.517 160.131C108.538 160.174 108.545 160.231 108.545 160.295V166.915H108.549Z" fill="white" style="fill:white;fill-opacity:1;"/>
<path d="M121.519 166.904C121.519 166.929 121.516 166.95 121.505 166.968C121.495 166.986 121.48 167 121.452 167.015C121.427 167.029 121.392 167.036 121.346 167.043C121.3 167.05 121.243 167.054 121.176 167.054C121.115 167.054 121.062 167.054 121.02 167.047C120.977 167.04 120.942 167.029 120.913 167.015C120.885 166.997 120.86 166.975 120.842 166.95C120.825 166.922 120.807 166.886 120.793 166.843L120.137 165.127C120.062 164.934 119.981 164.752 119.892 164.581C119.804 164.41 119.701 164.26 119.577 164.135C119.453 164.01 119.304 163.91 119.13 163.839C118.956 163.764 118.747 163.728 118.506 163.728H117.779V166.915C117.779 166.936 117.772 166.958 117.762 166.975C117.751 166.993 117.733 167.007 117.709 167.018C117.684 167.029 117.648 167.04 117.609 167.047C117.57 167.054 117.514 167.057 117.45 167.057C117.39 167.057 117.336 167.057 117.294 167.047C117.251 167.04 117.216 167.029 117.191 167.018C117.166 167.007 117.148 166.993 117.138 166.975C117.127 166.958 117.12 166.936 117.12 166.915V160.295C117.12 160.163 117.156 160.074 117.223 160.024C117.29 159.974 117.358 159.949 117.425 159.949H118.744C118.917 159.949 119.063 159.952 119.176 159.963C119.29 159.974 119.396 159.984 119.488 159.999C119.758 160.045 119.992 160.124 120.19 160.227C120.389 160.334 120.555 160.463 120.683 160.62C120.814 160.773 120.91 160.948 120.974 161.144C121.037 161.34 121.069 161.551 121.069 161.776C121.069 162.001 121.037 162.218 120.97 162.4C120.906 162.586 120.814 162.747 120.693 162.886C120.573 163.025 120.431 163.146 120.265 163.25C120.098 163.353 119.914 163.439 119.715 163.507C119.836 163.56 119.942 163.628 120.038 163.71C120.133 163.789 120.222 163.888 120.303 163.999C120.385 164.113 120.463 164.242 120.534 164.392C120.605 164.542 120.679 164.706 120.75 164.888L121.406 166.54C121.452 166.668 121.484 166.754 121.495 166.804C121.509 166.85 121.512 166.886 121.512 166.908L121.519 166.904ZM120.353 161.847C120.353 161.544 120.286 161.287 120.151 161.08C120.016 160.869 119.793 160.72 119.478 160.63C119.371 160.602 119.258 160.58 119.137 160.566C119.013 160.552 118.854 160.548 118.655 160.548H117.787V163.146H118.797C119.07 163.146 119.3 163.114 119.499 163.046C119.697 162.978 119.857 162.886 119.984 162.772C120.112 162.654 120.208 162.518 120.268 162.361C120.328 162.204 120.357 162.036 120.357 161.854L120.353 161.847Z" fill="white" style="fill:white;fill-opacity:1;"/>
<path d="M128.811 166.729C128.811 166.775 128.808 166.818 128.801 166.854C128.794 166.89 128.783 166.922 128.765 166.947C128.747 166.972 128.73 166.993 128.708 167.004C128.687 167.018 128.662 167.022 128.638 167.022H125.348C125.284 167.022 125.217 166.997 125.146 166.947C125.075 166.897 125.043 166.807 125.043 166.675V160.288C125.043 160.156 125.078 160.066 125.146 160.016C125.213 159.966 125.28 159.941 125.348 159.941H128.591C128.616 159.941 128.641 159.949 128.662 159.959C128.684 159.974 128.701 159.991 128.716 160.016C128.73 160.041 128.74 160.073 128.747 160.113C128.755 160.152 128.758 160.195 128.758 160.248C128.758 160.295 128.758 160.338 128.747 160.373C128.74 160.409 128.73 160.441 128.716 160.462C128.701 160.487 128.684 160.505 128.662 160.516C128.641 160.53 128.616 160.534 128.591 160.534H125.706V163.021H128.194C128.223 163.021 128.248 163.028 128.269 163.039C128.29 163.053 128.308 163.071 128.322 163.093C128.336 163.114 128.347 163.146 128.354 163.185C128.361 163.225 128.365 163.267 128.365 163.321C128.365 163.367 128.361 163.41 128.354 163.442C128.347 163.478 128.336 163.506 128.322 163.528C128.308 163.549 128.29 163.567 128.269 163.578C128.248 163.589 128.223 163.596 128.194 163.596H125.706V166.418H128.638C128.662 166.418 128.687 166.426 128.708 166.436C128.73 166.447 128.751 166.468 128.765 166.49C128.779 166.511 128.794 166.543 128.801 166.583C128.808 166.622 128.811 166.665 128.811 166.718V166.729Z" fill="white" style="fill:white;fill-opacity:1;"/>
<path d="M136.007 166.718C136.007 166.768 136.004 166.815 135.997 166.85C135.99 166.886 135.979 166.918 135.965 166.947C135.951 166.975 135.933 166.993 135.912 167.007C135.89 167.022 135.866 167.025 135.837 167.025H132.792C132.728 167.025 132.661 167 132.59 166.95C132.519 166.9 132.487 166.811 132.487 166.679V160.059C132.487 160.038 132.494 160.016 132.505 159.999C132.516 159.981 132.533 159.966 132.558 159.956C132.583 159.945 132.618 159.934 132.661 159.927C132.704 159.92 132.757 159.917 132.817 159.917C132.881 159.917 132.934 159.917 132.977 159.927C133.019 159.938 133.051 159.945 133.076 159.956C133.101 159.966 133.118 159.981 133.129 159.999C133.14 160.016 133.147 160.038 133.147 160.059V166.419H135.834C135.862 166.419 135.887 166.426 135.908 166.436C135.929 166.451 135.947 166.468 135.961 166.49C135.976 166.515 135.986 166.543 135.993 166.583C136 166.622 136.004 166.665 136.004 166.718H136.007Z" fill="white" style="fill:white;fill-opacity:1;"/>
<path d="M144.526 163.407C144.526 163.97 144.462 164.484 144.335 164.941C144.207 165.398 144.012 165.79 143.757 166.112C143.498 166.433 143.176 166.683 142.786 166.857C142.396 167.032 141.938 167.122 141.417 167.122C140.896 167.122 140.45 167.039 140.074 166.872C139.698 166.708 139.393 166.468 139.152 166.162C138.911 165.855 138.734 165.476 138.62 165.034C138.507 164.588 138.45 164.088 138.45 163.531C138.45 162.975 138.514 162.475 138.642 162.022C138.769 161.569 138.961 161.183 139.219 160.866C139.478 160.548 139.801 160.298 140.191 160.123C140.581 159.949 141.038 159.859 141.563 159.859C142.087 159.859 142.516 159.941 142.889 160.106C143.261 160.27 143.569 160.505 143.814 160.812C144.058 161.119 144.239 161.49 144.356 161.929C144.473 162.368 144.533 162.861 144.533 163.41L144.526 163.407ZM143.821 163.467C143.821 163.05 143.782 162.654 143.704 162.29C143.626 161.926 143.498 161.604 143.317 161.333C143.137 161.062 142.899 160.848 142.605 160.694C142.311 160.541 141.942 160.462 141.502 160.462C141.063 160.462 140.701 160.545 140.403 160.705C140.106 160.869 139.861 161.087 139.677 161.358C139.492 161.629 139.358 161.951 139.276 162.315C139.195 162.679 139.156 163.064 139.156 163.467C139.156 163.899 139.191 164.299 139.266 164.666C139.34 165.037 139.464 165.359 139.641 165.63C139.819 165.905 140.056 166.119 140.354 166.272C140.652 166.426 141.02 166.504 141.467 166.504C141.914 166.504 142.279 166.422 142.58 166.254C142.881 166.09 143.122 165.865 143.307 165.587C143.491 165.309 143.622 164.984 143.704 164.62C143.785 164.256 143.824 163.867 143.824 163.464L143.821 163.467Z" fill="white" style="fill:white;fill-opacity:1;"/>
<path d="M153.034 166.801C153.055 166.854 153.066 166.9 153.062 166.936C153.062 166.972 153.048 166.997 153.023 167.015C152.998 167.032 152.963 167.043 152.913 167.05C152.864 167.054 152.804 167.057 152.726 167.057C152.648 167.057 152.587 167.057 152.545 167.05C152.499 167.043 152.463 167.036 152.438 167.025C152.414 167.015 152.396 167 152.382 166.983C152.367 166.965 152.357 166.943 152.346 166.918L151.673 165.03H148.589L147.943 166.904C147.936 166.929 147.926 166.95 147.911 166.968C147.897 166.986 147.876 167 147.851 167.015C147.826 167.029 147.791 167.036 147.745 167.043C147.699 167.05 147.642 167.054 147.575 167.054C147.5 167.054 147.436 167.054 147.383 167.043C147.334 167.036 147.295 167.022 147.273 167.004C147.252 166.986 147.238 166.961 147.234 166.929C147.234 166.897 147.241 166.854 147.263 166.797L149.723 160.067C149.734 160.038 149.751 160.013 149.773 159.992C149.794 159.97 149.822 159.956 149.858 159.945C149.893 159.934 149.932 159.927 149.982 159.92C150.031 159.917 150.085 159.913 150.148 159.913C150.212 159.913 150.269 159.913 150.318 159.92C150.368 159.927 150.411 159.934 150.443 159.945C150.478 159.956 150.503 159.97 150.524 159.992C150.545 160.013 150.56 160.038 150.57 160.067L153.03 166.797L153.034 166.801ZM150.116 160.666H150.109L148.784 164.47H151.471L150.113 160.666H150.116Z" fill="white" style="fill:white;fill-opacity:1;"/>
<path d="M161.478 163.385C161.478 163.981 161.404 164.502 161.255 164.959C161.106 165.412 160.886 165.794 160.599 166.097C160.308 166.404 159.95 166.636 159.525 166.793C159.099 166.95 158.593 167.029 158.001 167.029H156.614C156.551 167.029 156.483 167.004 156.412 166.954C156.341 166.904 156.31 166.815 156.31 166.683V160.295C156.31 160.163 156.345 160.074 156.412 160.024C156.48 159.974 156.547 159.949 156.614 159.949H158.093C158.692 159.949 159.195 160.031 159.606 160.195C160.018 160.359 160.361 160.591 160.638 160.891C160.914 161.191 161.124 161.551 161.265 161.972C161.407 162.393 161.478 162.861 161.478 163.378V163.385ZM160.766 163.417C160.766 163.007 160.712 162.625 160.61 162.272C160.507 161.919 160.347 161.615 160.131 161.362C159.915 161.109 159.642 160.909 159.312 160.762C158.982 160.62 158.564 160.545 158.054 160.545H156.972V166.429H158.057C158.536 166.429 158.94 166.369 159.27 166.251C159.599 166.133 159.876 165.951 160.099 165.701C160.319 165.455 160.486 165.141 160.595 164.763C160.705 164.385 160.762 163.935 160.762 163.414L160.766 163.417Z" fill="white" style="fill:white;fill-opacity:1;"/>
<path d="M168.835 166.729C168.835 166.775 168.831 166.818 168.824 166.854C168.817 166.89 168.806 166.922 168.789 166.947C168.771 166.972 168.753 166.993 168.732 167.004C168.711 167.018 168.686 167.022 168.661 167.022H165.371C165.307 167.022 165.24 166.997 165.169 166.947C165.098 166.897 165.066 166.807 165.066 166.675V160.288C165.066 160.156 165.102 160.066 165.169 160.016C165.237 159.966 165.304 159.941 165.371 159.941H168.615C168.64 159.941 168.665 159.949 168.686 159.959C168.707 159.974 168.725 159.991 168.739 160.016C168.753 160.041 168.764 160.073 168.771 160.113C168.778 160.152 168.782 160.195 168.782 160.248C168.782 160.295 168.782 160.338 168.771 160.373C168.764 160.409 168.753 160.441 168.739 160.462C168.725 160.487 168.707 160.505 168.686 160.516C168.665 160.53 168.64 160.534 168.615 160.534H165.729V163.021H168.218C168.246 163.021 168.271 163.028 168.292 163.039C168.314 163.053 168.331 163.071 168.346 163.093C168.36 163.114 168.37 163.146 168.377 163.185C168.384 163.225 168.388 163.267 168.388 163.321C168.388 163.367 168.384 163.41 168.377 163.442C168.37 163.478 168.36 163.506 168.346 163.528C168.331 163.549 168.314 163.567 168.292 163.578C168.271 163.589 168.246 163.596 168.218 163.596H165.729V166.418H168.661C168.686 166.418 168.711 166.426 168.732 166.436C168.753 166.447 168.774 166.468 168.789 166.49C168.803 166.511 168.817 166.543 168.824 166.583C168.831 166.622 168.835 166.665 168.835 166.718V166.729Z" fill="white" style="fill:white;fill-opacity:1;"/>
<path d="M177.669 163.385C177.669 163.981 177.594 164.502 177.445 164.959C177.296 165.412 177.077 165.794 176.789 166.097C176.499 166.404 176.141 166.636 175.715 166.793C175.29 166.95 174.783 167.029 174.191 167.029H172.805C172.741 167.029 172.674 167.004 172.603 166.954C172.532 166.904 172.5 166.815 172.5 166.683V160.295C172.5 160.163 172.535 160.074 172.603 160.024C172.67 159.974 172.738 159.949 172.805 159.949H174.283C174.882 159.949 175.386 160.031 175.797 160.195C176.208 160.359 176.552 160.591 176.828 160.891C177.105 161.191 177.314 161.551 177.456 161.972C177.598 162.393 177.669 162.861 177.669 163.378V163.385ZM176.96 163.417C176.96 163.007 176.906 162.625 176.804 162.272C176.701 161.919 176.541 161.615 176.325 161.362C176.109 161.109 175.836 160.909 175.506 160.762C175.176 160.62 174.758 160.545 174.248 160.545H173.166V166.429H174.251C174.73 166.429 175.134 166.369 175.464 166.251C175.793 166.133 176.07 165.951 176.293 165.701C176.513 165.455 176.68 165.141 176.789 164.763C176.899 164.385 176.956 163.935 176.956 163.414L176.96 163.417Z" fill="white" style="fill:white;fill-opacity:1;"/>
</svg>
