<svg width="73" height="75" viewBox="0 0 73 75" fill="none" xmlns="http://www.w3.org/2000/svg">
<g clip-path="url(#clip0_4615_5911)">
<g clip-path="url(#clip1_4615_5911)">
<path d="M61.4558 12.7097C54.6563 5.91009 45.6159 2.16553 36 2.16553C26.3841 2.16553 17.3437 5.91009 10.5442 12.7097C3.74456 19.5092 0 28.5496 0 38.1655C0 47.5351 3.58059 56.4084 10.0824 63.1509C10.2814 63.3519 10.5516 63.4664 10.8344 63.4696C11.1172 63.4729 11.3899 63.3646 11.5935 63.1683C11.7971 62.9719 11.9152 62.7033 11.9222 62.4206C11.9292 62.1378 11.8246 61.8637 11.631 61.6575C5.51798 55.3181 2.15142 46.975 2.15142 38.1655C2.15142 29.1242 5.67225 20.6241 12.0655 14.231C18.4586 7.83778 26.9587 4.31695 36 4.31695C45.0413 4.31695 53.5414 7.83778 59.9345 14.231C66.3278 20.6241 69.8486 29.1242 69.8486 38.1655C69.8486 47.2069 66.3278 55.7068 59.9345 62.1C53.5414 68.4931 45.0413 72.0141 36 72.0141C29.8011 72.0141 23.7388 70.3237 18.4679 67.1257C17.6566 66.6332 16.8662 66.107 16.0988 65.5486C15.8679 65.3857 15.5822 65.3201 15.3034 65.3661C15.0246 65.4121 14.775 65.5659 14.6087 65.7944C14.4424 66.0228 14.3727 66.3075 14.4145 66.587C14.4564 66.8664 14.6066 67.1182 14.8326 67.2878C15.6486 67.8817 16.4891 68.4412 17.3519 68.9649C22.9593 72.3672 29.4076 74.1655 36 74.1655C45.6159 74.1655 54.6563 70.421 61.4558 63.6213C68.2554 56.8218 72 47.7813 72 38.1655C72 28.5496 68.2554 19.5092 61.4558 12.7097Z" fill="black" style="fill:black;fill-opacity:1;"/>
<path d="M42.5119 9.35603C37.9698 8.38107 33.2441 8.48007 28.746 9.65218C28.4725 9.72648 28.2394 9.90567 28.0973 10.1508C27.9552 10.396 27.9155 10.6873 27.987 10.9615C28.0584 11.2358 28.2352 11.4707 28.4788 11.6154C28.7225 11.76 29.0134 11.8027 29.2883 11.7341C30.613 11.3889 31.9663 11.1463 33.334 11.0019L25.8255 23.3576H13.1613C15.8713 19.212 19.6346 15.8685 24.0716 13.6786C24.323 13.5497 24.5137 13.3271 24.6024 13.0588C24.6912 12.7906 24.6708 12.4982 24.5457 12.2448C24.4207 11.9914 24.201 11.7974 23.9341 11.7047C23.6672 11.612 23.3745 11.6279 23.1193 11.7492C18.3858 14.0855 14.3149 17.6861 11.4122 22.0945C8.23833 26.9147 6.52734 32.6386 6.52734 38.43C6.52734 41.9471 7.15158 45.4584 8.37656 48.7559C8.67413 49.5571 9.07955 50.3195 9.37345 51.1184C9.66342 51.9066 9.99684 52.4444 10.4359 53.1512C11.1833 54.3542 11.9185 55.5419 12.7901 56.6623C16.2933 61.1655 21.0846 64.6255 26.4716 66.5098C29.613 67.6087 32.9363 68.1665 36.2639 68.1665C52.6608 68.1665 66.0006 54.8267 66.0006 38.43C66.0006 24.6034 56.0361 12.2589 42.5119 9.35603ZM60.5019 25.631C60.5332 25.6867 60.5579 25.774 60.4977 25.873L54.2145 36.1982L47.7188 25.5089H60.2931C60.4089 25.5088 60.4705 25.5752 60.5019 25.631ZM59.3558 23.3574H46.4114L38.8836 10.9697C47.4437 11.78 54.8763 16.5179 59.3558 23.3574ZM35.9137 10.899C35.9261 10.8787 35.94 10.8635 35.9544 10.8495C36.0576 10.8483 36.1607 10.8445 36.2639 10.8445L36.2787 10.8447C36.2946 10.8594 36.3097 10.8767 36.3231 10.8988L43.8939 23.3574H28.3429L35.9137 10.899ZM27.0355 25.5089H45.2015L52.955 38.2681L45.1029 51.2389H27.1749L19.2819 38.2681L27.0355 25.5089ZM11.8823 25.5176C11.9013 25.513 11.9209 25.5086 11.9441 25.5086H24.5182L18.0223 36.198L11.7393 25.8729C11.7298 25.8571 11.7255 25.8422 11.7199 25.8272C11.7732 25.7235 11.8276 25.6206 11.8823 25.5176ZM8.67877 38.4298C8.67877 34.8999 9.34898 31.4351 10.6388 28.203L16.764 38.2687L10.5683 48.464C9.34912 45.3527 8.67877 41.9681 8.67877 38.4298ZM11.8393 51.2388C11.7708 51.1092 11.7033 50.9791 11.637 50.8484L18.0236 40.3387L24.6566 51.2388H11.8393ZM13.0985 53.3902H25.9657L33.5678 65.8832C24.9931 65.0475 17.5567 60.2697 13.0985 53.3902ZM38.6526 65.9105L44.1115 56.9397C44.2598 56.696 44.3052 56.4033 44.2377 56.1261C44.1702 55.8489 43.9954 55.6099 43.7516 55.4616C43.5079 55.3133 43.2152 55.2679 42.938 55.3354C42.6608 55.4029 42.4218 55.5778 42.2735 55.8215L36.3231 65.6C36.2653 65.695 36.18 65.715 36.1185 65.715C36.0572 65.715 35.9718 65.6952 35.914 65.6L28.4842 53.3902H59.4298C54.9182 60.3519 47.3568 65.1604 38.6526 65.9105ZM60.6202 51.1169C60.5889 51.1724 60.5272 51.2389 60.4115 51.2389H47.5804L54.2134 40.3389L60.6161 50.8751C60.6761 50.974 60.6515 51.061 60.6202 51.1169ZM55.4729 38.2689L61.7684 27.9235C63.1081 31.1636 63.8493 34.7116 63.8493 38.43C63.8493 42.0781 63.1358 45.5622 61.8436 48.7525L55.4729 38.2689Z" fill="black" style="fill:black;fill-opacity:1;"/>
<path d="M45.8509 36.4483L37.7167 28.3142C36.7699 27.3676 35.2295 27.3676 34.2827 28.3142L26.1485 36.4483C25.2018 37.3952 25.2018 38.9357 26.1485 39.8825L34.2827 48.0167C34.508 48.2423 34.7757 48.4211 35.0704 48.543C35.365 48.6648 35.6808 48.7273 35.9997 48.7267C36.6214 48.7267 37.2434 48.49 37.7167 48.0167L45.8509 39.8825C46.7976 38.9357 46.7976 37.3952 45.8509 36.4483ZM44.3295 38.3613L36.1953 46.4954C36.1696 46.5211 36.1391 46.5415 36.1055 46.5554C36.072 46.5694 36.036 46.5765 35.9996 46.5765C35.9633 46.5765 35.9273 46.5694 35.8937 46.5554C35.8601 46.5415 35.8296 46.5211 35.8039 46.4954L27.6698 38.3613C27.6179 38.3093 27.5888 38.2389 27.5888 38.1655C27.5888 38.0921 27.6179 38.0217 27.6698 37.9698L35.8039 29.8356C35.8296 29.8098 35.8601 29.7894 35.8937 29.7755C35.9273 29.7616 35.9633 29.7545 35.9997 29.7546C36.0706 29.7546 36.1414 29.7814 36.1953 29.8356L44.3295 37.9698C44.3813 38.0217 44.4105 38.0921 44.4105 38.1655C44.4105 38.2389 44.3813 38.3093 44.3295 38.3613Z" fill="black" style="fill:black;fill-opacity:1;"/>
<path d="M35.9996 34.3503C33.896 34.3503 32.1846 36.0617 32.1846 38.1655C32.1846 40.2691 33.896 41.9805 35.9996 41.9805C38.1032 41.9805 39.8146 40.2691 39.8146 38.1655C39.8146 36.0617 38.1032 34.3503 35.9996 34.3503ZM35.9996 39.8292C35.0821 39.8292 34.3359 39.0829 34.3359 38.1655C34.3359 37.2481 35.0821 36.5016 35.9996 36.5016C36.917 36.5016 37.6633 37.2481 37.6633 38.1655C37.6633 39.0829 36.917 39.8292 35.9996 39.8292Z" fill="black" style="fill:black;fill-opacity:1;"/>
</g>
</g>
<defs>
<clipPath id="clip0_4615_5911">
<rect width="73" height="74" fill="white" style="fill:white;fill-opacity:1;" transform="translate(0 0.969482)"/>
</clipPath>
<clipPath id="clip1_4615_5911">
<rect width="72" height="72" fill="white" style="fill:white;fill-opacity:1;" transform="translate(0 2.16553)"/>
</clipPath>
</defs>
</svg>
