<svg width="73" height="75" viewBox="0 0 73 75" fill="none" xmlns="http://www.w3.org/2000/svg">
<g clip-path="url(#clip0_4615_5884)">
<path d="M62.4561 59.1812H57.2347V53.9598C57.2303 53.6908 57.1203 53.4343 56.9285 53.2456C56.7368 53.0569 56.4785 52.9512 56.2094 52.9512C55.9404 52.9512 55.6821 53.0569 55.4903 53.2456C55.2985 53.4343 55.1886 53.6908 55.1842 53.9598V59.1812H49.9627C49.6937 59.1856 49.4372 59.2956 49.2485 59.4874C49.0598 59.6792 48.9541 59.9374 48.9541 60.2065C48.9541 60.4755 49.0598 60.7338 49.2485 60.9256C49.4372 61.1174 49.6937 61.2274 49.9627 61.2318H55.1842V66.4533C55.1886 66.7223 55.2985 66.9788 55.4903 67.1675C55.6821 67.3562 55.9404 67.462 56.2094 67.462C56.4785 67.462 56.7368 67.3562 56.9285 67.1675C57.1203 66.9788 57.2303 66.7223 57.2347 66.4533V61.2318H62.4561C62.7251 61.2274 62.9816 61.1174 63.1703 60.9256C63.359 60.7338 63.4648 60.4755 63.4648 60.2065C63.4648 59.9374 63.359 59.6792 63.1703 59.4874C62.9816 59.2956 62.7251 59.1856 62.4561 59.1812Z" fill="black" style="fill:black;fill-opacity:1;"/>
<path d="M56.2088 46.8142C54.7812 46.813 53.363 47.0448 52.0099 47.5003L46.0814 45.6518L46.0811 45.6517L42.0441 44.3931C41.6311 44.2641 41.1951 44.283 40.8008 44.4303C40.477 44.1169 40.2828 43.6791 40.2828 43.2181V41.2086C43.9887 39.278 46.806 35.8688 47.9478 31.768H48.5094C50.3271 31.768 51.8058 30.2892 51.8058 28.4715V25.9546C51.8058 25.4732 51.7012 25.0161 51.5149 24.6033V18.9959C51.5149 16.674 51.0235 14.4365 50.0542 12.3455C49.9988 12.2215 49.9193 12.1096 49.8203 12.0166C49.7213 11.9235 49.6048 11.851 49.4776 11.8034C49.3504 11.7557 49.2149 11.7338 49.0792 11.739C48.9434 11.7441 48.81 11.7762 48.6867 11.8333C48.5635 11.8904 48.4528 11.9715 48.3611 12.0718C48.2694 12.172 48.1986 12.2895 48.1527 12.4174C48.1069 12.5453 48.0869 12.681 48.0939 12.8167C48.1009 12.9524 48.1349 13.0853 48.1937 13.2078C49.0369 15.0267 49.4642 16.9741 49.4642 18.9959V22.7997C49.3902 22.7775 49.3153 22.7578 49.2399 22.7408L49.2263 22.7376C49.0626 22.7011 48.8963 22.6773 48.7288 22.6663C48.6574 22.6613 48.5859 22.6586 48.5143 22.6582L48.509 22.6581H48.4688C48.4594 22.5216 48.4482 22.3853 48.4353 22.2491L48.4298 22.1891C48.4278 22.1678 48.4248 22.1463 48.4226 22.125C48.4115 22.0164 48.3992 21.9082 48.3858 21.7999L48.3731 21.6988C48.3564 21.5712 48.3382 21.4437 48.3184 21.3167L48.315 21.2932L48.3135 21.284C48.2881 21.125 48.2602 20.9664 48.2298 20.8083L48.216 20.7359C48.2135 20.7235 48.2107 20.7113 48.2082 20.6989C48.1887 20.6009 48.1681 20.503 48.1467 20.4054C48.1448 20.3963 48.143 20.3872 48.1409 20.3781L48.1245 20.3025C48.1221 20.2917 48.1192 20.2812 48.1167 20.2704C48.0853 20.1334 48.0526 19.9968 48.0175 19.8608C47.9911 19.7616 47.9499 19.667 47.8953 19.5801C47.8892 19.5704 47.8849 19.5593 47.8786 19.5498C47.8682 19.534 47.8551 19.5208 47.8437 19.5057C47.6544 19.2527 47.3554 19.0924 47.0249 19.0924H47.0118L46.9747 19.0929C46.7952 19.0952 46.6194 19.1446 46.4649 19.2361C44.6936 20.2863 42.3666 20.8187 39.5487 20.8187C39.1928 20.8187 38.8371 20.8047 38.4818 20.7787C37.7953 20.7286 37.1099 20.6323 36.4269 20.5047C36.4028 20.5002 36.3786 20.4964 36.3544 20.4919C35.0565 20.2451 33.7676 19.8832 32.4951 19.4956C32.0348 19.3554 31.5764 19.2121 31.1208 19.0693C27.3803 17.897 23.5128 16.6846 19.6515 17.7787C19.4961 17.8227 19.3533 17.9029 19.2348 18.0125C19.1162 18.1222 19.0252 18.2583 18.9693 18.4098L18.9672 18.4158C18.9108 18.569 18.857 18.7231 18.8057 18.8781C18.7947 18.9112 18.7839 18.9444 18.7731 18.9775L18.7639 19.0052L18.7478 19.055C18.7136 19.162 18.6804 19.2711 18.648 19.3815C18.6318 19.4362 18.6165 19.4908 18.6011 19.5457C18.5919 19.5781 18.5823 19.6099 18.5735 19.6426L18.5575 19.7019C18.551 19.7257 18.5461 19.7491 18.5397 19.7729C18.5017 19.916 18.4659 20.0596 18.4321 20.2038C18.4239 20.2388 18.4138 20.2741 18.4058 20.3091L18.4006 20.3337C18.3949 20.3594 18.3898 20.3847 18.3842 20.4104C18.3431 20.596 18.3055 20.7824 18.2714 20.9695L18.2668 20.9973C18.2594 21.0385 18.253 21.0798 18.246 21.1209C18.2291 21.2216 18.2127 21.3262 18.1967 21.4339C18.1865 21.502 18.176 21.5701 18.1669 21.6384L18.1632 21.6644C18.1392 21.8483 18.1183 22.0326 18.1005 22.2171C18.0989 22.2338 18.097 22.25 18.0955 22.2666L18.0871 22.3595C18.082 22.4195 18.0781 22.476 18.0736 22.5337C18.0705 22.5752 18.0658 22.6165 18.0631 22.6581H18.023L18.0174 22.6583C17.9285 22.6588 17.8396 22.6627 17.751 22.6702C17.6014 22.6825 17.4528 22.7049 17.3063 22.7375L17.2912 22.7411C17.2157 22.7583 17.1412 22.7776 17.0678 22.7998V18.9959C17.0678 11.3978 23.2492 5.21631 30.8474 5.21631H35.6841C39.5006 5.21631 43.0502 6.74113 45.679 9.5101C45.867 9.70419 46.124 9.81625 46.3941 9.82193C46.6642 9.82761 46.9257 9.72644 47.1216 9.54042C47.3176 9.35439 47.4322 9.09855 47.4405 8.82849C47.4489 8.55843 47.3503 8.29599 47.1663 8.0982C44.1466 4.91717 40.0688 3.16553 35.6845 3.16553H30.8478C22.119 3.16553 15.0175 10.267 15.0175 18.9958V24.6036C14.8256 25.0281 14.7265 25.4887 14.7267 25.9546V28.4715C14.7267 30.2892 16.2056 31.768 18.0232 31.768H18.5848C19.7265 35.8688 22.5439 39.278 26.2497 41.2086V43.2181C26.2497 43.6791 26.0553 44.1169 25.7315 44.4303C25.3327 44.28 24.8953 44.2669 24.4882 44.3929L12.3287 48.1841C10.3724 48.7614 8.61322 49.7446 7.10057 51.1066C6.99893 51.1963 6.91608 51.3052 6.8568 51.4271C6.79752 51.549 6.76299 51.6814 6.7552 51.8167C6.74742 51.952 6.76654 52.0875 6.81145 52.2154C6.85636 52.3433 6.92618 52.461 7.01686 52.5617C7.10754 52.6624 7.21729 52.7442 7.33977 52.8022C7.46224 52.8602 7.595 52.8934 7.73038 52.8998C7.86576 52.9062 8.00107 52.8858 8.12848 52.8396C8.25589 52.7933 8.37288 52.7223 8.47268 52.6306C9.75783 51.4736 11.2526 50.6387 12.9156 50.1491L12.9312 50.1443L20.4699 47.7938L27.6721 54.9901C28.1222 55.4398 28.7173 55.667 29.3138 55.667C29.8754 55.6681 30.4182 55.4649 30.8411 55.0954L33.2661 52.9746L35.6911 55.0954C36.1139 55.465 36.6567 55.6683 37.2183 55.6672C37.8147 55.6672 38.41 55.4399 38.8599 54.9903L46.0621 47.7939L49.2642 48.7924C48.4732 49.2857 47.7368 49.8617 47.0676 50.5107C47.0218 50.555 46.9758 50.5993 46.9307 50.6443C44.7213 52.8378 43.2835 55.8068 43.0635 59.1039L43.0592 59.1695C43.0525 59.2785 43.0472 59.3878 43.0431 59.4975C43.0419 59.5291 43.0405 59.5605 43.0396 59.5921C43.0354 59.7247 43.0332 59.8574 43.033 59.9901C43.033 60.1033 43.0345 60.2162 43.0372 60.3289L43.0378 60.3451C43.1277 63.774 44.5183 66.9537 46.8904 69.3129H12.3515V59.9901C12.3471 59.7211 12.2372 59.4646 12.0454 59.2759C11.8536 59.0872 11.5953 58.9814 11.3263 58.9814C11.0572 58.9814 10.7989 59.0872 10.6072 59.2759C10.4154 59.4646 10.3054 59.7211 10.301 59.9901V69.3129H4.79426C4.76016 69.3129 4.72747 69.2993 4.70338 69.2752C4.67928 69.2511 4.66574 69.2184 4.66574 69.1843V61.1787C4.66574 59.4451 5.04445 57.7754 5.79135 56.216C5.84954 56.0945 5.88324 55.9628 5.89053 55.8284C5.89781 55.6939 5.87854 55.5594 5.83381 55.4324C5.78908 55.3054 5.71978 55.1884 5.62985 55.0882C5.53992 54.988 5.43112 54.9065 5.30969 54.8484C5.06442 54.7309 4.78254 54.7156 4.52604 54.806C4.26954 54.8964 4.05944 55.0849 3.94195 55.3302C3.06162 57.1683 2.61523 59.1361 2.61523 61.1787V69.1843C2.61523 70.3859 3.59277 71.3636 4.79439 71.3636H49.5646C51.5164 72.508 53.7871 73.1655 56.2088 73.1655C63.4739 73.1655 69.3846 67.2549 69.3846 59.9898C69.3846 52.7247 63.4738 46.8142 56.2088 46.8142ZM48.3703 29.6999C48.412 29.3856 48.4439 29.0683 48.4661 28.7482C48.4687 28.7118 48.4707 28.6755 48.473 28.6392C48.4805 28.518 48.4866 28.3963 48.4913 28.2743C48.4929 28.2333 48.4948 28.1922 48.496 28.1512C48.5006 27.9965 48.5038 27.8415 48.5038 27.6858V24.7087H48.5093L48.5127 24.7088C48.5627 24.709 48.6122 24.7128 48.6612 24.7188C48.6741 24.7205 48.6869 24.7228 48.6996 24.7247C48.7399 24.731 48.7797 24.7389 48.8188 24.7492C48.8285 24.7516 48.8383 24.754 48.8479 24.7567C48.9471 24.7849 49.0425 24.8253 49.1317 24.877L49.1468 24.8862C49.1875 24.9105 49.2268 24.9372 49.2645 24.966C49.2687 24.9692 49.273 24.9722 49.2771 24.9754C49.365 25.0446 49.4432 25.1252 49.5096 25.2153C49.5405 25.2571 49.5695 25.3006 49.5954 25.3465L49.5967 25.3487C49.7005 25.5337 49.755 25.7423 49.7549 25.9545V28.4713C49.7549 29.1584 49.196 29.7173 48.509 29.7173H48.3682L48.3703 29.6999ZM18.0232 29.7175C17.3362 29.7174 16.7772 29.1585 16.7772 28.4715V25.9546C16.7766 25.6887 16.8624 25.4297 17.0217 25.2168L17.0359 25.1978C17.0992 25.1151 17.1726 25.0407 17.2544 24.9763C17.2592 24.9724 17.2642 24.969 17.269 24.9653C17.3059 24.9372 17.3445 24.9111 17.3843 24.8871L17.4012 24.8767C17.4901 24.8253 17.585 24.7851 17.6838 24.757C17.6938 24.7541 17.7039 24.7518 17.7139 24.7492C17.7527 24.7392 17.7922 24.7313 17.8322 24.725C17.8452 24.7229 17.8581 24.7206 17.8713 24.719C17.9203 24.7127 17.9697 24.7093 18.0192 24.709L18.0232 24.7088L18.0286 27.6859C18.0286 27.8418 18.0318 27.9969 18.0364 28.1517C18.0377 28.1924 18.0396 28.2332 18.0411 28.2739C18.0457 28.3962 18.0517 28.518 18.0594 28.6395C18.0617 28.6759 18.0638 28.7121 18.0664 28.7485C18.0885 29.0685 18.1204 29.3859 18.1621 29.7002C18.1629 29.7059 18.1633 29.7118 18.1641 29.7175H18.0232ZM20.3641 30.4152C20.3414 30.3091 20.3203 30.2027 20.3008 30.096C20.2805 29.9869 20.2617 29.8776 20.2443 29.768C20.2326 29.6938 20.2215 29.6195 20.2111 29.5451C20.2057 29.5074 20.2003 29.4697 20.1952 29.4318C20.1844 29.3494 20.1743 29.2668 20.165 29.1842C20.1614 29.1523 20.1575 29.1205 20.1541 29.0885C20.1449 29.0007 20.1366 28.9128 20.1292 28.8248C20.1267 28.7967 20.124 28.7687 20.1217 28.7405C20.1144 28.6499 20.1087 28.5591 20.1032 28.4683C20.1017 28.442 20.0996 28.4157 20.0981 28.3892C20.0934 28.2966 20.0897 28.2039 20.0869 28.1112C20.0861 28.0863 20.0847 28.0616 20.0841 28.0366C20.0809 27.9196 20.0793 27.8025 20.0793 27.6855V23.6995L20.0794 23.6837V23.6836C20.0795 23.538 20.0832 23.3929 20.088 23.248C20.0894 23.2089 20.0901 23.1717 20.0919 23.1315L20.0924 23.1196C20.0979 22.9902 20.1059 22.8611 20.1151 22.7323C20.1191 22.6784 20.123 22.6242 20.1278 22.5678C20.1386 22.44 20.1508 22.3123 20.1653 22.185C20.1707 22.1365 20.1769 22.0899 20.1828 22.0424C20.1961 21.9356 20.2108 21.8289 20.2268 21.7225C20.2339 21.6745 20.2409 21.6253 20.2481 21.5795C20.2696 21.4458 20.2935 21.3126 20.3191 21.1799C20.3255 21.1468 20.3314 21.1144 20.3381 21.0809C20.3656 20.944 20.3956 20.8077 20.4275 20.6717C20.4365 20.6335 20.4455 20.5954 20.455 20.5568C20.4864 20.4282 20.5196 20.2998 20.5551 20.1721C20.5927 20.0355 20.6338 19.9003 20.6754 19.7665C20.6869 19.7294 20.6971 19.6921 20.709 19.6552L20.7165 19.6321L20.7194 19.6236C20.9134 19.5807 21.1087 19.5442 21.3051 19.5141C23.5046 19.1758 25.7696 19.6278 28.1171 20.2988C28.9045 20.5239 29.701 20.7733 30.5076 21.0261C33.3987 21.9322 36.388 22.8692 39.5488 22.8692C39.7165 22.8692 39.8826 22.8672 40.0473 22.8638C42.4399 22.8135 44.5322 22.398 46.2914 21.6249C46.2943 21.6431 46.2965 21.6617 46.2992 21.68C46.3193 21.8116 46.3375 21.9436 46.3536 22.0759C46.3599 22.1277 46.3655 22.1794 46.3711 22.2312C46.3893 22.3963 46.4044 22.5616 46.4166 22.7272C46.4247 22.8385 46.431 22.9501 46.4363 23.0617C46.4382 23.1021 46.4407 23.1433 46.4422 23.1832L46.4434 23.2145C46.449 23.3702 46.4527 23.5261 46.4527 23.6822V23.6841L46.4529 23.6952V27.6855C46.4529 27.8025 46.4512 27.9196 46.4481 28.0366C46.4474 28.0615 46.446 28.0862 46.4452 28.1112C46.4424 28.2039 46.4387 28.2966 46.434 28.3892C46.4326 28.4156 46.4305 28.442 46.4289 28.4683C46.4237 28.5591 46.4176 28.6499 46.4106 28.7405C46.4084 28.7687 46.4056 28.7966 46.4031 28.8248C46.3957 28.9128 46.3873 29.0007 46.3781 29.0885C46.3747 29.1205 46.3707 29.1522 46.3671 29.1842C46.3578 29.2668 46.3478 29.3494 46.3369 29.4318C46.3319 29.4697 46.3264 29.5074 46.3211 29.5451C46.3105 29.6195 46.2996 29.6938 46.2878 29.768C46.2805 29.8143 46.2727 29.8604 46.2649 29.9066C46.2358 30.0767 46.2035 30.2463 46.1681 30.4152C44.9758 36.0579 40.1649 40.3815 34.2864 40.8335C34.2686 40.8348 34.2509 40.8358 34.2332 40.837C34.1405 40.8437 34.0476 40.8499 33.9543 40.8548C33.9082 40.8571 33.8619 40.8585 33.8157 40.8604C33.7486 40.8631 33.6816 40.8663 33.6142 40.868C33.3821 40.8741 33.1498 40.8741 32.9177 40.868C32.8503 40.8663 32.7833 40.8631 32.7162 40.8604C32.67 40.8585 32.6238 40.8572 32.5776 40.8548C32.4845 40.8499 32.3916 40.844 32.2987 40.837C32.2809 40.8358 32.2631 40.8348 32.2455 40.8335C26.3672 40.3815 21.5564 36.0579 20.3641 30.4152ZM29.4913 53.5517C29.4395 53.5968 29.3726 53.6206 29.304 53.6184C29.2353 53.6161 29.1701 53.588 29.1214 53.5396L22.6812 47.1045L25.0336 46.371L31.6662 51.6497L29.4913 53.5517ZM33.2659 50.302L27.4112 45.6423C27.9772 44.9805 28.3003 44.1293 28.3003 43.2181V42.0955C28.564 42.1867 28.8304 42.2675 29.0981 42.3437L29.105 42.3456C29.3284 42.409 29.5533 42.467 29.7793 42.52L29.8742 42.542C30.0707 42.5867 30.2682 42.6275 30.4665 42.6643C30.5078 42.6719 30.5489 42.6803 30.5904 42.6876C30.7832 42.7216 30.9766 42.7519 31.1706 42.7784C31.4023 42.8104 31.6347 42.8371 31.8676 42.8584C31.9299 42.864 31.9923 42.8702 32.0547 42.8751C32.2247 42.8885 32.3956 42.8987 32.567 42.9065C32.6128 42.9086 32.6588 42.9101 32.7047 42.9117C32.8911 42.9186 33.0779 42.9232 33.2661 42.9232C33.4542 42.9232 33.641 42.9186 33.8274 42.9117C33.8734 42.9101 33.9193 42.9086 33.9651 42.9065C34.136 42.8989 34.3068 42.8884 34.4774 42.8751C34.5399 42.8702 34.6022 42.864 34.6646 42.8584C34.8975 42.8371 35.1299 42.8104 35.3616 42.7784C35.5555 42.752 35.749 42.7217 35.9418 42.6876C35.9832 42.6803 36.0244 42.6721 36.0657 42.6643C36.264 42.6275 36.4615 42.5867 36.6579 42.542L36.7528 42.52C36.9788 42.467 37.2037 42.409 37.4271 42.3456L37.4341 42.3437C37.7022 42.2683 37.9683 42.1855 38.2318 42.0955V43.2181C38.2318 44.1293 38.5549 44.9805 39.1208 45.6423L33.2659 50.302ZM37.4106 53.5396C37.3619 53.5879 37.2968 53.616 37.2283 53.6182C37.1597 53.6205 37.0929 53.5967 37.0412 53.5517L34.8661 51.6494L38.9666 48.3859L41.4021 46.4477L41.4022 46.4475L41.4986 46.3708L43.8511 47.1043L37.4106 53.5396ZM56.2088 71.1149C50.2807 71.1149 45.4217 66.4539 45.1015 60.6044C45.0998 60.572 45.0984 60.5394 45.0969 60.507C45.0885 60.3348 45.0842 60.1624 45.0838 59.9899C45.0838 59.8195 45.0891 59.6503 45.0966 59.4818C45.0995 59.4196 45.1037 59.3575 45.1077 59.2954C45.114 59.1932 45.1218 59.091 45.1311 58.989C45.1383 58.91 45.1454 58.831 45.1543 58.7524C45.1624 58.6799 45.1724 58.6081 45.1818 58.5362C45.4685 56.3788 46.3836 54.3757 47.7661 52.7574C47.8161 52.699 47.866 52.6402 47.9173 52.5829C47.9621 52.5326 48.008 52.483 48.0537 52.4335C48.1321 52.3487 48.2117 52.2652 48.2927 52.1829C48.3198 52.1554 48.3466 52.1277 48.3739 52.1003C50.3861 50.1019 53.1555 48.8649 56.2088 48.8649C62.3433 48.8649 67.3339 53.8555 67.3339 59.9899C67.3339 66.1244 62.3433 71.1149 56.2088 71.1149Z" fill="black" style="fill:black;fill-opacity:1;"/>
</g>
<defs>
<clipPath id="clip0_4615_5884">
<rect width="70" height="70" fill="white" style="fill:white;fill-opacity:1;" transform="translate(1 3.16553)"/>
</clipPath>
</defs>
</svg>
