<svg width="73" height="75" viewBox="0 0 73 75" fill="none" xmlns="http://www.w3.org/2000/svg">
<g clip-path="url(#clip0_4615_5895)">
<path fill-rule="evenodd" clip-rule="evenodd" d="M38.9158 5.16162C38.9158 4.61149 39.3618 4.16553 39.9119 4.16553H64.6177C66.0484 4.16553 67.2075 5.3247 67.2075 6.75537V30.0679C67.2075 30.6181 66.7616 31.064 66.2114 31.064C65.6613 31.064 65.2153 30.6181 65.2153 30.0679V6.75537C65.2153 6.42495 64.9481 6.15771 64.6177 6.15771H39.9119C39.3618 6.15771 38.9158 5.71175 38.9158 5.16162ZM27.7334 38.2983C26.9999 38.2983 26.4053 38.893 26.4053 39.6265C26.4053 40.36 26.9999 40.9546 27.7334 40.9546H47.4414C48.1749 40.9546 48.7696 40.36 48.7696 39.6265C48.7696 38.893 48.1749 38.2983 47.4414 38.2983H27.7334ZM24.4131 39.6265C24.4131 37.7927 25.8996 36.3062 27.7334 36.3062H47.4414C49.2752 36.3062 50.7618 37.7927 50.7618 39.6265C50.7618 41.4602 49.2752 42.9468 47.4414 42.9468H27.7334C25.8996 42.9468 24.4131 41.4602 24.4131 39.6265Z" fill="black" style="fill:black;fill-opacity:1;"/>
<path fill-rule="evenodd" clip-rule="evenodd" d="M37.5876 12.1343C32.1016 12.1343 27.6543 16.5816 27.6543 22.0676C27.6543 27.5536 32.1016 32.0009 37.5876 32.0009C43.0736 32.0009 47.5209 27.5536 47.5209 22.0676C47.5209 16.5816 43.0736 12.1343 37.5876 12.1343ZM25.6621 22.0676C25.6621 15.4813 31.0013 10.1421 37.5876 10.1421C44.1739 10.1421 49.5131 15.4813 49.5131 22.0676C49.5131 28.6539 44.1739 33.9931 37.5876 33.9931C31.0013 33.9931 25.6621 28.6539 25.6621 22.0676Z" fill="black" style="fill:black;fill-opacity:1;"/>
<path fill-rule="evenodd" clip-rule="evenodd" d="M30.1504 28.1848C30.1504 25.6688 32.1904 23.6306 34.7045 23.6306H40.4712C42.9859 23.6306 45.0241 25.6692 45.0241 28.1848V30.8981C45.0241 31.4482 44.5781 31.8942 44.028 31.8942C43.4778 31.8942 43.0319 31.4482 43.0319 30.8981V28.1848C43.0319 26.769 41.8852 25.6228 40.4712 25.6228H34.7045C33.2901 25.6228 32.1426 26.7695 32.1426 28.1848V30.8968C32.1426 31.4469 31.6966 31.8929 31.1465 31.8929C30.5964 31.8929 30.1504 31.4469 30.1504 30.8968V28.1848Z" fill="black" style="fill:black;fill-opacity:1;"/>
<path fill-rule="evenodd" clip-rule="evenodd" d="M37.5876 17.0354C35.7664 17.0354 34.29 18.5118 34.29 20.333C34.29 22.1542 35.7664 23.6306 37.5876 23.6306C39.4089 23.6306 40.8852 22.1542 40.8852 20.333C40.8852 18.5118 39.4089 17.0354 37.5876 17.0354ZM32.2979 20.333C32.2979 17.4115 34.6662 15.0432 37.5876 15.0432C40.5091 15.0432 42.8774 17.4115 42.8774 20.333C42.8774 23.2545 40.5091 25.6228 37.5876 25.6228C34.6662 25.6228 32.2979 23.2545 32.2979 20.333Z" fill="black" style="fill:black;fill-opacity:1;"/>
<path fill-rule="evenodd" clip-rule="evenodd" d="M9.27734 46.8899C9.27734 43.7913 11.7897 41.2786 14.8873 41.2786C17.5433 41.2786 19.7686 43.1243 20.3504 45.6029H54.3847C54.9349 45.6029 55.3808 46.0489 55.3808 46.599C55.3808 47.1492 54.9349 47.5951 54.3847 47.5951H20.4987V50.5608C20.4987 51.111 20.0527 51.5569 19.5026 51.5569C18.9524 51.5569 18.5065 51.111 18.5065 50.5608V46.8899C18.5065 44.8913 16.8859 43.2708 14.8873 43.2708C12.8903 43.2708 11.2695 44.8912 11.2695 46.8899V50.5608C11.2695 51.111 10.8236 51.5569 10.2734 51.5569C9.72331 51.5569 9.27734 51.111 9.27734 50.5608V46.8899ZM22.6885 51.2475C22.6885 50.6973 23.1344 50.2514 23.6846 50.2514H54.3847C54.9349 50.2514 55.3808 50.6973 55.3808 51.2475C55.3808 51.7976 54.9349 52.2436 54.3847 52.2436H23.6846C23.1344 52.2436 22.6885 51.7976 22.6885 51.2475ZM22.9914 55.8959C22.9914 55.3458 23.4374 54.8998 23.9875 54.8998H54.3847C54.9349 54.8998 55.3808 55.3458 55.3808 55.8959C55.3808 56.446 54.9349 56.892 54.3847 56.892H23.9875C23.4374 56.892 22.9914 56.446 22.9914 55.8959ZM22.9914 60.5443C22.9914 59.9942 23.4374 59.5483 23.9875 59.5483H54.3847C54.9349 59.5483 55.3808 59.9942 55.3808 60.5443C55.3808 61.0945 54.9349 61.5404 54.3847 61.5404H23.9875C23.4374 61.5404 22.9914 61.0945 22.9914 60.5443ZM23.0378 65.1928C23.0378 64.6427 23.4837 64.1967 24.0339 64.1967H54.3847C54.9349 64.1967 55.3808 64.6427 55.3808 65.1928C55.3808 65.7429 54.9349 66.1889 54.3847 66.1889H24.0339C23.4837 66.1889 23.0378 65.7429 23.0378 65.1928Z" fill="black" style="fill:black;fill-opacity:1;"/>
<path fill-rule="evenodd" clip-rule="evenodd" d="M7.42287 51.5564C7.07015 51.5564 6.78418 51.8424 6.78418 52.1951V64.9602C6.78418 65.313 7.07015 65.5989 7.42287 65.5989H22.3527C22.7055 65.5989 22.9914 65.313 22.9914 64.9602V52.1951C22.9914 51.8424 22.7055 51.5564 22.3527 51.5564H7.42287ZM4.79199 52.1951C4.79199 50.7421 5.96989 49.5642 7.42287 49.5642H22.3527C23.8057 49.5642 24.9836 50.7421 24.9836 52.1951V64.9602C24.9836 66.4132 23.8057 67.5911 22.3527 67.5911H7.42287C5.96989 67.5911 4.79199 66.4132 4.79199 64.9602V52.1951Z" fill="black" style="fill:black;fill-opacity:1;"/>
<path fill-rule="evenodd" clip-rule="evenodd" d="M16.4068 6.15771C16.0772 6.15771 15.8091 6.42549 15.8091 6.75537V50.5604C15.8091 51.1105 15.3632 51.5565 14.813 51.5565C14.2629 51.5565 13.8169 51.1105 13.8169 50.5604V6.75537C13.8169 5.32416 14.978 4.16553 16.4068 4.16553H35.2635C35.8136 4.16553 36.2596 4.61149 36.2596 5.16162C36.2596 5.71175 35.8136 6.15771 35.2635 6.15771H16.4068ZM60.3611 4.16553C60.9112 4.16553 61.3572 4.61149 61.3572 5.16162V70.1733H64.6177C64.9481 70.1733 65.2154 69.9061 65.2154 69.5757V34.7164C65.2154 34.1663 65.6613 33.7203 66.2115 33.7203C66.7616 33.7203 67.2076 34.1663 67.2076 34.7164V69.5757C67.2076 71.0064 66.0484 72.1655 64.6177 72.1655H16.4068C14.978 72.1655 13.8169 71.0069 13.8169 69.5757V66.5954C13.8169 66.0452 14.2629 65.5993 14.813 65.5993C15.3632 65.5993 15.8091 66.0452 15.8091 66.5954V69.5757C15.8091 69.9056 16.0772 70.1733 16.4068 70.1733H59.365V5.16162C59.365 4.61149 59.8109 4.16553 60.3611 4.16553ZM14.5234 53.4357C16.4925 53.2207 18.1629 54.761 18.1634 56.6905C18.1641 57.3783 17.947 58.0483 17.5441 58.6046V61.0835C17.5441 62.5506 16.3549 63.7398 14.8878 63.7398C13.4207 63.7398 12.2316 62.5506 12.2316 61.0835V58.6046C11.7588 57.9503 11.5209 57.1138 11.6448 56.2267C11.8505 54.7559 13.0494 53.5965 14.5234 53.4357ZM16.1712 56.6913C16.1712 55.9346 15.5176 55.3312 14.7396 55.4161C14.1702 55.4782 13.6969 55.9373 13.6178 56.5024M13.6178 56.5024C13.5671 56.8657 13.6654 57.1951 13.8575 57.453L13.8577 57.4533C14.0726 57.7421 14.2237 58.1149 14.2237 58.5347V61.0835C14.2237 61.4503 14.521 61.7476 14.8878 61.7476C15.2546 61.7476 15.5519 61.4503 15.5519 61.0835V58.538C15.5519 58.1207 15.7 57.7461 15.9182 57.4529L15.9194 57.4512C16.0832 57.2322 16.1715 56.9659 16.1712 56.6924L16.1712 56.6913" fill="black" style="fill:black;fill-opacity:1;"/>
</g>
<defs>
<clipPath id="clip0_4615_5895">
<rect width="68" height="68" fill="white" style="fill:white;fill-opacity:1;" transform="translate(2 4.16553)"/>
</clipPath>
</defs>
</svg>
