<svg width="366" height="193" viewBox="0 0 366 193" fill="none" xmlns="http://www.w3.org/2000/svg">
<g clip-path="url(#clip0_2831_16612)">
<path opacity="0.08" d="M251.349 164.871C288.145 128.076 288.145 68.4189 251.349 31.6237C214.554 -5.17146 154.897 -5.17146 118.102 31.6237C81.3071 68.4189 81.3071 128.075 118.102 164.871C154.897 201.666 214.554 201.666 251.349 164.871Z" fill="#5A045A"/>
<path opacity="0.08" d="M239.602 153.124C269.91 122.817 269.91 73.6782 239.602 43.3705C209.294 13.0627 160.156 13.0627 129.848 43.3705C99.5402 73.6782 99.5403 122.817 129.848 153.124C160.156 183.432 209.294 183.432 239.602 153.124Z" fill="#5A045A"/>
<path d="M56.5887 127.327C39.5387 127.327 32.7188 120.507 32.7188 105.557V59.5569C32.7188 56.2769 34.1588 54.8369 37.4388 54.8369H57.7687C61.0387 54.8369 62.4888 56.2769 62.4888 59.5569V95.4269C62.4888 98.1769 64.0587 99.8769 66.5487 99.8769H78.7488V59.5369C78.7488 56.2569 80.1888 54.8169 83.4688 54.8169H103.659C106.939 54.8169 108.379 56.2569 108.379 59.5369V144.537C108.379 147.807 106.939 149.257 103.659 149.257H83.4688C80.1888 149.257 78.7488 147.807 78.7488 144.537V127.327H56.5887Z" fill="#920792"/>
<path d="M292.139 127.327C275.139 127.327 268.279 120.507 268.279 105.557V59.5569C268.279 56.2769 269.719 54.8369 272.999 54.8369H293.299C296.579 54.8369 298.019 56.2769 298.019 59.5569V95.4269C298.019 98.1769 299.599 99.8769 302.089 99.8769H314.299V59.5369C314.299 56.2569 315.749 54.8169 319.019 54.8169H339.219C342.489 54.8169 343.939 56.2569 343.939 59.5369V144.537C343.939 147.807 342.489 149.257 339.219 149.257H319.019C315.749 149.257 314.299 147.807 314.299 144.537V127.327H292.139Z" fill="#920792"/>
<path fill-rule="evenodd" clip-rule="evenodd" d="M222.16 51.007C251.95 19.507 273.53 -1.29304 275.3 0.306958C277.72 2.52696 240.82 47.357 192.81 100.477C144.8 153.597 103.88 194.817 101.42 192.597C99.7509 191.087 116.28 169.877 142.11 139.787C131.888 128.803 126.152 114.388 126.034 99.3835C125.916 84.3792 131.423 69.8751 141.471 58.7315C151.519 47.5878 165.378 40.6133 180.314 39.1834C195.251 37.7535 210.181 41.972 222.16 51.007ZM154.47 149.967C167.4 136.707 181.96 121.207 197.13 104.427C210.47 89.657 222.87 75.477 233.76 62.637C242.218 73.7924 246.509 87.5545 245.89 101.54C245.272 115.526 239.782 128.856 230.371 139.22C220.96 149.585 208.222 156.333 194.36 158.296C180.499 160.258 166.388 157.312 154.47 149.967Z" fill="#5a045a"/>
<path d="M191.76 51.8271C193.52 56.5971 188.4 62.8272 180.32 65.8272C172.24 68.8272 164.3 67.4271 162.49 62.6571C160.68 57.8871 165.85 51.6571 173.93 48.6571C182.01 45.6571 190 47.0571 191.76 51.8271Z" fill="white"/>
<path d="M150.72 75.247C153.371 75.247 155.52 73.0979 155.52 70.447C155.52 67.796 153.371 65.647 150.72 65.647C148.069 65.647 145.92 67.796 145.92 70.447C145.92 73.0979 148.069 75.247 150.72 75.247Z" fill="white"/>
<path d="M233.939 86.8469C235.265 86.8469 236.339 85.7724 236.339 84.4469C236.339 83.1214 235.265 82.0469 233.939 82.0469C232.614 82.0469 231.539 83.1214 231.539 84.4469C231.539 85.7724 232.614 86.8469 233.939 86.8469Z" fill="white"/>
<path d="M249.541 169.957C249.541 170.61 249.348 171.248 248.985 171.79C248.623 172.333 248.107 172.756 247.504 173.006C246.901 173.256 246.238 173.321 245.598 173.194C244.957 173.066 244.369 172.752 243.908 172.29C243.446 171.829 243.132 171.241 243.005 170.601C242.878 169.961 242.943 169.297 243.193 168.694C243.442 168.091 243.865 167.576 244.408 167.213C244.951 166.851 245.589 166.657 246.241 166.657C247.117 166.657 247.956 167.005 248.575 167.624C249.194 168.242 249.541 169.082 249.541 169.957Z" fill="#FAD3E3"/>
<path d="M77.9097 41.3169C79.2794 41.3169 80.3897 40.2066 80.3897 38.8369C80.3897 37.4673 79.2794 36.3569 77.9097 36.3569C76.54 36.3569 75.4297 37.4673 75.4297 38.8369C75.4297 40.2066 76.54 41.3169 77.9097 41.3169Z" fill="#FAD3E3"/>
<path d="M365.51 109.577C365.51 109.884 365.419 110.183 365.249 110.438C365.079 110.693 364.837 110.892 364.553 111.009C364.27 111.126 363.958 111.157 363.658 111.097C363.357 111.037 363.081 110.89 362.864 110.673C362.647 110.456 362.5 110.18 362.44 109.879C362.38 109.579 362.411 109.267 362.528 108.984C362.645 108.701 362.844 108.459 363.099 108.288C363.354 108.118 363.654 108.027 363.96 108.027C364.37 108.03 364.763 108.194 365.053 108.484C365.343 108.774 365.508 109.167 365.51 109.577Z" fill="#FAD3E3"/>
<path d="M3.1 92.0471C3.1 92.3537 3.0091 92.6533 2.83878 92.9082C2.66846 93.1631 2.42639 93.3618 2.14316 93.4791C1.85993 93.5964 1.54828 93.6271 1.24761 93.5673C0.94694 93.5075 0.670756 93.3599 0.453985 93.1431C0.237213 92.9263 0.0895907 92.6502 0.0297836 92.3495C-0.0300235 92.0488 0.000671268 91.7372 0.117987 91.4539C0.235303 91.1707 0.433971 90.9286 0.688867 90.7583C0.943763 90.588 1.24344 90.4971 1.55 90.4971C1.75392 90.4958 1.95607 90.535 2.14473 90.6124C2.33338 90.6898 2.50478 90.8039 2.64898 90.9481C2.79317 91.0923 2.9073 91.2637 2.98472 91.4524C3.06214 91.641 3.10133 91.8432 3.1 92.0471Z" fill="#FAD3E3"/>
<path d="M196.68 21.687C196.682 21.994 196.593 22.2946 196.424 22.5508C196.255 22.8071 196.013 23.0073 195.73 23.1261C195.447 23.245 195.135 23.2771 194.834 23.2184C194.532 23.1598 194.255 23.0129 194.038 22.7966C193.82 22.5802 193.671 22.304 193.611 22.0031C193.55 21.7022 193.58 21.39 193.697 21.1062C193.814 20.8224 194.013 20.5797 194.268 20.4089C194.523 20.2382 194.823 20.147 195.13 20.147C195.333 20.1457 195.534 20.1845 195.722 20.2613C195.91 20.3381 196.081 20.4514 196.225 20.5945C196.37 20.7376 196.484 20.9079 196.562 21.0954C196.64 21.2829 196.68 21.4839 196.68 21.687Z" fill="#FAD3E3"/>
<path d="M275.09 26.4873C275.092 26.7942 275.003 27.0949 274.834 27.3511C274.665 27.6073 274.423 27.8075 274.14 27.9264C273.857 28.0452 273.545 28.0774 273.244 28.0187C272.943 27.96 272.666 27.8132 272.448 27.5968C272.23 27.3804 272.081 27.1043 272.021 26.8033C271.96 26.5024 271.99 26.1902 272.107 25.9064C272.224 25.6226 272.423 25.3799 272.678 25.2092C272.933 25.0384 273.233 24.9473 273.54 24.9473C273.743 24.9459 273.945 24.9848 274.133 25.0616C274.321 25.1384 274.492 25.2516 274.636 25.3948C274.78 25.5379 274.894 25.7081 274.972 25.8956C275.05 26.0831 275.09 26.2842 275.09 26.4873Z" fill="#FAD3E3"/>
<path d="M129.62 24.7373C129.618 25.3887 129.423 26.0249 129.06 26.5658C128.697 27.1067 128.182 27.5282 127.58 27.777C126.978 28.0258 126.316 28.0909 125.677 27.964C125.038 27.8372 124.451 27.5241 123.99 27.0642C123.528 26.6043 123.213 26.0181 123.085 25.3796C122.956 24.741 123.019 24.0787 123.266 23.4759C123.513 22.8731 123.933 22.357 124.473 21.9924C125.012 21.6279 125.648 21.4312 126.3 21.4273C126.735 21.4246 127.167 21.5084 127.571 21.6736C127.974 21.8389 128.341 22.0825 128.649 22.3902C128.958 22.698 129.203 23.0639 129.369 23.4667C129.536 23.8695 129.621 24.3014 129.62 24.7373Z" fill="#FCE9CF"/>
<path d="M72.761 170.557C72.761 170.883 72.6642 171.202 72.4829 171.474C72.3016 171.745 72.0439 171.957 71.7424 172.081C71.4409 172.206 71.1091 172.239 70.7891 172.175C70.469 172.112 70.175 171.954 69.9442 171.724C69.7135 171.493 69.5563 171.199 69.4927 170.879C69.429 170.559 69.4617 170.227 69.5866 169.926C69.7114 169.624 69.9229 169.366 70.1943 169.185C70.4656 169.004 70.7846 168.907 71.111 168.907C71.5486 168.907 71.9682 169.081 72.2777 169.39C72.5871 169.7 72.761 170.119 72.761 170.557Z" fill="#FCE9CF"/>
<path d="M165.98 172.807C165.98 173.133 165.883 173.452 165.702 173.724C165.52 173.995 165.263 174.207 164.961 174.331C164.66 174.456 164.328 174.489 164.008 174.425C163.688 174.362 163.394 174.204 163.163 173.974C162.932 173.743 162.775 173.449 162.711 173.129C162.648 172.809 162.68 172.477 162.805 172.176C162.93 171.874 163.142 171.616 163.413 171.435C163.684 171.254 164.003 171.157 164.33 171.157C164.767 171.157 165.187 171.331 165.496 171.64C165.806 171.95 165.98 172.369 165.98 172.807Z" fill="#FCE9CF"/>
<path d="M305.951 174.457C306.862 174.457 307.601 173.718 307.601 172.807C307.601 171.896 306.862 171.157 305.951 171.157C305.04 171.157 304.301 171.896 304.301 172.807C304.301 173.718 305.04 174.457 305.951 174.457Z" fill="#FCE9CF"/>
<path d="M339.999 28.7872C339.999 29.1135 339.902 29.4325 339.721 29.7039C339.54 29.9752 339.282 30.1867 338.981 30.3116C338.679 30.4364 338.347 30.4691 338.027 30.4055C337.707 30.3418 337.413 30.1846 337.182 29.9539C336.952 29.7231 336.795 29.4291 336.731 29.1091C336.667 28.789 336.7 28.4572 336.825 28.1557C336.95 27.8542 337.161 27.5965 337.432 27.4152C337.704 27.2339 338.023 27.1372 338.349 27.1372C338.787 27.1372 339.206 27.311 339.516 27.6204C339.825 27.9299 339.999 28.3496 339.999 28.7872Z" fill="#FCE9CF"/>
</g>
<defs>
<clipPath id="clip0_2831_16612">
<rect width="366" height="193" fill="white"/>
</clipPath>
</defs>
</svg>
