<svg width="78" height="79" viewBox="0 0 78 79" fill="none" xmlns="http://www.w3.org/2000/svg">
<path d="M38.7108 75.7105C58.6788 75.7105 74.866 59.4153 74.866 39.3141C74.866 19.2129 58.6788 2.91768 38.7108 2.91768C18.7429 2.91768 2.55566 19.2129 2.55566 39.3141C2.55566 59.4153 18.7429 75.7105 38.7108 75.7105Z" fill="#FDD39E" style="fill:#FDD39E;fill:color(display-p3 0.9917 0.8290 0.6198);fill-opacity:1;"/>
<path d="M38.7111 78.2835C28.3704 78.2835 18.6501 74.2295 11.3368 66.871C4.02709 59.5089 0 49.7238 0 39.3141C0 28.9044 4.02709 19.1192 11.3368 11.7572C18.6501 4.39865 28.3704 0.344696 38.7111 0.344696C49.0518 0.344696 58.7721 4.39865 66.0854 11.7572C73.3987 19.1192 77.4222 28.9044 77.4222 39.3141C77.4222 49.7238 73.3951 59.5089 66.0854 66.871C58.7721 74.2331 49.0518 78.2835 38.7111 78.2835ZM38.7111 1.2654C17.8702 1.2654 0.914603 18.3341 0.914603 39.3141C0.914603 60.294 17.8702 77.3628 38.7111 77.3628C59.552 77.3628 76.5076 60.294 76.5076 39.3141C76.5076 18.3341 59.552 1.2654 38.7111 1.2654Z" fill="#FDD39E" style="fill:#FDD39E;fill:color(display-p3 0.9917 0.8290 0.6198);fill-opacity:1;"/>
<path d="M72.374 39.3141C72.374 39.9957 71.899 40.6595 71.8564 41.3339C71.8139 42.0084 72.2109 42.7328 72.1294 43.4002C72.0478 44.0782 71.4984 44.6777 71.3778 45.3415C71.2573 46.0053 71.5622 46.7689 71.4027 47.4256C71.2431 48.0822 70.6228 48.6175 70.4207 49.2599C70.2186 49.9022 70.4313 50.7016 70.1938 51.3332C69.9528 51.9684 69.2757 52.4181 68.9992 53.0355C68.7227 53.6528 68.8361 54.4665 68.5241 55.066C68.2122 55.6655 67.4819 56.0331 67.1345 56.6112C66.7871 57.1893 66.8013 58.0101 66.4184 58.5668C66.0356 59.1235 65.2663 59.3983 64.8516 59.93C64.4368 60.4653 64.3553 61.279 63.9086 61.7857C63.4619 62.2925 62.6678 62.4709 62.1928 62.9527C61.7178 63.4344 61.5405 64.2302 61.0336 64.6799C60.5267 65.1295 59.722 65.2116 59.1902 65.6291C58.662 66.0467 58.3891 66.8211 57.836 67.2065C57.283 67.5919 56.4677 67.574 55.8934 67.9273C55.3191 68.2771 54.9575 69.0122 54.3584 69.3262C53.7629 69.6403 52.9582 69.5261 52.3413 69.8044C51.7281 70.0828 51.2814 70.768 50.6504 71.0071C50.0194 71.2462 49.2359 71.0356 48.5908 71.2354C47.9491 71.4353 47.4245 72.0598 46.7686 72.224C46.1128 72.3881 45.3648 72.0776 44.6984 72.199C44.039 72.3203 43.4399 72.877 42.7699 72.9555C42.1035 73.0376 41.3945 72.6379 40.7174 72.6807C40.0403 72.7236 39.388 73.2018 38.7109 73.2018C38.0338 73.2018 37.3745 72.7236 36.7045 72.6807C36.0345 72.6379 35.3148 73.0376 34.6519 72.9555C33.9784 72.8734 33.3828 72.3203 32.7235 72.199C32.057 72.0776 31.3055 72.3845 30.6532 72.224C29.9974 72.0634 29.4692 71.4389 28.8311 71.2354C28.1859 71.032 27.3989 71.2462 26.7714 71.0071C26.1404 70.7644 25.6938 70.0828 25.0805 69.8044C24.4637 69.5261 23.659 69.6403 23.0634 69.3262C22.4679 69.0122 22.1027 68.2771 21.5284 67.9273C20.9541 67.5776 20.1388 67.5919 19.5858 67.2065C19.0328 66.8211 18.7598 66.0467 18.2316 65.6291C17.7034 65.2116 16.8916 65.1295 16.3882 64.6799C15.8848 64.2302 15.7076 63.4309 15.229 62.9527C14.7504 62.4745 13.9599 62.296 13.5132 61.7857C13.0666 61.279 12.985 60.4653 12.5703 59.93C12.1555 59.3947 11.3863 59.1235 11.0034 58.5668C10.6206 58.0101 10.6383 57.1893 10.2873 56.6112C9.93637 56.0331 9.20965 55.6691 8.89769 55.066C8.58574 54.4665 8.69917 53.6564 8.42267 53.0355C8.14616 52.4181 7.46552 51.9684 7.22801 51.3332C6.9905 50.7016 7.19965 49.9093 7.00113 49.2599C6.80261 48.6104 6.18224 48.0858 6.01917 47.4256C5.85611 46.7654 6.16452 46.0124 6.04399 45.3415C5.92346 44.6777 5.37044 44.0746 5.29245 43.4002C5.21092 42.7293 5.60796 42.0155 5.56542 41.3339C5.52642 40.663 5.04785 39.9957 5.04785 39.3141C5.04785 38.6325 5.52288 37.9687 5.56542 37.2943C5.60796 36.6198 5.21092 35.8953 5.29245 35.228C5.37399 34.55 5.92346 33.9504 6.04399 33.2867C6.16452 32.6158 5.85965 31.8592 6.01917 31.2026C6.1787 30.5424 6.79907 30.0107 7.00113 29.3683C7.2032 28.7188 6.9905 27.9266 7.22801 27.295C7.46907 26.6597 8.14616 26.2101 8.42267 25.5927C8.69917 24.9718 8.58574 24.1617 8.89769 23.5622C9.2132 22.9626 9.93992 22.5951 10.2873 22.017C10.6347 21.4388 10.6206 20.6181 11.0034 20.0614C11.3863 19.5047 12.1555 19.2299 12.5703 18.6981C12.985 18.1628 13.0666 17.3492 13.5132 16.8425C13.9599 16.3357 14.754 16.1573 15.229 15.6755C15.704 15.1938 15.8813 14.3979 16.3882 13.9483C16.8952 13.4987 17.6999 13.4166 18.2316 12.999C18.7634 12.5815 19.0328 11.8071 19.5858 11.4217C20.1388 11.0363 20.9541 11.0541 21.5284 10.7009C22.1027 10.3476 22.4643 9.61599 23.0634 9.30195C23.659 8.98791 24.4637 9.10211 25.0805 8.82375C25.6938 8.5454 26.1404 7.86022 26.7714 7.62113C27.4025 7.38203 28.1859 7.59258 28.8311 7.39273C29.4727 7.19289 29.9974 6.56838 30.6532 6.40423C31.309 6.24007 32.057 6.55054 32.7235 6.42921C33.3828 6.30787 33.9819 5.75117 34.6519 5.67266C35.3184 5.59058 36.0274 5.99027 36.7045 5.94744C37.3816 5.90462 38.0338 5.42642 38.7109 5.42642C39.388 5.42642 40.0474 5.90462 40.7174 5.94744C41.3945 5.9867 42.107 5.59058 42.7699 5.67266C43.4435 5.75474 44.039 6.30787 44.6984 6.42921C45.3577 6.55054 46.1164 6.24364 46.7686 6.40423C47.4209 6.56481 47.9527 7.18932 48.5908 7.39273C49.2359 7.59615 50.0229 7.38203 50.6504 7.62113C51.2778 7.86022 51.7281 8.5454 52.3413 8.82375C52.9546 9.10211 53.7629 8.98791 54.3584 9.30195C54.954 9.61599 55.3191 10.3511 55.8934 10.7009C56.4712 11.0541 57.283 11.0363 57.836 11.4217C58.3891 11.8071 58.662 12.5815 59.1902 12.999C59.722 13.4166 60.5302 13.4987 61.0336 13.9483C61.537 14.3979 61.7143 15.1973 62.1928 15.6755C62.6714 16.1537 63.4619 16.3321 63.9086 16.8425C64.3553 17.3528 64.4368 18.1628 64.8516 18.6981C65.2663 19.2299 66.0356 19.5047 66.4184 20.0614C66.8013 20.6181 66.7836 21.4388 67.1345 22.017C67.4819 22.5951 68.2122 22.9591 68.5241 23.5622C68.8361 24.1617 68.7227 24.9718 68.9992 25.5927C69.2757 26.2137 69.9563 26.6597 70.1938 27.295C70.4313 27.9302 70.2222 28.7188 70.4207 29.3683C70.6192 30.0178 71.2396 30.5424 71.4027 31.2026C71.5622 31.8592 71.2573 32.6158 71.3778 33.2867C71.4984 33.9504 72.0514 34.5535 72.1294 35.228C72.2109 35.8989 71.8139 36.6126 71.8564 37.2943C71.8954 37.9652 72.374 38.6325 72.374 39.3141Z" fill="#FDD39E" style="fill:#FDD39E;fill:color(display-p3 0.9917 0.8290 0.6198);fill-opacity:1;"/>
<path d="M38.7112 73.4337C38.3142 73.4337 37.942 73.2945 37.5768 73.1554C37.2684 73.0376 36.9742 72.9305 36.6906 72.9127C36.3999 72.8949 36.0951 72.9698 35.7689 73.0483C35.3967 73.1375 35.0103 73.2339 34.6239 73.1875C34.2304 73.1411 33.8759 72.9555 33.532 72.7771C33.2378 72.6236 32.9613 72.4809 32.6812 72.4274C32.3976 72.3738 32.0821 72.4131 31.7525 72.4523C31.3696 72.4987 30.9761 72.5451 30.5968 72.4523C30.2139 72.356 29.8843 72.1312 29.5652 71.9099C29.2922 71.7208 29.0335 71.5459 28.7605 71.4603C28.484 71.3746 28.172 71.371 27.8388 71.371C27.4524 71.371 27.0554 71.3675 26.6902 71.2283C26.3216 71.0891 26.0202 70.8215 25.7295 70.5645C25.4814 70.3433 25.2474 70.1363 24.9851 70.0185C24.7228 69.9008 24.4108 69.8579 24.0811 69.8187C23.6983 69.7687 23.3048 69.7188 22.9574 69.5368C22.61 69.3512 22.3441 69.0514 22.0853 68.7624C21.8655 68.5126 21.6564 68.277 21.4118 68.1307C21.1636 67.9809 20.8623 67.9023 20.5397 67.8203C20.1675 67.7239 19.7811 67.6276 19.4585 67.4027C19.1359 67.1779 18.9055 66.8496 18.6857 66.5284C18.4978 66.2536 18.317 65.9967 18.0901 65.8183C17.8632 65.6398 17.5726 65.5256 17.2606 65.4043C16.9026 65.2651 16.5303 65.1188 16.2361 64.8583C15.9419 64.5942 15.754 64.2409 15.5732 63.8983C15.4172 63.6021 15.2719 63.3238 15.0663 63.1204C14.8607 62.917 14.5877 62.7671 14.2935 62.6101C13.9531 62.4281 13.6022 62.2389 13.3399 61.9427C13.0811 61.6465 12.9357 61.2718 12.7975 60.9114C12.677 60.6009 12.5635 60.3047 12.3863 60.0763C12.209 59.848 11.9502 59.6695 11.6808 59.4768C11.3653 59.2556 11.0356 59.0272 10.8123 58.6989C10.589 58.3741 10.4897 57.9851 10.3975 57.6104C10.316 57.2857 10.238 56.9788 10.0891 56.7325C9.94023 56.4863 9.70626 56.2758 9.46166 56.0545C9.17452 55.794 8.87674 55.5263 8.6924 55.1766C8.51161 54.8269 8.45843 54.4308 8.41235 54.0454C8.36981 53.7135 8.33081 53.3994 8.21383 53.1354C8.09684 52.8713 7.89124 52.6358 7.67145 52.386C7.41621 52.0933 7.15388 51.79 7.01208 51.4189C6.87383 51.0513 6.87028 50.6516 6.87028 50.2626C6.87028 49.9272 6.87028 49.6131 6.78166 49.3348C6.69658 49.06 6.51933 48.7995 6.33499 48.5247C6.11875 48.2035 5.89187 47.8717 5.79616 47.4862C5.70399 47.1044 5.75007 46.7083 5.79616 46.3229C5.83515 45.991 5.8706 45.6769 5.82097 45.3879C5.77134 45.106 5.626 44.8276 5.47356 44.5314C5.29632 44.1853 5.11198 43.8284 5.06589 43.4323C5.01981 43.0433 5.11198 42.6543 5.20415 42.2796C5.28214 41.9549 5.35658 41.6444 5.33886 41.3518C5.32113 41.0663 5.21124 40.7701 5.0978 40.4596C4.96309 40.0956 4.82129 39.7173 4.82129 39.3177C4.82129 38.918 4.95954 38.5433 5.0978 38.1757C5.21478 37.8652 5.32113 37.569 5.33886 37.2835C5.35658 36.9909 5.28214 36.684 5.20415 36.3557C5.11552 35.981 5.01981 35.592 5.06589 35.203C5.11198 34.8069 5.29632 34.4501 5.47356 34.1039C5.626 33.8077 5.7678 33.5293 5.82097 33.2474C5.87415 32.9619 5.83515 32.6443 5.79616 32.3124C5.75007 31.927 5.70399 31.5309 5.79616 31.1491C5.89187 30.7637 6.1152 30.4318 6.33499 30.1106C6.52288 29.8358 6.69658 29.5753 6.78166 29.3005C6.86674 29.0222 6.87028 28.7046 6.87028 28.3727C6.87028 27.9837 6.87383 27.584 7.01208 27.2164C7.15034 26.8453 7.41621 26.542 7.67145 26.2493C7.89124 25.9995 8.09684 25.764 8.21383 25.4999C8.33081 25.2359 8.37335 24.9218 8.41235 24.5899C8.46198 24.2045 8.51161 23.8084 8.6924 23.4587C8.87674 23.109 9.17452 22.8413 9.46166 22.5808C9.70981 22.3595 9.94378 22.149 10.0891 21.9028C10.238 21.653 10.316 21.3496 10.3975 21.0249C10.4932 20.6502 10.589 20.2612 10.8123 19.9365C11.0356 19.6117 11.3618 19.3797 11.6808 19.1585C11.9538 18.9694 12.209 18.7874 12.3863 18.559C12.5635 18.3306 12.677 18.0379 12.7975 17.7239C12.9357 17.3635 13.0811 16.9888 13.3399 16.6926C13.6022 16.3964 13.9531 16.2072 14.2935 16.0252C14.5877 15.8682 14.8642 15.7219 15.0663 15.5149C15.2683 15.3115 15.4172 15.0332 15.5732 14.737C15.754 14.3944 15.9419 14.0411 16.2361 13.777C16.5303 13.5165 16.9026 13.3702 17.2606 13.231C17.569 13.1097 17.8632 12.9955 18.0901 12.817C18.317 12.6386 18.4943 12.3781 18.6857 12.1069C18.9055 11.7893 19.1323 11.4574 19.4585 11.2326C19.7811 11.0078 20.1675 10.9114 20.5397 10.815C20.8623 10.733 21.1672 10.6545 21.4118 10.5046C21.6564 10.3547 21.8655 10.1192 22.0853 9.87293C22.3441 9.58387 22.61 9.28411 22.9574 9.09854C23.3048 8.91654 23.6983 8.86301 24.0811 8.81662C24.4108 8.77379 24.7228 8.73454 24.9851 8.61677C25.2474 8.49901 25.4814 8.29203 25.7295 8.07077C26.0202 7.81383 26.3216 7.54975 26.6902 7.40701C27.0554 7.26783 27.4524 7.26426 27.8388 7.26426C28.172 7.26426 28.484 7.26426 28.7605 7.17505C29.0335 7.0894 29.2922 6.91097 29.5652 6.7254C29.8843 6.50772 30.2139 6.27932 30.5968 6.18297C30.9761 6.09019 31.3731 6.13658 31.7525 6.18297C32.0821 6.22223 32.3941 6.25791 32.6812 6.20795C32.9613 6.15799 33.2378 6.01168 33.532 5.85823C33.8759 5.67979 34.2304 5.49423 34.6239 5.44783C35.0103 5.40144 35.3967 5.49423 35.7689 5.58701C36.0915 5.66552 36.3999 5.74046 36.6906 5.72262C36.9742 5.70478 37.2684 5.59415 37.5768 5.47995C37.9384 5.34434 38.3142 5.2016 38.7112 5.2016C39.1083 5.2016 39.4805 5.34078 39.8456 5.47995C40.154 5.59772 40.4483 5.70478 40.7319 5.72262C41.0226 5.74046 41.3274 5.66552 41.6536 5.58701C42.0258 5.49423 42.4122 5.40144 42.7986 5.44783C43.1921 5.49423 43.5466 5.67979 43.8904 5.85823C44.1847 6.01168 44.4612 6.15442 44.7412 6.20795C45.0248 6.26148 45.3368 6.22223 45.67 6.18297C46.0529 6.13658 46.4464 6.09019 46.8257 6.18297C47.2085 6.27932 47.5382 6.50415 47.8573 6.7254C48.1302 6.91454 48.389 7.0894 48.662 7.17505C48.9385 7.2607 49.254 7.26426 49.5837 7.26426C49.9701 7.26426 50.3671 7.26783 50.7322 7.40701C51.1009 7.54619 51.4022 7.81383 51.6929 8.07077C51.9411 8.29203 52.175 8.49901 52.4374 8.61677C52.6997 8.73454 53.0117 8.77736 53.3413 8.81662C53.7242 8.86658 54.1177 8.91654 54.4651 9.09854C54.8125 9.28411 55.0784 9.58387 55.3372 9.87293C55.557 10.1227 55.7661 10.3583 56.0107 10.5046C56.2589 10.6545 56.5602 10.733 56.8828 10.815C57.255 10.9114 57.6414 11.0078 57.964 11.2326C58.2866 11.4574 58.517 11.7857 58.7368 12.1069C58.9247 12.3817 59.1055 12.6386 59.3324 12.817C59.5592 12.9955 59.8499 13.1097 60.1619 13.231C60.5199 13.3702 60.8921 13.5165 61.1864 13.777C61.4806 14.0411 61.6685 14.3944 61.8493 14.737C62.0053 15.0332 62.1506 15.3115 62.3562 15.5149C62.5583 15.7183 62.8348 15.8682 63.129 16.0252C63.4693 16.2072 63.8203 16.3964 64.0826 16.6926C64.3414 16.9888 64.4867 17.3635 64.625 17.7239C64.7455 18.0344 64.859 18.3306 65.0362 18.559C65.2135 18.7874 65.4722 18.9658 65.7417 19.1585C66.0572 19.3797 66.3868 19.6081 66.6102 19.9365C66.8335 20.2612 66.9292 20.6502 67.0249 21.0249C67.1065 21.3496 67.1845 21.6565 67.3334 21.9028C67.4822 22.149 67.7162 22.3595 67.9608 22.5808C68.248 22.8413 68.5457 23.109 68.7301 23.4587C68.9109 23.8084 68.964 24.2045 69.0101 24.5899C69.0527 24.9218 69.0917 25.2359 69.2086 25.4999C69.3256 25.764 69.5312 25.9995 69.751 26.2493C70.0063 26.542 70.2686 26.8453 70.4104 27.2164C70.5486 27.584 70.5522 27.9873 70.5522 28.3727C70.5522 28.7081 70.5522 29.0222 70.6408 29.3005C70.7259 29.5753 70.9031 29.8358 71.0875 30.1106C71.3037 30.4318 71.5306 30.7637 71.6263 31.1526C71.7185 31.5345 71.6724 31.9306 71.6263 32.316C71.5873 32.6479 71.5519 32.9619 71.6015 33.251C71.6511 33.5329 71.7965 33.8113 71.9489 34.1075C72.1262 34.4536 72.3105 34.8105 72.3566 35.2066C72.4027 35.5956 72.3105 35.9846 72.2183 36.3593C72.1403 36.684 72.0659 36.9945 72.0836 37.2871C72.1013 37.5726 72.2112 37.8688 72.3247 38.1793C72.4594 38.5433 72.6012 38.9215 72.6012 39.3212C72.6012 39.7209 72.4629 40.0956 72.3247 40.4632C72.2077 40.7737 72.1013 41.0698 72.0836 41.3553C72.0659 41.648 72.1403 41.9549 72.2183 42.2832C72.307 42.6579 72.4027 43.0469 72.3566 43.4358C72.3105 43.832 72.1262 44.1888 71.9489 44.535C71.7965 44.8312 71.6547 45.1095 71.6015 45.3915C71.5483 45.6769 71.5873 45.9946 71.6263 46.3264C71.6724 46.7118 71.7185 47.108 71.6263 47.4898C71.5306 47.8752 71.3073 48.2071 71.0875 48.5318C70.8996 48.8066 70.7259 49.0671 70.6408 49.3419C70.5557 49.6203 70.5522 49.9343 70.5522 50.2698C70.5522 50.6587 70.5486 51.0584 70.4104 51.426C70.2721 51.7971 70.0063 52.1005 69.751 52.3931C69.5312 52.6429 69.3256 52.8784 69.2086 53.1425C69.0917 53.4066 69.0491 53.7206 69.0101 54.0525C68.9605 54.4379 68.9109 54.834 68.7301 55.1838C68.5457 55.5335 68.248 55.8011 67.9608 56.0616C67.7127 56.2829 67.4787 56.4934 67.3334 56.7397C67.1845 56.9895 67.1065 57.2928 67.0249 57.6176C66.9292 57.9923 66.8335 58.3812 66.6102 58.706C66.3868 59.0307 66.0607 59.2627 65.7417 59.484C65.4687 59.6731 65.2135 59.8551 65.0362 60.0835C64.859 60.3119 64.7455 60.6045 64.625 60.9185C64.4867 61.279 64.3414 61.6537 64.0826 61.9499C63.8203 62.2461 63.4693 62.4352 63.129 62.6172C62.8348 62.7742 62.5583 62.9205 62.3562 63.1275C62.1541 63.3309 62.0053 63.6093 61.8493 63.9055C61.6685 64.2481 61.4806 64.6014 61.1864 64.8654C60.8921 65.1295 60.5199 65.2723 60.1619 65.4114C59.8535 65.5328 59.5592 65.647 59.3324 65.8254C59.1055 66.0038 58.9282 66.2643 58.7368 66.5356C58.517 66.8532 58.2901 67.185 57.964 67.4099C57.6414 67.6347 57.255 67.7346 56.8828 67.8274C56.5602 67.9095 56.2553 67.988 56.0107 68.1379C55.7661 68.2878 55.557 68.5233 55.3372 68.7695C55.0784 69.0586 54.8125 69.3583 54.4651 69.5439C54.1177 69.7259 53.7242 69.7794 53.3413 69.8258C53.0117 69.8687 52.6997 69.9079 52.4374 70.0257C52.175 70.1434 51.9411 70.3504 51.6929 70.5717C51.4022 70.8286 51.1009 71.0927 50.7322 71.2354C50.3671 71.3746 49.9665 71.3782 49.5837 71.3782C49.2504 71.3782 48.9385 71.3782 48.662 71.4674C48.389 71.553 48.1302 71.7315 47.8573 71.917C47.5382 72.1347 47.2085 72.3631 46.8221 72.4595C46.4428 72.5523 46.0493 72.5059 45.6665 72.4595C45.3368 72.4202 45.0248 72.3845 44.7377 72.4345C44.4576 72.4845 44.1811 72.6308 43.8869 72.7842C43.543 72.9627 43.1885 73.1482 42.7951 73.1946C42.4086 73.241 42.0222 73.1482 41.65 73.0554C41.3274 72.9769 41.019 72.902 40.7283 72.9198C40.4447 72.9377 40.1505 73.0483 39.8421 73.1625C39.4805 73.2981 39.1047 73.4408 38.7077 73.4408L38.7112 73.4337ZM36.6055 72.4488C36.6445 72.4488 36.68 72.4488 36.719 72.4488C37.0699 72.4702 37.4102 72.5987 37.7364 72.72C38.0767 72.8485 38.3957 72.9662 38.7112 72.9662C39.0267 72.9662 39.3458 72.8449 39.6861 72.72C40.0122 72.5987 40.3526 72.4702 40.7035 72.4488C41.0616 72.4274 41.4161 72.513 41.7599 72.5987C42.1073 72.6843 42.4406 72.7628 42.7454 72.7271C43.0574 72.6879 43.3587 72.5308 43.6813 72.3631C43.9933 72.2025 44.3123 72.0348 44.6597 71.9706C45.0107 71.9063 45.3722 71.9492 45.7232 71.9884C46.0812 72.0312 46.418 72.0705 46.7158 71.9956C47.0207 71.9206 47.3007 71.7279 47.602 71.5209C47.8892 71.3211 48.1905 71.1177 48.5273 71.0106C48.8676 70.9036 49.2327 70.9036 49.5837 70.9C49.9453 70.9 50.2856 70.9 50.5727 70.7858C50.8634 70.6752 51.1222 70.4468 51.3916 70.2077C51.6539 69.9757 51.9269 69.7366 52.2495 69.5867C52.5756 69.4404 52.9337 69.394 53.2846 69.3476C53.6427 69.3012 53.9794 69.2584 54.2524 69.1121C54.5289 68.9658 54.7558 68.7089 54.9968 68.4376C55.2308 68.1736 55.4719 67.9023 55.7767 67.7168C56.0816 67.5312 56.4326 67.442 56.7729 67.3563C57.1238 67.2671 57.4535 67.1851 57.7088 67.0066C57.964 66.8282 58.159 66.5463 58.3646 66.2501C58.5666 65.961 58.7722 65.6612 59.0523 65.44C59.3324 65.2187 59.6727 65.0867 59.9988 64.9618C60.3356 64.8298 60.6546 64.7084 60.8851 64.5014C61.119 64.2945 61.2785 63.9911 61.4452 63.67C61.6082 63.3595 61.7784 63.0347 62.0301 62.7814C62.2818 62.528 62.6008 62.3567 62.9128 62.1925C63.2318 62.0212 63.5331 61.8607 63.7388 61.6287C63.9444 61.3967 64.0684 61.0756 64.1961 60.7365C64.3237 60.4082 64.4513 60.0656 64.6746 59.7837C64.8944 59.5018 65.1922 59.2948 65.4793 59.0914C65.7771 58.8844 66.0536 58.6882 66.2309 58.4312C66.4081 58.1743 66.4897 57.8424 66.5783 57.4891C66.6634 57.1465 66.752 56.7932 66.9363 56.4863C67.1207 56.1794 67.3901 55.9367 67.6524 55.7012C67.9218 55.4585 68.1771 55.2302 68.3224 54.9518C68.4677 54.677 68.5103 54.338 68.5564 53.9776C68.6025 53.6278 68.645 53.2638 68.7939 52.9355C68.9392 52.6108 69.1767 52.336 69.4107 52.0719C69.6482 51.7971 69.8751 51.5402 69.985 51.2476C70.0949 50.9585 70.0949 50.6159 70.0984 50.2519C70.0984 49.8986 70.102 49.5311 70.2083 49.1885C70.3147 48.8495 70.5167 48.5461 70.7153 48.2571C70.9209 47.9573 71.1123 47.6718 71.1867 47.3649C71.2612 47.0651 71.2222 46.7226 71.1797 46.3657C71.1371 46.0124 71.0981 45.6484 71.1619 45.2951C71.2257 44.9454 71.3924 44.6206 71.5519 44.3102C71.7185 43.9854 71.8745 43.6821 71.9135 43.368C71.9489 43.0611 71.8709 42.7293 71.7858 42.376C71.7043 42.0298 71.6157 41.6729 71.637 41.3125C71.6582 40.9592 71.7858 40.6166 71.9064 40.2883C72.034 39.9457 72.151 39.6246 72.151 39.3069C72.151 38.9893 72.0304 38.6682 71.9064 38.3256C71.7858 37.9973 71.6582 37.6547 71.637 37.3014C71.6157 36.941 71.7008 36.5841 71.7858 36.2379C71.8709 35.8882 71.9489 35.5563 71.9135 35.2459C71.8745 34.9318 71.7185 34.6285 71.5519 34.3037C71.3924 33.9897 71.2257 33.6685 71.1619 33.3188C71.0981 32.9655 71.1407 32.6015 71.1797 32.2482C71.2222 31.8878 71.2612 31.5488 71.1867 31.249C71.1123 30.9421 70.9209 30.6602 70.7153 30.3568C70.5167 30.0678 70.3147 29.7644 70.2083 29.4254C70.102 29.0828 70.102 28.7153 70.0984 28.362C70.0984 27.998 70.0984 27.6554 69.985 27.3663C69.8751 27.0737 69.6482 26.8132 69.4107 26.542C69.1803 26.2779 68.9392 26.0031 68.7939 25.6784C68.6485 25.3501 68.6025 24.9896 68.5564 24.6363C68.5103 24.2759 68.4677 23.9369 68.3224 23.6621C68.1771 23.3837 67.9218 23.1554 67.6524 22.9127C67.3901 22.6772 67.1207 22.4345 66.9363 22.1276C66.752 21.8207 66.6634 21.4674 66.5783 21.1248C66.4897 20.7715 66.4081 20.4396 66.2309 20.1827C66.0536 19.9257 65.7736 19.7295 65.4793 19.5225C65.1922 19.3191 64.8944 19.1121 64.6746 18.8302C64.4548 18.5483 64.3237 18.2057 64.1996 17.8774C64.0684 17.5383 63.9479 17.2172 63.7423 16.9852C63.5367 16.7497 63.2354 16.5891 62.9163 16.4214C62.6079 16.2572 62.2853 16.0859 62.0336 15.8325C61.7819 15.5792 61.6118 15.258 61.4487 14.9439C61.2785 14.6228 61.119 14.3194 60.8886 14.1125C60.6582 13.9055 60.3391 13.7806 60.0024 13.6521C59.6762 13.5236 59.3359 13.3952 59.0558 13.1739C58.7758 12.9527 58.5702 12.6529 58.3681 12.3638C58.1625 12.0641 57.9675 11.7821 57.7123 11.6073C57.4571 11.4289 57.1274 11.3468 56.7764 11.2576C56.4361 11.1719 56.0852 11.0827 55.7803 10.8971C55.4754 10.7116 55.2344 10.4403 55.0004 10.1763C54.7593 9.90505 54.5325 9.64811 54.256 9.50179C53.983 9.35548 53.6462 9.31266 53.2882 9.26626C52.9408 9.21987 52.5792 9.17705 52.253 9.02717C51.9304 8.88085 51.6575 8.64175 51.3952 8.40622C51.1222 8.16713 50.867 7.93873 50.5763 7.82811C50.2891 7.71748 49.9488 7.71748 49.5872 7.71391C49.2363 7.71391 48.8711 7.71034 48.5308 7.60328C48.194 7.49623 47.8927 7.29281 47.6056 7.09297C47.3078 6.88599 47.0242 6.69328 46.7193 6.61834C46.4216 6.5434 46.0812 6.58266 45.7267 6.62548C45.3758 6.6683 45.0142 6.70756 44.6633 6.64332C44.3158 6.57909 43.9933 6.41136 43.6848 6.25077C43.3622 6.08305 43.0609 5.92603 42.749 5.88678C42.4441 5.85109 42.1144 5.9296 41.7635 6.01525C41.4196 6.09732 41.0686 6.18654 40.7071 6.16513C40.3561 6.14372 40.0158 6.01525 39.6897 5.89391C39.3493 5.76544 39.0303 5.64768 38.7148 5.64768C38.3993 5.64768 38.0802 5.76901 37.7399 5.89391C37.4138 6.01525 37.0735 6.14372 36.7225 6.16513C36.3645 6.18654 36.01 6.10089 35.6661 6.01525C35.3187 5.9296 34.989 5.85109 34.6806 5.88678C34.3686 5.92603 34.0673 6.08305 33.7447 6.25077C33.4328 6.41136 33.1137 6.57909 32.7663 6.64332C32.4154 6.70756 32.0538 6.66474 31.7028 6.62548C31.3448 6.58266 31.008 6.5434 30.7102 6.61834C30.4054 6.69328 30.1253 6.88599 29.824 7.09297C29.5368 7.29281 29.2355 7.49623 28.8988 7.60328C28.5584 7.71034 28.1933 7.71034 27.8424 7.71391C27.4808 7.71391 27.1404 7.71391 26.8533 7.82811C26.5626 7.93873 26.3038 8.16713 26.0344 8.40622C25.7721 8.63819 25.4991 8.87728 25.1765 9.02717C24.8504 9.17348 24.4923 9.21987 24.1414 9.26626C23.7834 9.31266 23.4466 9.35548 23.1736 9.50179C22.8971 9.64811 22.6702 9.90505 22.4292 10.1763C22.1952 10.4403 21.9541 10.7116 21.6493 10.8971C21.3444 11.0827 20.9935 11.1719 20.6531 11.2576C20.3022 11.3468 19.9725 11.4289 19.7173 11.6073C19.462 11.7857 19.2671 12.0676 19.0614 12.3638C18.8594 12.6529 18.6538 12.9527 18.3737 13.1739C18.0937 13.3952 17.7534 13.5272 17.4272 13.6557C17.0904 13.7877 16.7714 13.909 16.541 14.116C16.307 14.323 16.1475 14.6263 15.9809 14.9475C15.8178 15.258 15.6476 15.5827 15.3959 15.8361C15.1443 16.0895 14.8252 16.2608 14.5132 16.4249C14.1942 16.5962 13.8929 16.7568 13.6873 16.9888C13.4817 17.2207 13.3576 17.5419 13.23 17.8809C13.1023 18.2092 12.9747 18.5518 12.7549 18.8337C12.5352 19.1157 12.2374 19.3226 11.9502 19.5261C11.6525 19.733 11.3724 19.9293 11.1987 20.1863C11.0214 20.4432 10.9399 20.7751 10.8513 21.1284C10.7662 21.471 10.6776 21.8243 10.4932 22.1312C10.3089 22.4381 10.0395 22.6807 9.77716 22.9163C9.50774 23.1589 9.25251 23.3873 9.10716 23.6657C8.96182 23.9404 8.91928 24.283 8.87319 24.6399C8.82711 24.9896 8.78457 25.3536 8.63568 25.6819C8.49034 26.0067 8.25282 26.2815 8.01886 26.5455C7.78134 26.8203 7.55446 27.0773 7.44457 27.3699C7.33468 27.659 7.33468 28.0015 7.33113 28.3655C7.33113 28.7188 7.32759 29.0864 7.22124 29.429C7.11489 29.768 6.91282 30.0713 6.71431 30.3604C6.5087 30.6602 6.31727 30.9457 6.24282 31.2526C6.16838 31.5523 6.20737 31.8949 6.24991 32.2518C6.29245 32.6051 6.33499 32.9691 6.26764 33.3224C6.20383 33.6721 6.03721 33.9968 5.87769 34.3073C5.71108 34.632 5.5551 34.939 5.5161 35.2494C5.48065 35.5563 5.55864 35.8882 5.64372 36.2415C5.72526 36.5877 5.81388 36.9445 5.79261 37.305C5.77134 37.6582 5.64372 38.0008 5.52319 38.3291C5.39557 38.6717 5.27859 38.9929 5.27859 39.3105C5.27859 39.6281 5.39912 39.9493 5.52319 40.2919C5.64372 40.6202 5.77134 40.9628 5.79261 41.3161C5.81388 41.6765 5.7288 42.0334 5.64372 42.3795C5.55864 42.7293 5.48065 43.0611 5.5161 43.3716C5.5551 43.6857 5.71108 43.989 5.87769 44.3137C6.03721 44.6278 6.20383 44.9489 6.26764 45.2987C6.33145 45.652 6.28891 46.016 6.24991 46.3693C6.20737 46.7297 6.16838 47.0687 6.24282 47.3685C6.31727 47.6754 6.5087 47.9573 6.71431 48.2606C6.91282 48.5497 7.11489 48.853 7.22124 49.192C7.32759 49.5346 7.32759 49.9022 7.33113 50.2555C7.33113 50.6195 7.33113 50.9621 7.44457 51.2511C7.55446 51.5438 7.78134 51.8043 8.01886 52.0755C8.24928 52.3396 8.48679 52.6144 8.63568 52.9391C8.78103 53.2674 8.82711 53.6278 8.87319 53.9811C8.91928 54.3416 8.96182 54.6806 9.10716 54.9554C9.25251 55.2337 9.50774 55.4621 9.77716 55.7048C10.0395 55.9403 10.3089 56.183 10.4932 56.4899C10.6776 56.7968 10.7662 57.1501 10.8513 57.4927C10.9399 57.846 11.0214 58.1778 11.1987 58.4348C11.3759 58.6917 11.656 58.888 11.9502 59.095C12.2374 59.2984 12.5352 59.5054 12.7549 59.7873C12.9747 60.0692 13.1059 60.4118 13.23 60.7401C13.3611 61.0791 13.4817 61.4003 13.6873 61.6323C13.8929 61.8678 14.1942 62.0284 14.5132 62.1961C14.8217 62.3603 15.1443 62.5316 15.3959 62.7849C15.6476 63.0383 15.8178 63.3595 15.9809 63.6735C16.151 63.9947 16.3105 64.298 16.541 64.505C16.7714 64.712 17.0904 64.8369 17.4272 64.9654C17.7534 65.0938 18.0937 65.2223 18.3737 65.4436C18.6538 65.6648 18.8594 65.9646 19.0614 66.2536C19.2671 66.5534 19.462 66.8353 19.7173 67.0102C19.9725 67.1886 20.3022 67.2707 20.6531 67.3599C20.9935 67.4456 21.3444 67.5348 21.6493 67.7203C21.9541 67.9059 22.1952 68.1771 22.4292 68.4412C22.6702 68.7124 22.8971 68.9694 23.1736 69.1157C23.4466 69.262 23.7869 69.3048 24.1414 69.3512C24.4888 69.3976 24.8504 69.4404 25.1765 69.5903C25.4991 69.7366 25.7721 69.9757 26.0344 70.2112C26.3074 70.4503 26.5626 70.6787 26.8533 70.7894C27.1404 70.9 27.4808 70.9 27.8424 70.9036C28.1933 70.9036 28.5584 70.9071 28.8988 71.0142C29.2355 71.1212 29.5368 71.3247 29.824 71.5245C30.1218 71.7315 30.4054 71.9242 30.7102 71.9991C31.008 72.0741 31.3483 72.0348 31.7028 71.992C32.0538 71.9492 32.4154 71.9099 32.7663 71.9741C33.1137 72.0384 33.4363 72.2061 33.7447 72.3667C34.0673 72.5344 34.3686 72.6914 34.6806 72.7307C34.9855 72.7664 35.3152 72.6879 35.6661 72.6022C35.971 72.5273 36.29 72.4488 36.6091 72.4488H36.6055Z" fill="#C67710" style="fill:#C67710;fill:color(display-p3 0.7750 0.4678 0.0646);fill-opacity:1;"/>
<path d="M11.9257 35.1317L8.01562 41.7943H15.8358L11.9257 35.1317ZM11.9257 36.7768L14.3824 40.9592H9.47261L11.9293 36.7768H11.9257Z" fill="#C67710" style="fill:#C67710;fill:color(display-p3 0.7750 0.4678 0.0646);fill-opacity:1;"/>
<path d="M65.497 42.6293L69.4071 35.9667H61.5869L65.497 42.6293ZM65.497 40.9878L63.0404 36.8053H67.9501L65.4935 40.9878H65.497Z" fill="#C67710" style="fill:#C67710;fill:color(display-p3 0.7750 0.4678 0.0646);fill-opacity:1;"/>
<path d="M42.579 15.4257L40.7214 12.2603H42.4868V11.4253H40.2322L38.6689 8.76308L37.1056 11.4253H34.851V12.2603H36.6164L34.7588 15.4257H42.579ZM38.6689 10.4082L39.268 11.4288H38.0698L38.6689 10.4082ZM39.7572 12.2603L41.122 14.5906H36.2122L37.5806 12.2603H39.7572Z" fill="#C67710" style="fill:#C67710;fill:color(display-p3 0.7750 0.4678 0.0646);fill-opacity:1;"/>
<path d="M34.7842 63.2025L36.3759 65.9146H34.8515V66.7497H36.8651L38.6943 69.8651L40.5235 66.7497H42.4874V65.9146H41.0127L42.6044 63.2025H34.7842ZM38.6943 68.2199L37.8293 66.7461H39.5593L38.6943 68.2199ZM37.3401 65.9146L36.2376 64.0375H41.1474L40.0449 65.9146H37.3366H37.3401Z" fill="#C67710" style="fill:#C67710;fill:color(display-p3 0.7750 0.4678 0.0646);fill-opacity:1;"/>
<path d="M26.886 63.1489C26.4074 63.9804 25.3475 64.2659 24.5215 63.7877C23.6955 63.3059 23.4119 62.2389 23.887 61.4074L24.0961 61.047L21.6784 59.6445L21.2637 60.369L22.9901 61.3717C22.554 62.5315 23.0043 63.8769 24.1067 64.5157C25.2092 65.1545 26.5882 64.8761 27.3681 63.9162L29.0945 64.919L29.5093 64.1945L27.0916 62.7921L26.8825 63.1525L26.886 63.1489Z" fill="#C67710" style="fill:#C67710;fill:color(display-p3 0.7750 0.4678 0.0646);fill-opacity:1;"/>
<path d="M22.3376 58.49L21.9229 59.2132L29.7545 63.765L30.1693 63.0418L22.3376 58.49Z" fill="#C67710" style="fill:#C67710;fill:color(display-p3 0.7750 0.4678 0.0646);fill-opacity:1;"/>
<path d="M14.3082 49.6738L17.4136 50.9621L14.3118 52.7642L13.5638 51.4653L12.8477 51.8828L13.5922 53.1818L12.0146 54.0989L12.4294 54.8198L14.0069 53.9026L14.7549 55.2052L15.471 54.7876L14.7266 53.4851L17.8284 51.6829L17.3817 55.0339L18.2042 55.1445L18.8033 50.6338L14.6237 48.8994L14.3082 49.6738Z" fill="#C67710" style="fill:#C67710;fill:color(display-p3 0.7750 0.4678 0.0646);fill-opacity:1;"/>
<path d="M50.3146 12.1854C50.6514 12.0926 50.9988 12.1426 51.3001 12.3174C51.7007 12.5494 51.9488 12.9848 51.9488 13.4772C51.9488 13.4951 52.0268 15.1402 50.0877 18.8302L50.8073 19.2477C53.0123 15.7112 54.4693 14.9546 54.5083 14.9332C54.9089 14.7013 55.4052 14.7013 55.8058 14.9332C56.1071 15.1081 56.3198 15.39 56.4119 15.7255C56.5006 16.0609 56.4545 16.4142 56.2808 16.7175L57.0004 17.1351C57.284 16.639 57.3585 16.0609 57.2131 15.5078C57.0642 14.9546 56.7133 14.4943 56.2205 14.2088C55.5647 13.827 54.7494 13.827 54.1254 14.191C54.0829 14.2124 53.4164 14.5407 52.3246 15.7647C52.8315 14.2052 52.7819 13.4665 52.7783 13.4415C52.7783 12.6779 52.3707 11.9677 51.7149 11.5894C51.2221 11.3039 50.6478 11.229 50.1019 11.3753C49.5524 11.5252 49.0951 11.8785 48.8115 12.3745L49.5312 12.7921C49.7049 12.4887 49.9849 12.2746 50.3181 12.1818L50.3146 12.1854Z" fill="#C67710" style="fill:#C67710;fill:color(display-p3 0.7750 0.4678 0.0646);fill-opacity:1;"/>
<path d="M58.904 24.879C58.2588 24.3972 57.5179 24.0475 56.7132 23.8477L56.5146 24.6577C57.9291 25.0075 59.1096 25.8961 59.8327 27.1593C60.5559 28.4226 60.7332 29.8929 60.3255 31.3025L61.1231 31.538C61.3571 30.7351 61.4244 29.9143 61.3323 29.1114L65.1289 26.906C65.7741 27.3877 66.5115 27.7375 67.3197 27.9373L67.5182 27.1272C66.1038 26.7775 64.9233 25.8889 64.2002 24.6256C63.477 23.3623 63.2997 21.8921 63.7074 20.4824L62.9098 20.2469C62.6758 21.0499 62.6085 21.8706 62.7006 22.6736L58.904 24.879ZM64.4589 26.3279L61.1657 28.2406C61.0274 27.7232 60.8253 27.22 60.5488 26.7418C60.2759 26.2636 59.9426 25.8354 59.5669 25.4571L62.8602 23.5443C62.9984 24.0618 63.2005 24.565 63.477 25.0431C63.7499 25.5213 64.0832 25.9496 64.4589 26.3279Z" fill="#C67710" style="fill:#C67710;fill:color(display-p3 0.7750 0.4678 0.0646);fill-opacity:1;"/>
<path d="M23.3688 16.0538L22.1209 16.7604L22.5286 17.4884L23.7764 16.7818C24.3224 17.963 24.4145 19.2905 24.0317 20.5574L24.8258 20.8C25.276 19.3119 25.1554 17.756 24.4996 16.3714L26.2615 15.3757C27.0945 16.6604 28.353 17.5704 29.849 17.9594L30.0581 17.1493C28.782 16.8175 27.7078 16.0502 26.9882 14.9653L28.236 14.2588L27.8284 13.5308L26.5805 14.2373C26.0346 13.0561 25.9424 11.7286 26.3253 10.4617L25.5312 10.2191C25.081 11.7072 25.2015 13.2631 25.8573 14.6477L24.0955 15.6434C23.2624 14.3587 22.004 13.4487 20.508 13.0597L20.2988 13.8698C21.575 14.2017 22.6491 14.9689 23.3688 16.0538Z" fill="#C67710" style="fill:#C67710;fill:color(display-p3 0.7750 0.4678 0.0646);fill-opacity:1;"/>
<path d="M62.013 48.9672C61.6195 48.7495 61.1622 48.6924 60.7297 48.8102C60.2795 48.9315 59.9037 49.2206 59.6698 49.6274C59.4358 50.0342 59.3755 50.5089 59.4961 50.9585C59.6166 51.4117 59.9037 51.79 60.3079 52.0255C60.5773 52.1825 60.8751 52.2611 61.1764 52.2611C61.3288 52.2611 61.4813 52.2432 61.6302 52.2004C62.0804 52.0791 62.4561 51.79 62.6901 51.3832C62.8496 51.1048 62.9276 50.7979 62.9241 50.4839C63.6685 51.062 64.5051 51.9791 64.7001 53.2638L65.519 53.1389C65.0971 50.3126 62.2328 49.0564 62.013 48.9636V48.9672ZM61.9705 50.9692C61.7188 51.4082 61.1551 51.5616 60.7191 51.3047C60.5064 51.1833 60.3575 50.9835 60.2937 50.7444C60.2299 50.5053 60.2618 50.2591 60.3859 50.0449C60.556 49.7487 60.8644 49.5846 61.1799 49.5846C61.3359 49.5846 61.4919 49.6238 61.6372 49.7095C61.8499 49.8308 61.9988 50.0307 62.0626 50.2698C62.1264 50.5089 62.0945 50.7551 61.9705 50.9692Z" fill="#C67710" style="fill:#C67710;fill:color(display-p3 0.7750 0.4678 0.0646);fill-opacity:1;"/>
<path d="M63.5441 53.2531C63.14 53.0176 62.6685 52.9569 62.2218 53.0783C61.7716 53.1996 61.3959 53.4887 61.1619 53.8955C61.0024 54.1738 60.9244 54.4807 60.9279 54.7948C60.1835 54.2167 59.3433 53.2995 59.1519 52.0148L58.333 52.1397C58.7619 55.016 61.722 56.2686 61.8496 56.3221C62.1049 56.4613 62.3849 56.5327 62.6685 56.5327C62.8209 56.5327 62.9734 56.5149 63.1223 56.472C63.5725 56.3507 63.9482 56.0616 64.1822 55.6548C64.4162 55.248 64.4764 54.7734 64.3559 54.3237C64.2354 53.8705 63.9482 53.4922 63.5441 53.2567V53.2531ZM63.4626 55.2337C63.2109 55.6727 62.6508 55.8225 62.2112 55.5692C61.9985 55.4478 61.8496 55.248 61.7858 55.0089C61.722 54.7698 61.7539 54.5236 61.878 54.3094C62.0021 54.0953 62.197 53.9419 62.4345 53.8812C62.5125 53.8598 62.5941 53.8491 62.6721 53.8491C62.8316 53.8491 62.9876 53.8919 63.1258 53.974C63.3385 54.0953 63.4874 54.2952 63.5512 54.5343C63.615 54.7734 63.5831 55.0196 63.459 55.2337H63.4626Z" fill="#C67710" style="fill:#C67710;fill:color(display-p3 0.7750 0.4678 0.0646);fill-opacity:1;"/>
<path d="M19.1323 23.0447C18.8948 23.1946 18.753 23.4159 18.6537 23.5907C18.3524 24.1367 18.2177 24.722 18.1219 25.3108C17.7745 25.1895 17.42 24.9968 17.0585 24.7898C16.6153 24.5364 16.1758 24.2616 15.7326 23.9904C15.3179 23.7335 14.9031 23.4801 14.4883 23.2374C13.5383 22.6843 12.3401 22.9805 11.8154 23.8905C11.507 24.4293 11.5035 25.0681 11.7481 25.6106C11.3227 25.6391 10.8583 25.7926 10.4932 26.2172L11.1206 26.7632C11.5886 26.2172 12.4783 26.5134 12.6237 26.5634L16.5125 28.8259L16.9273 28.1015L13.0065 25.8211C12.4535 25.4999 12.2408 24.8183 12.5351 24.3044C12.8293 23.7906 13.5206 23.6335 14.0736 23.9547C14.4813 24.1902 14.8889 24.4436 15.3001 24.697C15.7504 24.9753 16.2006 25.2501 16.6472 25.5106C17.0797 25.7604 17.5299 26.0031 17.9943 26.1423C17.9766 26.2708 17.9553 26.3957 17.9305 26.5206C17.7355 27.584 17.3527 28.5939 16.789 29.5182L17.498 29.9536C18.1113 28.9401 18.5332 27.8374 18.7459 26.674C18.7707 26.542 18.7919 26.4099 18.8132 26.2743C18.9727 26.2743 19.1323 26.2565 19.2918 26.2208C19.9831 26.0638 20.5609 25.5499 20.8019 24.8826C20.9898 24.3651 20.9402 23.8191 20.6708 23.423C20.3234 22.9127 19.6179 22.7378 19.1287 23.0447H19.1323ZM20.0256 24.6006C19.8803 25.0003 19.5222 25.3179 19.111 25.4107C19.0543 25.425 18.9976 25.4321 18.9408 25.4393C19.0259 24.9218 19.1429 24.4329 19.3804 24.0011C19.4265 23.919 19.4939 23.8048 19.5718 23.7584C19.6002 23.7406 19.6392 23.7299 19.6782 23.7299C19.7881 23.7299 19.9192 23.7941 19.9901 23.8976C20.1071 24.0689 20.1213 24.3401 20.0256 24.6006Z" fill="#C67710" style="fill:#C67710;fill:color(display-p3 0.7750 0.4678 0.0646);fill-opacity:1;"/>
<path d="M56.7912 61.5074L54.0899 57.5569L53.4057 58.0315L56.1247 62.007C56.3232 62.296 56.419 62.6279 56.3906 62.9419C56.3658 63.2239 56.2453 63.4558 56.0467 63.5914C55.8482 63.727 55.5894 63.7592 55.32 63.6842C55.0187 63.5986 54.7457 63.3916 54.5472 63.099C54.2707 62.6921 53.7957 61.9784 53.3065 61.2468C52.7534 60.4154 52.1827 59.5553 51.8637 59.095L51.4524 59.3804L51.1405 59.5946L53.8595 63.57C54.058 63.8591 54.1537 64.191 54.1254 64.505C54.1005 64.7869 53.98 65.0189 53.7815 65.1545C53.349 65.4543 52.6755 65.2366 52.282 64.662C52.009 64.2623 51.4808 63.4701 50.9313 62.6457C50.7151 62.3174 50.4918 61.9891 50.2826 61.6751C50.4067 60.7758 50.7009 59.8087 51.1901 58.6774L50.4279 58.342C50.0557 59.1949 49.7934 59.9657 49.6232 60.6901C49.4921 60.4939 49.3751 60.3261 49.29 60.1977L48.6094 60.6723C48.7902 60.9364 49.0844 61.3717 49.4212 61.8785C49.4105 61.9998 49.3964 62.1212 49.3928 62.2389C49.3113 63.7592 49.7048 65.1688 50.4988 66.2037C50.6442 66.3928 50.8427 66.6212 51.1334 66.7461C51.2468 66.7961 51.3709 66.8175 51.495 66.8175C51.7821 66.8175 52.0693 66.6926 52.2359 66.4713C52.3671 66.2964 52.4273 66.093 52.445 65.8825C52.7322 66.0324 53.0406 66.1144 53.3419 66.1144C53.6645 66.1144 53.98 66.0252 54.2494 65.8361C54.6571 65.5542 54.9052 65.1045 54.9513 64.5692C54.9549 64.5228 54.9549 64.4764 54.9549 64.4336C54.9974 64.4479 55.04 64.4657 55.0825 64.4764C55.2562 64.5264 55.4299 64.5514 55.5965 64.5514C55.9262 64.5514 56.2382 64.455 56.5076 64.2695C56.9152 63.9875 57.1634 63.5379 57.2095 63.0026C57.213 62.9419 57.2166 62.8777 57.2166 62.817C57.4399 62.9134 57.6881 62.9812 57.9468 62.9812C58.1312 62.9812 58.3226 62.9491 58.5176 62.8706L58.2056 62.0962C57.6065 62.3424 56.8904 61.6144 56.7841 61.5002L56.7912 61.5074ZM51.5907 65.9681C51.5659 65.986 51.495 65.9967 51.4666 65.986C51.3532 65.9396 51.2468 65.8075 51.1653 65.7005C50.63 65.0046 50.3145 64.0982 50.2436 63.0954C50.2472 63.1025 50.2507 63.1061 50.2542 63.1132C50.6194 63.6628 50.9774 64.1945 51.2539 64.6085C51.4985 65.0367 51.7467 65.7647 51.5942 65.9681H51.5907Z" fill="#C67710" style="fill:#C67710;fill:color(display-p3 0.7750 0.4678 0.0646);fill-opacity:1;"/>
<path d="M38.7112 58.7774C49.3893 58.7774 58.0455 50.0634 58.0455 39.3141C58.0455 28.5648 49.3893 19.8508 38.7112 19.8508C28.0332 19.8508 19.377 28.5648 19.377 39.3141C19.377 50.0634 28.0332 58.7774 38.7112 58.7774Z" fill="#C67710" style="fill:#C67710;fill:color(display-p3 0.7750 0.4678 0.0646);fill-opacity:1;"/>
<path d="M38.7112 50.9549C45.0976 50.9549 50.2749 45.7432 50.2749 39.3141C50.2749 32.885 45.0976 27.6732 38.7112 27.6732C32.3247 27.6732 27.1475 32.885 27.1475 39.3141C27.1475 45.7432 32.3247 50.9549 38.7112 50.9549Z" fill="#FDD39E" style="fill:#FDD39E;fill:color(display-p3 0.9917 0.8290 0.6198);fill-opacity:1;"/>
<path d="M33.3932 26.3814C33.1521 28.0551 32.9146 29.6181 32.7055 31.1812C32.553 32.3089 32.1418 33.3081 31.4612 34.2252C29.6426 36.6804 27.8595 39.1642 26.0622 41.6373C25.8956 41.8657 25.7254 42.094 25.5659 42.3331C25.0838 43.0576 24.4138 43.5322 23.6161 43.8391C23.407 43.9176 23.329 44.0247 23.329 44.2566C23.3361 50.4018 23.3396 56.547 23.329 62.6886C23.329 62.9669 23.4034 63.0776 23.6835 63.1596C24.8675 63.5201 25.3 64.9083 24.591 65.9325C24.3039 66.3464 24.038 66.7818 23.8147 67.2314C23.687 67.4884 23.5913 67.8203 23.9955 67.9987C24.038 68.0165 24.0805 68.1521 24.0557 68.195C24.0238 68.2485 23.882 68.3056 23.8608 68.2842C23.7012 68.12 23.446 67.9452 23.4318 67.7596C23.4105 67.4491 23.4921 67.0994 23.6268 66.8139C23.8076 66.4321 24.0735 66.093 24.311 65.7433C24.7541 65.0938 24.6725 64.2516 24.1124 63.7627C23.5559 63.281 22.7512 63.281 22.2017 63.7627C21.631 64.2695 21.5707 65.0653 21.9996 65.7433C22.3329 66.2715 22.6377 66.821 22.8788 67.3956C22.9568 67.5847 22.8469 67.9059 22.7299 68.1129C22.6342 68.2806 22.3967 68.4055 22.2052 68.1379C22.6519 67.6704 22.6838 67.4848 22.3648 66.8924C22.1946 66.5819 21.989 66.2858 21.7799 66.0003C20.9787 64.894 21.4005 63.5343 22.6945 63.1311C22.9355 63.0561 22.9745 62.9384 22.9745 62.7207C22.9745 59.0629 22.9816 55.4086 22.9851 51.7507C22.9851 49.4561 22.9781 47.1615 22.9745 44.8633C22.9745 44.717 22.9745 44.5707 22.9745 44.4208C22.7228 44.4993 22.4818 44.6563 22.3045 44.6028C22.0776 44.535 21.8791 44.3209 21.7125 44.1282C21.4608 43.8391 21.241 43.5215 21.0212 43.2075C20.8121 42.9077 20.6667 42.5615 20.1917 42.6079C20.096 42.6186 19.901 42.4402 19.8904 42.3367C19.8762 42.1868 19.9436 41.9584 20.057 41.8764C20.3548 41.6658 20.6951 41.5159 21.0212 41.3446C21.1347 41.284 21.2587 41.2411 21.4537 41.1591C20.9503 41.0235 20.5285 40.9342 20.1279 40.7879C19.9896 40.738 19.9081 40.5381 19.8018 40.4061C19.9684 40.3454 20.174 40.1884 20.2945 40.2384C20.7944 40.4489 21.241 40.2919 21.7267 40.192C22.1024 40.1135 22.5137 40.2169 22.9426 40.2455V18.7195C22.4357 19.1157 22.0457 19.6652 21.2729 19.7437C21.3545 19.5403 21.3864 19.4012 21.4608 19.287C21.7125 18.8944 21.9748 18.509 22.2372 18.1236C22.4534 17.8024 22.6555 17.4884 22.6023 17.0637C22.5846 16.9317 22.7051 16.7532 22.8079 16.6426C23.5204 15.8896 24.1373 15.0796 24.4882 14.0839C24.552 13.9055 24.7045 13.7556 24.8144 13.595C24.8675 13.6057 24.9207 13.6164 24.9739 13.6236C24.981 13.8377 25.0448 14.0661 24.9881 14.2588C24.8746 14.6513 24.6974 15.026 24.5485 15.4079C24.2649 16.1359 24.0593 16.9103 23.6729 17.5776C23.2191 18.3555 23.329 19.1621 23.3255 19.9686C23.3184 26.6633 23.3184 33.358 23.3219 40.0528C23.3219 40.1598 23.3326 40.2669 23.3361 40.3918C23.3999 40.4097 23.446 40.4275 23.4992 40.4346C24.5556 40.6024 24.311 40.638 24.8037 39.7887C25.5198 38.5575 26.2465 37.3299 26.9839 36.1095C27.6149 35.0674 28.2636 34.0397 28.9017 33.0012C28.9478 32.9262 28.9797 32.8263 28.9761 32.7371C28.9301 30.4675 29.3767 28.2549 29.7525 26.0388C29.8518 25.4535 29.9049 24.8968 29.8021 24.2973C29.437 22.199 30.6246 20.4468 32.6913 19.9579C32.9359 19.9008 33.0919 19.808 33.2053 19.5653C33.5775 18.7695 34.1837 18.1521 34.953 17.7703C35.8038 17.3456 36.7006 17.0137 37.6011 16.6961C37.9201 16.5855 37.9662 16.4356 37.9237 16.1608C37.8209 15.4757 36.9275 14.7298 36.254 14.6085C33.815 14.166 31.8369 15.2651 29.9085 16.4999C29.4973 16.7639 29.1888 17.2065 28.8769 17.599C28.494 18.0808 28.1537 18.5982 27.7886 19.0978C27.6858 19.237 27.5582 19.3583 27.3455 19.4583C27.3596 19.2798 27.3561 19.1014 27.3915 18.9301C27.7319 17.2528 28.5401 15.8218 29.8766 14.7798C31.5782 13.4523 33.3223 12.1747 35.1125 10.9721C37.4167 9.42685 39.9372 9.56959 42.4364 10.3797C45.5241 11.3789 47.6298 13.5379 49.0407 16.4142C50.3275 19.03 50.7458 21.8421 50.7387 24.7327C50.7387 24.7862 50.721 24.8397 50.7033 24.9361H48.4629C48.4629 25.1431 48.4629 25.3037 48.4629 25.4642C48.555 29.379 48.6507 33.2974 48.7465 37.2122C48.7961 39.2606 48.7358 41.3197 48.945 43.3502C49.0726 44.6028 48.9202 45.809 48.8564 47.033C48.8103 47.9252 48.3955 48.7138 47.7822 49.3847L47.8141 49.5061C48.3069 49.4597 48.8032 49.4169 49.3633 49.3633C49.3527 49.5953 49.3385 49.8772 49.3243 50.1377C48.6401 50.0628 48.0233 49.995 47.3356 49.9165C47.4065 50.6338 47.4667 51.2833 47.5376 51.9292C47.5695 52.2289 47.6156 52.5287 47.6759 52.8249C47.7362 53.1104 47.6369 53.246 47.3462 53.2424C47.0342 53.2424 46.7258 53.2424 46.3855 53.2424C46.4493 52.1469 46.5131 51.087 46.584 49.9307C45.9637 49.9986 45.3823 50.0592 44.73 50.1306C44.7194 49.8844 44.7052 49.6096 44.6946 49.3598C45.244 49.4097 45.7545 49.4597 46.3323 49.5132C45.9424 48.8994 45.5064 48.4248 45.3185 47.8681C45.1306 47.3114 45.0703 46.6547 45.4815 46.1016C45.556 46.0017 45.6198 45.8911 45.7403 45.7091C45.166 46.0517 44.6839 46.3443 44.1557 46.6583C44.177 46.8617 44.2089 47.1294 44.2373 47.4006C44.255 47.5862 44.3968 47.8038 44.0848 47.9038C44.0458 47.9145 44.0529 48.1072 44.0565 48.2142C44.0777 48.7888 44.1025 49.3669 44.1309 49.9415C44.1345 50.0307 44.1522 50.1377 44.2018 50.2091C45.1944 51.6508 45.5595 53.3138 45.8573 54.9946C46.3607 57.8174 46.4812 60.6723 46.5131 63.5343C46.5167 63.8876 46.6372 64.2516 46.7436 64.5942C47.0272 65.5078 47.3923 66.4 47.6121 67.3278C47.8425 68.3056 47.3214 68.8766 46.3252 68.8338C44.1203 68.7338 41.9118 68.6161 39.7103 68.4733C39.3629 68.4519 39.0013 68.2842 38.6965 68.1022C38.5653 68.0237 38.5015 67.7275 38.5192 67.5419C38.5263 67.4634 38.817 67.3849 38.9872 67.3528C39.3346 67.2921 39.6926 67.2957 40.0329 67.2136C41.6104 66.8425 42.9221 65.9467 44.2018 65.001C44.2975 64.9297 44.3542 64.7084 44.3294 64.5764C44.0636 63.1739 43.8509 61.7572 43.4751 60.3833C42.8228 58.003 42.1032 55.6405 41.3375 53.2924C41.022 52.3217 40.4902 51.426 40.1038 50.4767C39.8415 49.8308 39.6536 49.1528 39.448 48.4855C39.3806 48.2678 39.2849 48.175 39.0439 48.1928C38.7071 48.2178 38.3668 48.2 38.0017 48.2C37.8421 49.4418 37.5054 50.5874 37.6188 51.8078C37.7819 53.5458 37.5656 55.2765 37.2147 56.9716C36.7255 59.3483 36.1405 61.7072 35.5769 64.0661C35.506 64.3623 35.4989 64.6085 35.6336 64.8869C35.9987 65.6327 36.2646 66.4107 36.2682 67.2529C36.2717 68.0772 35.8995 68.4947 35.0841 68.4983C32.8898 68.5054 30.6955 68.5019 28.4976 68.4626C28.1076 68.4555 27.7035 68.2913 27.3455 68.1165C27.2108 68.0522 27.1292 67.756 27.1328 67.5669C27.1328 67.4919 27.427 67.367 27.5901 67.3599C28.6358 67.3171 29.5575 66.8817 30.4296 66.3821C31.2308 65.9218 31.9575 65.3258 32.6984 64.7655C32.8224 64.6727 32.9146 64.4765 32.9323 64.3159C33.1769 62.3567 33.4995 60.3975 33.6165 58.4276C33.7406 56.3757 33.6768 54.3094 33.6626 52.2504C33.6626 51.9256 33.4747 51.6044 33.4003 51.2726C33.3436 51.037 33.301 50.7872 33.3046 50.5481C33.3117 50.2055 33.3258 49.8522 33.418 49.5275C33.7193 48.4498 33.4783 47.3328 33.6874 46.2408C33.893 45.1488 33.9852 44.0354 34.1376 42.9327C34.485 40.4453 34.8714 37.9616 35.1692 35.4671C35.2578 34.7034 35.1338 33.9076 35.0451 33.1332C34.8537 31.4988 34.6729 29.8572 34.1305 28.287C33.9178 27.6697 33.652 27.0701 33.3755 26.3743L33.3932 26.3814ZM44.4464 25.814L44.3259 25.8211C43.9678 26.7097 43.5885 27.5912 43.2588 28.4904C42.7129 29.9714 42.2166 31.4667 41.6636 32.9441C41.5289 33.3081 41.497 33.6257 41.5821 34.0075C42.3513 37.5476 43.1029 41.0913 43.8544 44.6313C43.9572 45.1131 44.0246 45.602 44.1096 46.0873C44.7619 45.7091 44.8257 45.0667 44.9498 44.4672C45.0172 44.1496 45.166 43.9462 45.4461 43.8177C45.8431 43.6321 46.2473 43.4644 46.6266 43.2503C46.74 43.186 46.857 42.9791 46.8393 42.8542C46.6904 41.6979 46.4812 40.5488 46.3465 39.389C46.1161 37.412 45.836 35.435 45.7474 33.4508C45.6836 32.0591 45.6056 30.6851 45.2937 29.3291C45.0242 28.155 44.73 26.9881 44.4464 25.8175V25.814ZM48.2963 47.472C47.5908 47.4006 47.052 47.3435 46.5131 47.2935C46.1693 47.2614 45.9672 47.5148 46.1196 47.8217C46.2508 48.0858 46.4068 48.3534 46.6053 48.5675C46.8924 48.8744 47.2611 48.8923 47.5376 48.5854C47.8177 48.2749 48.0162 47.8895 48.2963 47.472ZM35.8995 12.7385C35.6903 12.5779 34.8679 12.3817 34.758 12.3852C34.6446 12.3888 34.3645 12.6743 34.2546 12.7671C34.3503 12.8741 34.6517 13.0883 34.7615 13.1097C34.8714 13.1275 35.6655 12.867 35.8959 12.7385H35.8995Z" fill="#5A045A" style="fill:#5A045A;fill:color(display-p3 0.3514 0.0163 0.3514);fill-opacity:1;"/>
</svg>
