<svg width="268" height="78" viewBox="0 0 268 78" fill="none" xmlns="http://www.w3.org/2000/svg">
<g clip-path="url(#clip0_4608_1699)">
<path d="M110.525 43.2196C110.525 43.3659 110.5 43.4872 110.447 43.5871C110.394 43.6871 110.27 43.7691 110.071 43.8334C109.873 43.9012 109.585 43.944 109.203 43.9725C108.823 43.9975 108.302 44.0118 107.646 44.0118C107.093 44.0118 106.654 43.9975 106.328 43.9725C105.998 43.944 105.739 43.8976 105.548 43.8227C105.356 43.7513 105.222 43.6585 105.144 43.5443C105.066 43.4337 104.998 43.2981 104.945 43.1375L102.659 37.4063C102.382 36.7568 102.113 36.1822 101.85 35.6826C101.588 35.1795 101.294 34.7619 100.975 34.4229C100.652 34.0875 100.283 33.8305 99.8616 33.6592C99.4397 33.4879 98.9541 33.4023 98.4046 33.4023H96.7881V43.1803C96.7881 43.3124 96.7456 43.4301 96.6605 43.5372C96.5754 43.6442 96.4336 43.7299 96.2386 43.7941C96.0401 43.8619 95.7778 43.9119 95.4516 43.9547C95.122 43.994 94.7036 44.0154 94.1896 44.0154C93.6756 44.0154 93.275 43.9975 92.9383 43.9547C92.605 43.9154 92.3392 43.8619 92.1406 43.7941C91.9421 43.7299 91.8039 43.6442 91.7259 43.5372C91.6479 43.4301 91.6089 43.3124 91.6089 43.1803V19.8772C91.6089 19.2955 91.7578 18.8744 92.052 18.6175C92.3462 18.3605 92.7114 18.2321 93.1439 18.2321H99.7446C100.415 18.2321 100.968 18.2463 101.4 18.2713C101.833 18.2999 102.226 18.332 102.581 18.3712C103.605 18.5175 104.527 18.7673 105.349 19.1242C106.168 19.4811 106.866 19.9486 107.437 20.5231C108.008 21.0977 108.444 21.7793 108.749 22.5644C109.05 23.353 109.203 24.2523 109.203 25.273C109.203 26.133 109.093 26.9145 108.876 27.6247C108.66 28.3348 108.341 28.9629 107.919 29.5196C107.497 30.0763 106.98 30.5581 106.363 30.9685C105.746 31.3789 105.044 31.7108 104.254 31.9606C104.633 32.1461 104.991 32.3709 105.328 32.635C105.661 32.8991 105.977 33.2203 106.274 33.5986C106.569 33.9768 106.849 34.4051 107.111 34.8868C107.373 35.3686 107.629 35.9146 107.88 36.5213L110.029 41.578C110.227 42.0812 110.355 42.4487 110.422 42.6771C110.486 42.9091 110.521 43.0911 110.521 43.2231L110.525 43.2196ZM103.846 25.8047C103.846 24.9589 103.655 24.2452 103.275 23.6635C102.893 23.0818 102.272 22.6714 101.404 22.4323C101.141 22.3681 100.844 22.3146 100.507 22.2753C100.174 22.2361 99.7091 22.2146 99.1171 22.2146H96.7916V29.4946H99.4326C100.166 29.4946 100.812 29.4054 101.365 29.227C101.918 29.0486 102.375 28.7988 102.744 28.474C103.112 28.1493 103.389 27.7639 103.57 27.3142C103.754 26.8646 103.846 26.3614 103.846 25.8082V25.8047Z" fill="#5A045A" style="fill:#5A045A;fill:color(display-p3 0.3529 0.0157 0.3529);fill-opacity:1;"/>
<path d="M129.437 41.8492C129.437 42.2346 129.42 42.5522 129.388 42.8128C129.356 43.0697 129.306 43.2802 129.239 43.4373C129.171 43.5943 129.09 43.712 128.994 43.7834C128.895 43.8548 128.789 43.894 128.668 43.894H115.864C115.431 43.894 115.066 43.7656 114.772 43.5086C114.478 43.2517 114.329 42.8306 114.329 42.2489V19.8772C114.329 19.2955 114.478 18.8744 114.772 18.6175C115.066 18.3605 115.431 18.2321 115.864 18.2321H128.59C128.707 18.2321 128.813 18.2642 128.906 18.332C128.998 18.3998 129.076 18.514 129.143 18.6781C129.21 18.8423 129.256 19.0564 129.292 19.3133C129.324 19.5703 129.342 19.8986 129.342 20.2947C129.342 20.6659 129.324 20.9799 129.292 21.2368C129.26 21.4938 129.21 21.7043 129.143 21.8613C129.076 22.0184 128.998 22.1361 128.906 22.2075C128.813 22.2789 128.707 22.3181 128.59 22.3181H119.487V28.5846H127.19C127.307 28.5846 127.417 28.6203 127.516 28.6953C127.615 28.7666 127.697 28.8808 127.764 29.0307C127.828 29.1842 127.877 29.3876 127.913 29.6445C127.945 29.9015 127.963 30.2155 127.963 30.5866C127.963 30.9578 127.945 31.2861 127.913 31.5395C127.881 31.7893 127.831 31.9927 127.764 32.1461C127.697 32.2996 127.615 32.4066 127.516 32.4744C127.417 32.5422 127.31 32.5744 127.19 32.5744H119.487V39.8151H128.668C128.785 39.8151 128.895 39.8508 128.994 39.9257C129.093 39.9971 129.175 40.1149 129.239 40.2719C129.303 40.4289 129.352 40.6395 129.388 40.8964C129.42 41.1533 129.437 41.4745 129.437 41.8599V41.8492Z" fill="#5A045A" style="fill:#5A045A;fill:color(display-p3 0.3529 0.0157 0.3529);fill-opacity:1;"/>
<path d="M148.013 41.71C148.013 42.1062 147.995 42.4416 147.963 42.7128C147.932 42.984 147.882 43.2089 147.815 43.3873C147.747 43.5657 147.666 43.6942 147.57 43.7727C147.471 43.8512 147.357 43.8905 147.226 43.8905H135.542C135.109 43.8905 134.744 43.762 134.45 43.5051C134.156 43.2481 134.007 42.827 134.007 42.2453V18.9422C134.007 18.8102 134.049 18.6924 134.134 18.5853C134.22 18.4783 134.361 18.3926 134.56 18.3284C134.758 18.2642 135.024 18.2106 135.357 18.1714C135.694 18.1321 136.109 18.1107 136.609 18.1107C137.109 18.1107 137.541 18.1321 137.871 18.1714C138.201 18.2106 138.463 18.2642 138.658 18.3284C138.856 18.3962 138.995 18.4819 139.08 18.5853C139.165 18.6924 139.207 18.8102 139.207 18.9422V39.5867H147.226C147.357 39.5867 147.471 39.6224 147.57 39.6973C147.669 39.7687 147.751 39.89 147.815 40.0542C147.878 40.2184 147.928 40.4396 147.963 40.7073C147.995 40.9785 148.013 41.3139 148.013 41.71Z" fill="#5A045A" style="fill:#5A045A;fill:color(display-p3 0.3529 0.0157 0.3529);fill-opacity:1;"/>
<path d="M173.292 30.7651C173.292 32.892 173.03 34.7977 172.505 36.4749C171.98 38.1557 171.197 39.5796 170.162 40.7501C169.127 41.9206 167.84 42.8128 166.312 43.4266C164.781 44.0404 163.012 44.3473 161.002 44.3473C158.992 44.3473 157.287 44.0868 155.812 43.5622C154.337 43.0376 153.103 42.2418 152.118 41.1712C151.132 40.1006 150.395 38.7374 149.902 37.0852C149.41 35.4329 149.165 33.4773 149.165 31.2148C149.165 29.1378 149.427 27.2714 149.952 25.612C150.477 23.9526 151.26 22.543 152.295 21.3761C153.334 20.2127 154.617 19.3205 156.149 18.6996C157.68 18.0787 159.456 17.7682 161.477 17.7682C163.497 17.7682 165.11 18.0251 166.589 18.5426C168.067 19.06 169.3 19.8523 170.293 20.9229C171.286 21.9934 172.034 23.3459 172.541 24.9804C173.048 26.6148 173.299 28.5419 173.299 30.7616L173.292 30.7651ZM167.854 31.0399C167.854 29.691 167.748 28.4669 167.539 27.3607C167.329 26.2544 166.971 25.3123 166.465 24.5236C165.958 23.7385 165.284 23.1283 164.444 22.7C163.604 22.2718 162.551 22.0541 161.292 22.0541C160.034 22.0541 158.956 22.2968 158.102 22.7785C157.248 23.2603 156.56 23.9062 156.035 24.7127C155.511 25.5192 155.138 26.4614 154.922 27.5391C154.706 28.6168 154.596 29.7588 154.596 30.9614C154.596 32.3639 154.702 33.6236 154.911 34.7406C155.121 35.8575 155.475 36.8139 155.975 37.6062C156.475 38.3984 157.145 39.0051 157.985 39.419C158.825 39.8366 159.881 40.0435 161.158 40.0435C162.434 40.0435 163.494 39.8044 164.348 39.3298C165.202 38.8552 165.89 38.2057 166.418 37.3849C166.943 36.5641 167.315 35.6113 167.532 34.5193C167.748 33.4273 167.858 32.2675 167.858 31.0399H167.854Z" fill="#5A045A" style="fill:#5A045A;fill:color(display-p3 0.3529 0.0157 0.3529);fill-opacity:1;"/>
<path d="M197.976 41.9492C198.132 42.4238 198.231 42.8021 198.27 43.0804C198.309 43.3588 198.256 43.5657 198.114 43.7049C197.969 43.8441 197.713 43.9297 197.345 43.9619C196.976 43.994 196.473 44.0118 195.827 44.0118C195.182 44.0118 194.636 44.0011 194.261 43.9833C193.885 43.9654 193.601 43.9226 193.403 43.8655C193.204 43.8048 193.069 43.7228 192.988 43.6157C192.91 43.5086 192.843 43.373 192.789 43.1982L191.077 38.0415H181.502L179.886 43.059C179.833 43.2446 179.765 43.398 179.68 43.5265C179.595 43.6514 179.457 43.7513 179.265 43.8227C179.074 43.8941 178.804 43.944 178.457 43.9726C178.11 43.9976 177.652 44.0118 177.089 44.0118C176.486 44.0118 176.011 43.994 175.671 43.9512C175.33 43.9119 175.093 43.8156 174.962 43.6621C174.831 43.5087 174.784 43.2945 174.823 43.0162C174.862 42.7378 174.962 42.3703 175.118 41.9063L182.977 19.1385C183.055 18.9137 183.147 18.7317 183.253 18.5925C183.36 18.4533 183.526 18.3498 183.757 18.2749C183.987 18.2035 184.306 18.1571 184.714 18.1357C185.122 18.1143 185.66 18.1072 186.33 18.1072C187.107 18.1072 187.724 18.1179 188.181 18.1357C188.642 18.1571 189 18.2035 189.255 18.2749C189.51 18.3463 189.695 18.4569 189.808 18.6032C189.918 18.7495 190.014 18.9458 190.095 19.1992L197.976 41.9456V41.9492ZM186.274 23.1282H186.256L182.651 34.0375H189.883L186.277 23.1282H186.274Z" fill="#5A045A" style="fill:#5A045A;fill:color(display-p3 0.3529 0.0157 0.3529);fill-opacity:1;"/>
<path d="M222.72 30.683C222.72 33.0347 222.415 35.051 221.805 36.7211C221.195 38.3948 220.316 39.758 219.175 40.8179C218.033 41.8742 216.643 42.6522 215.009 43.1482C213.375 43.6443 211.425 43.8905 209.167 43.8905H203.08C202.648 43.8905 202.283 43.762 201.989 43.5051C201.694 43.2481 201.545 42.827 201.545 42.2454V19.8737C201.545 19.292 201.694 18.8709 201.989 18.6139C202.283 18.357 202.648 18.2285 203.08 18.2285H209.621C211.893 18.2285 213.822 18.4962 215.403 19.0315C216.984 19.5668 218.32 20.359 219.401 21.4117C220.483 22.4645 221.309 23.7635 221.872 25.3087C222.436 26.8539 222.72 28.6489 222.72 30.683ZM217.363 30.8615C217.363 29.6445 217.221 28.5133 216.938 27.4713C216.654 26.4292 216.2 25.5228 215.58 24.7555C214.956 23.9883 214.155 23.3887 213.176 22.9605C212.198 22.5323 210.915 22.3146 209.323 22.3146H206.703V39.7687H209.401C210.819 39.7687 212.014 39.5832 212.985 39.212C213.956 38.8409 214.768 38.2842 215.417 37.5348C216.066 36.7889 216.551 35.8575 216.874 34.7477C217.196 33.6378 217.356 32.3424 217.356 30.8615H217.363Z" fill="#5A045A" style="fill:#5A045A;fill:color(display-p3 0.3529 0.0157 0.3529);fill-opacity:1;"/>
<path d="M242.086 41.8492C242.086 42.2346 242.068 42.5522 242.036 42.8128C242.004 43.0697 241.955 43.2802 241.887 43.4373C241.82 43.5943 241.738 43.712 241.643 43.7834C241.543 43.8548 241.437 43.894 241.316 43.894H228.512C228.08 43.894 227.714 43.7656 227.42 43.5086C227.126 43.2517 226.977 42.8306 226.977 42.2489V19.8772C226.977 19.2955 227.126 18.8744 227.42 18.6175C227.714 18.3605 228.08 18.2321 228.512 18.2321H241.238C241.355 18.2321 241.462 18.2642 241.554 18.332C241.646 18.3998 241.724 18.514 241.791 18.6781C241.859 18.8423 241.905 19.0564 241.94 19.3133C241.972 19.5703 241.99 19.8986 241.99 20.2947C241.99 20.6659 241.972 20.9799 241.94 21.2368C241.908 21.4938 241.859 21.7043 241.791 21.8613C241.724 22.0184 241.646 22.1361 241.554 22.2075C241.462 22.2789 241.355 22.3181 241.238 22.3181H232.135V28.5846H239.838C239.955 28.5846 240.065 28.6203 240.164 28.6953C240.264 28.7666 240.345 28.8808 240.412 29.0307C240.476 29.1842 240.526 29.3876 240.561 29.6445C240.593 29.9015 240.611 30.2155 240.611 30.5866C240.611 30.9578 240.593 31.2861 240.561 31.5395C240.529 31.7893 240.48 31.9927 240.412 32.1461C240.345 32.2996 240.264 32.4066 240.164 32.4744C240.065 32.5422 239.959 32.5744 239.838 32.5744H232.135V39.8151H241.316C241.433 39.8151 241.543 39.8508 241.643 39.9257C241.742 39.9971 241.823 40.1149 241.887 40.2719C241.951 40.4289 242.001 40.6395 242.036 40.8964C242.068 41.1533 242.086 41.4745 242.086 41.8599V41.8492Z" fill="#5A045A" style="fill:#5A045A;fill:color(display-p3 0.3529 0.0157 0.3529);fill-opacity:1;"/>
<path d="M267.837 30.683C267.837 33.0347 267.532 35.051 266.922 36.7211C266.312 38.3948 265.433 39.758 264.292 40.8179C263.15 41.8742 261.761 42.6522 260.126 43.1482C258.492 43.6443 256.542 43.8905 254.284 43.8905H248.198C247.765 43.8905 247.4 43.762 247.106 43.5051C246.811 43.2481 246.663 42.827 246.663 42.2454V19.8737C246.663 19.292 246.811 18.8709 247.106 18.6139C247.4 18.357 247.765 18.2285 248.198 18.2285H254.738C257.01 18.2285 258.939 18.4962 260.52 19.0315C262.101 19.5668 263.437 20.359 264.519 21.4117C265.6 22.4645 266.426 23.7635 266.989 25.3087C267.553 26.8539 267.837 28.6489 267.837 30.683ZM262.477 30.8615C262.477 29.6445 262.335 28.5133 262.051 27.4713C261.768 26.4292 261.314 25.5228 260.694 24.7555C260.07 23.9883 259.269 23.3887 258.29 22.9605C257.312 22.5323 256.028 22.3146 254.437 22.3146H251.817V39.7687H254.515C255.933 39.7687 257.127 39.5832 258.099 39.212C259.07 38.8409 259.882 38.2842 260.531 37.5348C261.179 36.7889 261.665 35.8575 261.988 34.7477C262.31 33.6378 262.47 32.3424 262.47 30.8615H262.477Z" fill="#5A045A" style="fill:#5A045A;fill:color(display-p3 0.3529 0.0157 0.3529);fill-opacity:1;"/>
<path d="M96.4622 59.671C96.4834 59.7245 96.4941 59.7709 96.4905 59.8066C96.4905 59.8423 96.4763 59.8673 96.4515 59.8851C96.4267 59.903 96.3913 59.9137 96.3416 59.9208C96.292 59.9244 96.2317 59.928 96.1538 59.928C96.0758 59.928 96.0155 59.928 95.973 59.9208C95.9269 59.9137 95.8914 59.9065 95.8666 59.8958C95.8418 59.8851 95.8241 59.8709 95.8099 59.853C95.7957 59.8352 95.7851 59.8138 95.7745 59.7888L95.1009 57.901H92.0168L91.3716 59.7745C91.3645 59.7995 91.3539 59.8209 91.3397 59.8387C91.3255 59.8566 91.3042 59.8709 91.2794 59.8851C91.2546 59.8994 91.2192 59.9065 91.1731 59.9137C91.127 59.9208 91.0703 59.9244 91.0029 59.9244C90.9285 59.9244 90.8647 59.9244 90.8115 59.9137C90.7619 59.9065 90.7229 59.8923 90.7016 59.8744C90.6803 59.8566 90.6661 59.8316 90.6626 59.7995C90.6626 59.7674 90.6697 59.7245 90.691 59.6674L93.1512 52.937C93.1618 52.9085 93.1795 52.8835 93.2008 52.8621C93.2221 52.8407 93.2504 52.8264 93.2859 52.8157C93.3213 52.805 93.3603 52.7978 93.41 52.7907C93.4596 52.7871 93.5128 52.7836 93.5766 52.7836C93.6404 52.7836 93.6971 52.7836 93.7467 52.7907C93.7964 52.7978 93.8389 52.805 93.8708 52.8157C93.9062 52.8264 93.9311 52.8407 93.9523 52.8621C93.9736 52.8835 93.9878 52.9085 93.9984 52.937L96.4586 59.6674L96.4622 59.671ZM93.5447 53.5365H93.5376L92.2117 57.3407H94.8988L93.5411 53.5365H93.5447Z" fill="#5A045A" style="fill:#5A045A;fill:color(display-p3 0.3529 0.0157 0.3529);fill-opacity:1;"/>
<path d="M104.786 59.5746C104.786 59.6388 104.775 59.6959 104.758 59.7387C104.736 59.7816 104.711 59.8173 104.683 59.8458C104.655 59.8743 104.619 59.8922 104.58 59.9029C104.541 59.9136 104.506 59.9207 104.474 59.9207H104.339C104.265 59.9207 104.201 59.91 104.141 59.8922C104.08 59.8744 104.024 59.8422 103.967 59.7958C103.91 59.7494 103.854 59.6888 103.8 59.6138C103.744 59.5389 103.683 59.439 103.613 59.3176L101.135 54.8997C101.011 54.6856 100.886 54.4643 100.762 54.2359C100.638 54.0075 100.518 53.7863 100.408 53.5722H100.401C100.404 53.8398 100.408 54.111 100.408 54.3894V59.7887C100.408 59.8101 100.401 59.8315 100.39 59.8494C100.38 59.8672 100.362 59.8815 100.337 59.8922C100.312 59.9029 100.277 59.9136 100.238 59.9207C100.199 59.9279 100.142 59.9314 100.078 59.9314C100.018 59.9314 99.9648 59.9314 99.9222 59.9207C99.8797 59.9136 99.8442 59.9029 99.8194 59.8922C99.7946 59.8815 99.7769 59.8672 99.7663 59.8494C99.7556 59.8315 99.7485 59.8101 99.7485 59.7887V53.1689C99.7485 53.0369 99.784 52.9476 99.8513 52.8977C99.9187 52.8477 99.986 52.8227 100.053 52.8227H100.326C100.415 52.8227 100.486 52.8299 100.543 52.8442C100.599 52.8584 100.653 52.8834 100.699 52.9191C100.745 52.9548 100.791 53.0012 100.837 53.0654C100.883 53.1296 100.933 53.2117 100.986 53.3081L102.882 56.6911C103.003 56.9017 103.116 57.1051 103.223 57.3014C103.329 57.4976 103.432 57.6868 103.535 57.8759C103.637 58.0651 103.737 58.2471 103.836 58.4291C103.935 58.6111 104.034 58.7966 104.13 58.9822H104.134C104.134 58.6753 104.13 58.3577 104.13 58.0258V52.9512C104.13 52.9298 104.134 52.9084 104.148 52.8906C104.158 52.8727 104.176 52.8584 104.201 52.8442C104.226 52.8299 104.261 52.8227 104.3 52.8156C104.343 52.812 104.396 52.8085 104.46 52.8085C104.517 52.8085 104.57 52.8085 104.612 52.8156C104.655 52.8227 104.69 52.8299 104.715 52.8442C104.74 52.8584 104.758 52.8727 104.772 52.8906C104.786 52.9084 104.789 52.9298 104.789 52.9512V59.571L104.786 59.5746Z" fill="#5A045A" style="fill:#5A045A;fill:color(display-p3 0.3529 0.0157 0.3529);fill-opacity:1;"/>
<path d="M113.442 58.9323C113.442 58.9715 113.442 59.0072 113.439 59.0429C113.435 59.075 113.428 59.1036 113.421 59.1321C113.414 59.1571 113.403 59.1821 113.393 59.2035C113.379 59.2249 113.357 59.2535 113.322 59.2892C113.286 59.3248 113.212 59.3784 113.095 59.4569C112.978 59.5354 112.833 59.6139 112.659 59.6888C112.482 59.7638 112.283 59.8316 112.053 59.8851C111.822 59.9386 111.574 59.9672 111.298 59.9672C110.855 59.9672 110.458 59.8887 110.096 59.7352C109.738 59.5818 109.433 59.3534 109.181 59.0536C108.93 58.7539 108.735 58.3863 108.6 57.9509C108.465 57.5156 108.398 57.0159 108.398 56.4521C108.398 55.8883 108.469 55.3601 108.614 54.9033C108.76 54.4465 108.962 54.0576 109.224 53.7399C109.486 53.4223 109.802 53.1761 110.17 53.0084C110.539 52.8371 110.943 52.755 111.39 52.755C111.599 52.755 111.805 52.7764 112 52.8157C112.195 52.8549 112.379 52.9049 112.546 52.9691C112.712 53.0334 112.861 53.1012 112.992 53.1832C113.123 53.2653 113.216 53.3296 113.265 53.3759C113.315 53.4259 113.343 53.4616 113.357 53.483C113.372 53.5044 113.379 53.5294 113.386 53.5579C113.393 53.5865 113.4 53.615 113.403 53.6507C113.403 53.6864 113.407 53.7257 113.407 53.7685C113.407 53.8185 113.407 53.8648 113.4 53.9041C113.393 53.9434 113.386 53.9755 113.372 54.004C113.357 54.0326 113.343 54.054 113.325 54.0683C113.308 54.0825 113.286 54.0897 113.262 54.0897C113.212 54.0897 113.141 54.054 113.045 53.979C112.95 53.9041 112.833 53.822 112.68 53.7292C112.531 53.64 112.347 53.5544 112.127 53.4794C111.911 53.4045 111.652 53.3688 111.351 53.3688C111.021 53.3688 110.72 53.4366 110.443 53.5687C110.167 53.7007 109.933 53.897 109.734 54.1575C109.536 54.4144 109.383 54.7356 109.274 55.1139C109.164 55.4921 109.107 55.9275 109.107 56.42C109.107 56.9125 109.157 57.3086 109.259 57.6726C109.362 58.0366 109.508 58.3435 109.699 58.5933C109.89 58.8431 110.128 59.0322 110.411 59.1643C110.695 59.2963 111.014 59.3605 111.372 59.3605C111.666 59.3605 111.922 59.3248 112.141 59.2499C112.361 59.175 112.549 59.0929 112.702 59.0001C112.858 58.9073 112.985 58.8252 113.084 58.7503C113.184 58.6754 113.262 58.6397 113.315 58.6397C113.336 58.6397 113.354 58.6432 113.368 58.6539C113.382 58.6646 113.393 58.6789 113.403 58.7039C113.414 58.7289 113.421 58.761 113.425 58.8003C113.428 58.8395 113.432 58.8895 113.432 58.9466L113.442 58.9323Z" fill="#5A045A" style="fill:#5A045A;fill:color(display-p3 0.3529 0.0157 0.3529);fill-opacity:1;"/>
<path d="M117.459 59.7852C117.459 59.8066 117.452 59.828 117.441 59.8458C117.431 59.8637 117.413 59.878 117.388 59.8887C117.363 59.8994 117.328 59.9101 117.289 59.9172C117.25 59.9244 117.193 59.9279 117.129 59.9279C117.069 59.9279 117.016 59.9279 116.974 59.9172C116.931 59.9101 116.896 59.8994 116.871 59.8887C116.846 59.878 116.828 59.8637 116.818 59.8458C116.807 59.828 116.8 59.8066 116.8 59.7852V52.9299C116.8 52.9084 116.807 52.887 116.818 52.8692C116.832 52.8513 116.849 52.8371 116.878 52.8264C116.906 52.8157 116.938 52.805 116.981 52.7978C117.023 52.7907 117.073 52.7871 117.129 52.7871C117.193 52.7871 117.246 52.7871 117.289 52.7978C117.332 52.8085 117.363 52.8157 117.388 52.8264C117.413 52.8371 117.431 52.8513 117.441 52.8692C117.452 52.887 117.459 52.9084 117.459 52.9299V59.7852Z" fill="#5A045A" style="fill:#5A045A;fill:color(display-p3 0.3529 0.0157 0.3529);fill-opacity:1;"/>
<path d="M125.283 59.5997C125.283 59.646 125.279 59.6889 125.272 59.7246C125.265 59.7602 125.255 59.7924 125.237 59.8173C125.219 59.8423 125.201 59.8637 125.18 59.8744C125.159 59.8887 125.134 59.8923 125.109 59.8923H121.82C121.756 59.8923 121.688 59.8673 121.617 59.8173C121.547 59.7674 121.515 59.6782 121.515 59.5461V53.1583C121.515 53.0263 121.55 52.937 121.617 52.8871C121.685 52.8371 121.752 52.8121 121.82 52.8121H125.063C125.088 52.8121 125.113 52.8193 125.134 52.83C125.155 52.8442 125.173 52.8621 125.187 52.8871C125.201 52.9121 125.212 52.9442 125.219 52.9834C125.226 53.0227 125.23 53.0655 125.23 53.119C125.23 53.1654 125.23 53.2082 125.219 53.2439C125.212 53.2796 125.201 53.3117 125.187 53.3332C125.173 53.3581 125.155 53.376 125.134 53.3867C125.113 53.401 125.088 53.4045 125.063 53.4045H122.178V55.8919H124.666C124.694 55.8919 124.719 55.899 124.741 55.9097C124.762 55.924 124.78 55.9418 124.794 55.9632C124.808 55.9846 124.819 56.0168 124.826 56.056C124.833 56.0953 124.836 56.1381 124.836 56.1916C124.836 56.238 124.833 56.2808 124.826 56.313C124.819 56.3486 124.808 56.3772 124.794 56.3986C124.78 56.42 124.762 56.4379 124.741 56.4486C124.719 56.4593 124.694 56.4664 124.666 56.4664H122.178V59.2892H125.109C125.134 59.2892 125.159 59.2963 125.18 59.307C125.201 59.3177 125.223 59.3391 125.237 59.3606C125.251 59.382 125.265 59.4141 125.272 59.4533C125.279 59.4926 125.283 59.5354 125.283 59.589V59.5997Z" fill="#5A045A" style="fill:#5A045A;fill:color(display-p3 0.3529 0.0157 0.3529);fill-opacity:1;"/>
<path d="M134 59.5746C134 59.6388 133.989 59.6959 133.971 59.7387C133.95 59.7816 133.925 59.8173 133.897 59.8458C133.869 59.8743 133.833 59.8922 133.794 59.9029C133.755 59.9136 133.72 59.9207 133.688 59.9207H133.553C133.479 59.9207 133.415 59.91 133.355 59.8922C133.294 59.8744 133.238 59.8422 133.181 59.7958C133.124 59.7494 133.067 59.6888 133.014 59.6138C132.958 59.5389 132.897 59.439 132.826 59.3176L130.348 54.8997C130.224 54.6856 130.1 54.4643 129.976 54.2359C129.852 54.0075 129.732 53.7863 129.622 53.5722H129.615C129.618 53.8398 129.622 54.111 129.622 54.3894V59.7887C129.622 59.8101 129.615 59.8315 129.604 59.8494C129.593 59.8672 129.576 59.8815 129.551 59.8922C129.526 59.9029 129.491 59.9136 129.452 59.9207C129.413 59.9279 129.356 59.9314 129.292 59.9314C129.232 59.9314 129.179 59.9314 129.136 59.9207C129.094 59.9136 129.058 59.9029 129.033 59.8922C129.008 59.8815 128.991 59.8672 128.98 59.8494C128.969 59.8315 128.962 59.8101 128.962 59.7887V53.1689C128.962 53.0369 128.998 52.9476 129.065 52.8977C129.133 52.8477 129.2 52.8227 129.267 52.8227H129.54C129.629 52.8227 129.7 52.8299 129.756 52.8442C129.813 52.8584 129.866 52.8834 129.912 52.9191C129.959 52.9548 130.005 53.0012 130.051 53.0654C130.097 53.1296 130.146 53.2117 130.2 53.3081L132.096 56.6911C132.217 56.9017 132.33 57.1051 132.436 57.3014C132.543 57.4976 132.646 57.6868 132.748 57.8759C132.851 58.0651 132.95 58.2471 133.05 58.4291C133.149 58.6111 133.248 58.7966 133.344 58.9822H133.348C133.348 58.6753 133.344 58.3577 133.344 58.0258V52.9512C133.344 52.9298 133.348 52.9084 133.362 52.8906C133.372 52.8727 133.39 52.8584 133.415 52.8442C133.44 52.8299 133.475 52.8227 133.514 52.8156C133.557 52.812 133.61 52.8085 133.674 52.8085C133.73 52.8085 133.784 52.8085 133.826 52.8156C133.869 52.8227 133.904 52.8299 133.929 52.8442C133.954 52.8584 133.971 52.8727 133.986 52.8906C134 52.9084 134.003 52.9298 134.003 52.9512V59.571L134 59.5746Z" fill="#5A045A" style="fill:#5A045A;fill:color(display-p3 0.3529 0.0157 0.3529);fill-opacity:1;"/>
<path d="M142.313 53.1261C142.313 53.1725 142.309 53.2153 142.302 53.251C142.295 53.2867 142.284 53.3188 142.27 53.3402C142.256 53.3652 142.238 53.3831 142.217 53.3938C142.196 53.408 142.171 53.4116 142.146 53.4116H140.051V59.7816C140.051 59.803 140.044 59.8244 140.033 59.8423C140.023 59.8601 140.005 59.8744 139.98 59.8851C139.955 59.8958 139.92 59.9065 139.877 59.9136C139.835 59.9208 139.782 59.9243 139.721 59.9243C139.661 59.9243 139.608 59.9243 139.565 59.9136C139.523 59.9065 139.487 59.8958 139.463 59.8851C139.438 59.8744 139.42 59.8601 139.409 59.8423C139.399 59.8244 139.392 59.803 139.392 59.7816V53.4116H137.297C137.268 53.4116 137.243 53.4045 137.222 53.3938C137.201 53.3795 137.187 53.3616 137.169 53.3402C137.151 53.3188 137.144 53.2867 137.137 53.251C137.13 53.2153 137.126 53.1725 137.126 53.1261C137.126 53.0762 137.126 53.0298 137.137 52.9905C137.148 52.9513 137.155 52.9191 137.169 52.8942C137.183 52.8692 137.201 52.8513 137.222 52.8371C137.243 52.8228 137.265 52.8192 137.297 52.8192H142.153C142.178 52.8192 142.203 52.8264 142.224 52.8371C142.245 52.8513 142.263 52.8692 142.277 52.8942C142.291 52.9191 142.302 52.9513 142.309 52.9905C142.316 53.0298 142.32 53.0726 142.32 53.1261H142.313Z" fill="#5A045A" style="fill:#5A045A;fill:color(display-p3 0.3529 0.0157 0.3529);fill-opacity:1;"/>
<path d="M156.315 59.7745C156.305 59.803 156.287 59.828 156.262 59.8494C156.237 59.8708 156.209 59.8851 156.17 59.8958C156.131 59.9065 156.088 59.9136 156.039 59.9208C155.989 59.9243 155.932 59.9279 155.869 59.9279C155.805 59.9279 155.745 59.9279 155.695 59.9208C155.645 59.9136 155.599 59.9065 155.56 59.8958C155.521 59.8851 155.493 59.8708 155.468 59.8494C155.443 59.828 155.426 59.8066 155.415 59.7745L153.752 53.9612H153.742L152.221 59.7745C152.214 59.803 152.2 59.828 152.178 59.8494C152.157 59.8708 152.132 59.8851 152.097 59.8958C152.061 59.9065 152.022 59.9136 151.973 59.9208C151.923 59.9243 151.866 59.9279 151.795 59.9279C151.725 59.9279 151.661 59.9279 151.608 59.9208C151.554 59.9136 151.508 59.9065 151.469 59.8958C151.43 59.8851 151.398 59.8708 151.374 59.8494C151.349 59.828 151.331 59.8066 151.32 59.7745L149.328 53.044C149.31 52.9869 149.3 52.9405 149.3 52.9084C149.3 52.8763 149.31 52.8513 149.335 52.8335C149.36 52.8156 149.396 52.8049 149.445 52.7978C149.495 52.7942 149.559 52.7906 149.637 52.7906C149.715 52.7906 149.778 52.7907 149.828 52.7978C149.874 52.8049 149.91 52.8121 149.938 52.8228C149.966 52.8335 149.98 52.8477 149.991 52.8656C150.002 52.8834 150.009 52.9049 150.016 52.9298L151.781 59.1357H151.788L153.412 52.9298C153.419 52.9049 153.43 52.8834 153.44 52.8656C153.451 52.8477 153.469 52.8335 153.497 52.8228C153.525 52.8121 153.561 52.8049 153.61 52.7978C153.66 52.7942 153.724 52.7906 153.802 52.7906C153.862 52.7906 153.912 52.7907 153.951 52.7978C153.99 52.8049 154.018 52.8121 154.043 52.8228C154.068 52.8335 154.086 52.8477 154.096 52.8656C154.11 52.8834 154.117 52.9049 154.125 52.9298L155.897 59.1357H155.908L157.63 52.9298C157.638 52.9049 157.645 52.8834 157.655 52.8656C157.666 52.8477 157.68 52.8335 157.708 52.8228C157.737 52.8121 157.769 52.8049 157.811 52.7978C157.854 52.7942 157.914 52.7906 157.992 52.7906C158.07 52.7906 158.134 52.7907 158.184 52.8014C158.233 52.8121 158.265 52.8228 158.29 52.8406C158.315 52.8585 158.325 52.8834 158.329 52.9156C158.329 52.9477 158.325 52.9905 158.311 53.0476L156.319 59.778L156.315 59.7745Z" fill="#5A045A" style="fill:#5A045A;fill:color(display-p3 0.3529 0.0157 0.3529);fill-opacity:1;"/>
<path d="M162.413 59.7852C162.413 59.8066 162.406 59.828 162.395 59.8458C162.384 59.8637 162.367 59.878 162.342 59.8887C162.317 59.8994 162.282 59.9101 162.243 59.9172C162.204 59.9244 162.147 59.9279 162.083 59.9279C162.023 59.9279 161.97 59.9279 161.927 59.9172C161.885 59.9101 161.849 59.8994 161.824 59.8887C161.799 59.878 161.782 59.8637 161.771 59.8458C161.761 59.828 161.753 59.8066 161.753 59.7852V52.9299C161.753 52.9084 161.761 52.887 161.771 52.8692C161.785 52.8513 161.803 52.8371 161.831 52.8264C161.86 52.8157 161.892 52.805 161.934 52.7978C161.977 52.7907 162.026 52.7871 162.083 52.7871C162.147 52.7871 162.2 52.7871 162.243 52.7978C162.285 52.8085 162.317 52.8157 162.342 52.8264C162.367 52.8371 162.384 52.8513 162.395 52.8692C162.406 52.887 162.413 52.9084 162.413 52.9299V59.7852Z" fill="#5A045A" style="fill:#5A045A;fill:color(display-p3 0.3529 0.0157 0.3529);fill-opacity:1;"/>
<path d="M170.024 57.983C170.024 58.2971 169.967 58.579 169.857 58.8252C169.744 59.0715 169.588 59.282 169.386 59.4569C169.184 59.6317 168.943 59.7638 168.663 59.853C168.383 59.9458 168.081 59.9886 167.752 59.9886C167.528 59.9886 167.316 59.9672 167.117 59.9244C166.918 59.8815 166.741 59.8316 166.585 59.7745C166.429 59.7174 166.298 59.6567 166.192 59.596C166.085 59.5354 166.011 59.4854 165.972 59.4426C165.933 59.3998 165.905 59.3498 165.883 59.2963C165.866 59.2392 165.855 59.1714 165.855 59.0857C165.855 59.0251 165.859 58.9715 165.866 58.9323C165.873 58.893 165.883 58.8609 165.894 58.8324C165.908 58.8074 165.922 58.7895 165.944 58.7788C165.965 58.7681 165.986 58.7646 166.007 58.7646C166.057 58.7646 166.128 58.7967 166.22 58.8609C166.312 58.9251 166.433 58.9929 166.578 59.0679C166.724 59.1428 166.901 59.2106 167.106 59.2749C167.312 59.3391 167.549 59.3712 167.819 59.3712C168.039 59.3712 168.241 59.3427 168.429 59.282C168.613 59.2213 168.772 59.1357 168.907 59.0215C169.042 58.9073 169.145 58.7681 169.219 58.604C169.294 58.4398 169.329 58.2507 169.329 58.0401C169.329 57.8296 169.283 57.6333 169.187 57.4763C169.092 57.3193 168.967 57.1801 168.815 57.0623C168.663 56.9446 168.485 56.8375 168.29 56.7411C168.095 56.6448 167.893 56.5484 167.691 56.4521C167.489 56.3557 167.287 56.2522 167.092 56.138C166.897 56.0238 166.724 55.8918 166.568 55.7419C166.415 55.592 166.291 55.4136 166.195 55.2102C166.1 55.0068 166.054 54.7641 166.054 54.4822C166.054 54.2003 166.103 53.9648 166.199 53.7471C166.298 53.5294 166.433 53.3474 166.614 53.1939C166.791 53.044 167.004 52.9263 167.252 52.8478C167.5 52.7693 167.773 52.7264 168.071 52.7264C168.219 52.7264 168.368 52.7407 168.521 52.7693C168.673 52.7978 168.815 52.8371 168.953 52.8799C169.088 52.9263 169.209 52.9762 169.318 53.0333C169.425 53.0904 169.496 53.1368 169.531 53.169C169.567 53.2046 169.588 53.2296 169.595 53.2439C169.602 53.2582 169.613 53.2796 169.62 53.3081C169.627 53.3367 169.634 53.3652 169.637 53.3973C169.637 53.433 169.641 53.4759 169.641 53.5258C169.641 53.5722 169.641 53.615 169.634 53.6543C169.627 53.6935 169.62 53.7257 169.609 53.7542C169.598 53.7828 169.584 53.8006 169.567 53.8184C169.549 53.8327 169.531 53.8398 169.51 53.8398C169.471 53.8398 169.411 53.8149 169.329 53.7613C169.248 53.7078 169.145 53.6507 169.021 53.5829C168.897 53.5187 168.751 53.458 168.581 53.4045C168.411 53.3509 168.216 53.326 168 53.326C167.783 53.326 167.599 53.3545 167.44 53.4152C167.28 53.4723 167.149 53.5544 167.043 53.6543C166.936 53.7542 166.858 53.872 166.805 54.0076C166.752 54.1432 166.727 54.2859 166.727 54.4358C166.727 54.6535 166.773 54.8426 166.869 54.9997C166.965 55.1567 167.089 55.2959 167.245 55.4136C167.401 55.5349 167.578 55.642 167.773 55.7384C167.968 55.8347 168.17 55.9311 168.375 56.0274C168.581 56.1238 168.78 56.2273 168.978 56.3379C169.177 56.4485 169.35 56.5806 169.506 56.7304C169.662 56.8803 169.786 57.0588 169.882 57.2622C169.978 57.4656 170.024 57.7047 170.024 57.9795V57.983Z" fill="#5A045A" style="fill:#5A045A;fill:color(display-p3 0.3529 0.0157 0.3529);fill-opacity:1;"/>
<path d="M178.67 56.2558C178.67 56.8518 178.596 57.3728 178.447 57.8296C178.298 58.2828 178.078 58.6646 177.791 58.968C177.5 59.2749 177.142 59.5068 176.717 59.6638C176.291 59.8209 175.784 59.8994 175.192 59.8994H173.806C173.743 59.8994 173.675 59.8744 173.604 59.8244C173.533 59.7745 173.501 59.6853 173.501 59.5532V53.1654C173.501 53.0333 173.537 52.9441 173.604 52.8942C173.672 52.8442 173.739 52.8192 173.806 52.8192H175.285C175.884 52.8192 176.387 52.9013 176.798 53.0654C177.21 53.2296 177.553 53.4616 177.83 53.7613C178.106 54.0611 178.316 54.4215 178.457 54.8426C178.599 55.2637 178.67 55.7312 178.67 56.2487V56.2558ZM177.957 56.2879C177.957 55.8775 177.904 55.4957 177.802 55.1424C177.699 54.7891 177.539 54.4858 177.323 54.2324C177.107 53.979 176.834 53.7792 176.504 53.6329C176.174 53.4901 175.756 53.4152 175.246 53.4152H174.164V59.2998H175.249C175.728 59.2998 176.132 59.2392 176.462 59.1214C176.791 59.0036 177.068 58.8216 177.291 58.5718C177.511 58.3256 177.677 58.0116 177.787 57.6333C177.897 57.255 177.954 56.8054 177.954 56.2844L177.957 56.2879Z" fill="#5A045A" style="fill:#5A045A;fill:color(display-p3 0.3529 0.0157 0.3529);fill-opacity:1;"/>
<path d="M187.912 56.2772C187.912 56.841 187.848 57.3549 187.721 57.8117C187.593 58.2685 187.398 58.661 187.143 58.9822C186.884 59.3034 186.561 59.5532 186.171 59.7281C185.781 59.9029 185.324 59.9921 184.803 59.9921C184.282 59.9921 183.835 59.9101 183.46 59.7423C183.084 59.5782 182.779 59.3391 182.538 59.0322C182.297 58.7253 182.12 58.347 182.006 57.9045C181.893 57.4584 181.836 56.9588 181.836 56.4021C181.836 55.8454 181.9 55.3458 182.027 54.8926C182.155 54.4394 182.346 54.0539 182.605 53.7363C182.864 53.4187 183.187 53.1689 183.577 52.9941C183.966 52.8192 184.424 52.73 184.948 52.73C185.473 52.73 185.902 52.8121 186.274 52.9762C186.646 53.1404 186.955 53.3759 187.199 53.6828C187.444 53.9897 187.625 54.3608 187.742 54.7998C187.859 55.2387 187.919 55.7312 187.919 56.2808L187.912 56.2772ZM187.203 56.3379C187.203 55.9203 187.164 55.5242 187.086 55.1602C187.008 54.7962 186.88 54.475 186.7 54.2038C186.519 53.9326 186.281 53.7185 185.987 53.565C185.693 53.4116 185.324 53.3331 184.885 53.3331C184.445 53.3331 184.083 53.4152 183.786 53.5757C183.488 53.7399 183.243 53.9576 183.059 54.2288C182.875 54.5 182.74 54.8212 182.658 55.1852C182.577 55.5492 182.538 55.9346 182.538 56.3379C182.538 56.7697 182.573 57.1694 182.648 57.5369C182.722 57.9081 182.846 58.2292 183.023 58.5004C183.201 58.7752 183.438 58.9893 183.736 59.1428C184.034 59.2963 184.402 59.3748 184.849 59.3748C185.296 59.3748 185.661 59.2927 185.962 59.125C186.264 58.9608 186.505 58.736 186.689 58.4576C186.873 58.1793 187.005 57.8545 187.086 57.4905C187.168 57.1265 187.207 56.7375 187.207 56.3343L187.203 56.3379Z" fill="#5A045A" style="fill:#5A045A;fill:color(display-p3 0.3529 0.0157 0.3529);fill-opacity:1;"/>
<path d="M198.88 59.7852C198.88 59.8066 198.873 59.828 198.862 59.8458C198.852 59.8637 198.834 59.878 198.806 59.8887C198.777 59.8994 198.745 59.9101 198.703 59.9172C198.66 59.9243 198.607 59.9279 198.543 59.9279C198.486 59.9279 198.433 59.9279 198.391 59.9172C198.348 59.9101 198.313 59.8994 198.288 59.8887C198.263 59.878 198.245 59.8637 198.235 59.8458C198.224 59.828 198.217 59.8066 198.217 59.7852V53.4045H198.206L195.441 59.8244C195.441 59.8244 195.424 59.853 195.409 59.8672C195.395 59.8815 195.374 59.8922 195.349 59.8994C195.324 59.9101 195.292 59.9172 195.261 59.9208C195.225 59.9243 195.186 59.9279 195.14 59.9279C195.09 59.9279 195.044 59.9279 195.009 59.9208C194.973 59.9136 194.942 59.9065 194.92 59.8994C194.899 59.8922 194.878 59.878 194.864 59.8672C194.849 59.853 194.839 59.8423 194.835 59.8244L192.205 53.4045H192.198V59.7852C192.198 59.8066 192.191 59.828 192.18 59.8458C192.169 59.8637 192.152 59.878 192.123 59.8887C192.095 59.8994 192.063 59.9101 192.02 59.9172C191.978 59.9243 191.925 59.9279 191.854 59.9279C191.794 59.9279 191.74 59.9279 191.698 59.9172C191.655 59.9101 191.623 59.8994 191.599 59.8887C191.574 59.878 191.556 59.8637 191.545 59.8458C191.535 59.828 191.531 59.8066 191.531 59.7852V53.1654C191.531 53.0333 191.567 52.9441 191.634 52.8942C191.701 52.8442 191.769 52.8192 191.836 52.8192H192.194C192.283 52.8192 192.364 52.8299 192.432 52.8478C192.499 52.8692 192.563 52.8977 192.612 52.937C192.666 52.9762 192.708 53.0226 192.747 53.0762C192.783 53.1297 192.815 53.1939 192.846 53.2617L195.165 58.8823H195.193L197.611 53.2831C197.646 53.1939 197.685 53.1225 197.728 53.0619C197.77 53.0012 197.813 52.9548 197.859 52.9156C197.905 52.8799 197.955 52.8549 198.004 52.8406C198.054 52.8264 198.114 52.8192 198.175 52.8192H198.572C198.603 52.8192 198.639 52.8264 198.674 52.8371C198.71 52.8478 198.742 52.8656 198.774 52.8942C198.802 52.9227 198.827 52.9584 198.848 53.0012C198.869 53.044 198.876 53.1011 198.876 53.1654V59.7852H198.88Z" fill="#5A045A" style="fill:#5A045A;fill:color(display-p3 0.3529 0.0157 0.3529);fill-opacity:1;"/>
<path d="M211.851 59.7745C211.851 59.7994 211.847 59.8209 211.837 59.8387C211.826 59.8565 211.812 59.8708 211.784 59.8851C211.759 59.8994 211.723 59.9065 211.677 59.9136C211.631 59.9208 211.574 59.9243 211.507 59.9243C211.447 59.9243 211.394 59.9243 211.351 59.9172C211.309 59.9101 211.273 59.8994 211.245 59.8851C211.216 59.8672 211.192 59.8458 211.174 59.8209C211.156 59.7923 211.138 59.7566 211.124 59.7138L210.468 57.9973C210.394 57.8046 210.312 57.6226 210.224 57.4513C210.135 57.28 210.032 57.1301 209.908 57.0052C209.784 56.8803 209.635 56.7804 209.462 56.709C209.288 56.6341 209.079 56.5984 208.838 56.5984H208.111V59.7852C208.111 59.8066 208.104 59.828 208.093 59.8458C208.083 59.8637 208.065 59.878 208.04 59.8887C208.015 59.8994 207.98 59.9101 207.941 59.9172C207.902 59.9243 207.845 59.9279 207.781 59.9279C207.721 59.9279 207.668 59.9279 207.625 59.9172C207.583 59.9101 207.547 59.8994 207.523 59.8887C207.498 59.878 207.48 59.8637 207.469 59.8458C207.459 59.828 207.452 59.8066 207.452 59.7852V53.1654C207.452 53.0333 207.487 52.9441 207.554 52.8942C207.622 52.8442 207.689 52.8192 207.757 52.8192H209.075C209.249 52.8192 209.394 52.8228 209.508 52.8335C209.621 52.8442 209.728 52.8549 209.82 52.8692C210.089 52.9156 210.323 52.9941 210.522 53.0976C210.72 53.2046 210.887 53.3331 211.014 53.4901C211.146 53.6436 211.241 53.8184 211.305 54.0147C211.369 54.211 211.401 54.4215 211.401 54.6464C211.401 54.8712 211.369 55.0889 211.301 55.2709C211.238 55.4564 211.146 55.617 211.025 55.7562C210.904 55.8954 210.763 56.0167 210.596 56.1202C210.429 56.2237 210.245 56.3093 210.047 56.3771C210.167 56.4307 210.273 56.4985 210.369 56.5805C210.465 56.6591 210.554 56.759 210.635 56.8696C210.717 56.9838 210.795 57.1123 210.865 57.2622C210.936 57.412 211.011 57.5762 211.082 57.7582L211.738 59.4105C211.784 59.5389 211.816 59.6246 211.826 59.6745C211.84 59.7209 211.844 59.7566 211.844 59.778L211.851 59.7745ZM210.685 54.7177C210.685 54.4144 210.617 54.1574 210.483 53.9505C210.348 53.7399 210.125 53.59 209.809 53.5008C209.703 53.4723 209.589 53.4509 209.469 53.4366C209.345 53.4223 209.185 53.4187 208.987 53.4187H208.118V56.0167H209.128C209.401 56.0167 209.632 55.9846 209.83 55.9168C210.029 55.849 210.188 55.7562 210.316 55.642C210.444 55.5242 210.539 55.3886 210.6 55.2316C210.66 55.0746 210.688 54.9069 210.688 54.7249L210.685 54.7177Z" fill="#5A045A" style="fill:#5A045A;fill:color(display-p3 0.3529 0.0157 0.3529);fill-opacity:1;"/>
<path d="M219.143 59.5997C219.143 59.646 219.14 59.6889 219.133 59.7246C219.126 59.7602 219.115 59.7924 219.097 59.8173C219.079 59.8423 219.062 59.8637 219.041 59.8744C219.019 59.8887 218.994 59.8923 218.97 59.8923H215.68C215.616 59.8923 215.549 59.8673 215.478 59.8173C215.407 59.7674 215.375 59.6782 215.375 59.5461V53.1583C215.375 53.0263 215.41 52.937 215.478 52.8871C215.545 52.8371 215.613 52.8121 215.68 52.8121H218.924C218.948 52.8121 218.973 52.8193 218.994 52.83C219.016 52.8442 219.033 52.8621 219.048 52.8871C219.062 52.9121 219.072 52.9442 219.08 52.9834C219.087 53.0227 219.09 53.0655 219.09 53.119C219.09 53.1654 219.09 53.2082 219.08 53.2439C219.072 53.2796 219.062 53.3117 219.048 53.3332C219.033 53.3581 219.016 53.376 218.994 53.3867C218.973 53.401 218.948 53.4045 218.924 53.4045H216.038V55.8919H218.526C218.555 55.8919 218.58 55.899 218.601 55.9097C218.622 55.924 218.64 55.9418 218.654 55.9632C218.668 55.9846 218.679 56.0168 218.686 56.056C218.693 56.0953 218.697 56.1381 218.697 56.1916C218.697 56.238 218.693 56.2808 218.686 56.313C218.679 56.3486 218.668 56.3772 218.654 56.3986C218.64 56.42 218.622 56.4379 218.601 56.4486C218.58 56.4593 218.555 56.4664 218.526 56.4664H216.038V59.2892H218.97C218.994 59.2892 219.019 59.2963 219.041 59.307C219.062 59.3177 219.083 59.3391 219.097 59.3606C219.111 59.382 219.126 59.4141 219.133 59.4533C219.14 59.4926 219.143 59.5354 219.143 59.589V59.5997Z" fill="#5A045A" style="fill:#5A045A;fill:color(display-p3 0.3529 0.0157 0.3529);fill-opacity:1;"/>
<path d="M226.339 59.5889C226.339 59.6389 226.336 59.6853 226.329 59.721C226.322 59.7566 226.311 59.7888 226.297 59.8173C226.283 59.8458 226.265 59.8637 226.244 59.878C226.223 59.8922 226.198 59.8958 226.169 59.8958H223.124C223.06 59.8958 222.993 59.8708 222.922 59.8209C222.851 59.7709 222.819 59.6817 222.819 59.5497V52.9299C222.819 52.9084 222.826 52.887 222.837 52.8692C222.848 52.8513 222.865 52.8371 222.89 52.8264C222.915 52.8157 222.95 52.805 222.993 52.7978C223.036 52.7907 223.089 52.7871 223.149 52.7871C223.213 52.7871 223.266 52.7871 223.309 52.7978C223.351 52.8085 223.383 52.8157 223.408 52.8264C223.433 52.8371 223.45 52.8513 223.461 52.8692C223.472 52.887 223.479 52.9084 223.479 52.9299V59.2891H226.166C226.194 59.2891 226.219 59.2963 226.24 59.307C226.262 59.3213 226.279 59.3391 226.293 59.3605C226.308 59.3855 226.318 59.414 226.325 59.4533C226.332 59.4926 226.336 59.5354 226.336 59.5889H226.339Z" fill="#5A045A" style="fill:#5A045A;fill:color(display-p3 0.3529 0.0157 0.3529);fill-opacity:1;"/>
<path d="M234.858 56.2772C234.858 56.841 234.794 57.3549 234.666 57.8117C234.539 58.2685 234.344 58.661 234.089 58.9822C233.83 59.3034 233.507 59.5532 233.117 59.7281C232.727 59.9029 232.27 59.9921 231.749 59.9921C231.228 59.9921 230.781 59.9101 230.405 59.7423C230.03 59.5782 229.725 59.3391 229.484 59.0322C229.243 58.7253 229.065 58.347 228.952 57.9045C228.838 57.4584 228.782 56.9588 228.782 56.4021C228.782 55.8454 228.846 55.3458 228.973 54.8926C229.101 54.4394 229.292 54.0539 229.551 53.7363C229.81 53.4187 230.132 53.1689 230.522 52.9941C230.912 52.8192 231.37 52.73 231.894 52.73C232.419 52.73 232.848 52.8121 233.22 52.9762C233.592 53.1404 233.901 53.3759 234.145 53.6828C234.39 53.9897 234.571 54.3608 234.688 54.7998C234.805 55.2387 234.865 55.7312 234.865 56.2808L234.858 56.2772ZM234.152 56.3379C234.152 55.9203 234.113 55.5242 234.035 55.1602C233.957 54.7962 233.83 54.475 233.649 54.2038C233.468 53.9326 233.231 53.7185 232.936 53.565C232.642 53.4116 232.274 53.3331 231.834 53.3331C231.394 53.3331 231.033 53.4152 230.735 53.5757C230.437 53.7399 230.193 53.9576 230.008 54.2288C229.824 54.5 229.689 54.8212 229.608 55.1852C229.526 55.5492 229.487 55.9346 229.487 56.3379C229.487 56.7697 229.523 57.1694 229.597 57.5369C229.672 57.9081 229.796 58.2292 229.973 58.5004C230.15 58.7752 230.388 58.9893 230.685 59.1428C230.983 59.2963 231.352 59.3748 231.799 59.3748C232.245 59.3748 232.61 59.2927 232.912 59.125C233.213 58.9608 233.454 58.736 233.638 58.4576C233.823 58.1793 233.954 57.8545 234.035 57.4905C234.117 57.1265 234.156 56.7375 234.156 56.3343L234.152 56.3379Z" fill="#5A045A" style="fill:#5A045A;fill:color(display-p3 0.3529 0.0157 0.3529);fill-opacity:1;"/>
<path d="M243.366 59.671C243.387 59.7245 243.398 59.7709 243.394 59.8066C243.394 59.8423 243.38 59.8673 243.355 59.8851C243.331 59.903 243.295 59.9137 243.245 59.9208C243.196 59.9244 243.136 59.928 243.058 59.928C242.98 59.928 242.919 59.928 242.877 59.9208C242.831 59.9137 242.795 59.9065 242.77 59.8958C242.746 59.8851 242.728 59.8709 242.714 59.853C242.7 59.8352 242.689 59.8138 242.678 59.7888L242.005 57.901H238.921L238.275 59.7745C238.268 59.7995 238.258 59.8209 238.243 59.8387C238.229 59.8566 238.208 59.8709 238.183 59.8851C238.158 59.8994 238.123 59.9065 238.077 59.9137C238.031 59.9208 237.974 59.9244 237.907 59.9244C237.832 59.9244 237.768 59.9244 237.715 59.9137C237.666 59.9065 237.627 59.8923 237.605 59.8744C237.584 59.8566 237.57 59.8316 237.566 59.7995C237.566 59.7674 237.573 59.7245 237.595 59.6674L240.055 52.937C240.066 52.9085 240.083 52.8835 240.105 52.8621C240.126 52.8407 240.154 52.8264 240.19 52.8157C240.225 52.805 240.264 52.7978 240.314 52.7907C240.363 52.7871 240.417 52.7836 240.48 52.7836C240.544 52.7836 240.601 52.7836 240.651 52.7907C240.7 52.7978 240.743 52.805 240.775 52.8157C240.81 52.8264 240.835 52.8407 240.856 52.8621C240.877 52.8835 240.892 52.9085 240.902 52.937L243.362 59.6674L243.366 59.671ZM240.448 53.5365H240.441L239.116 57.3407H241.803L240.445 53.5365H240.448Z" fill="#5A045A" style="fill:#5A045A;fill:color(display-p3 0.3529 0.0157 0.3529);fill-opacity:1;"/>
<path d="M251.81 56.2558C251.81 56.8518 251.736 57.3728 251.587 57.8296C251.438 58.2828 251.218 58.6646 250.931 58.968C250.64 59.2749 250.282 59.5068 249.857 59.6638C249.431 59.8209 248.925 59.8994 248.333 59.8994H246.946C246.883 59.8994 246.815 59.8744 246.744 59.8244C246.673 59.7745 246.642 59.6853 246.642 59.5532V53.1654C246.642 53.0333 246.677 52.9441 246.744 52.8942C246.812 52.8442 246.879 52.8192 246.946 52.8192H248.425C249.024 52.8192 249.527 52.9013 249.938 53.0654C250.35 53.2296 250.694 53.4616 250.97 53.7613C251.247 54.0611 251.456 54.4215 251.597 54.8426C251.739 55.2637 251.81 55.7312 251.81 56.2487V56.2558ZM251.098 56.2879C251.098 55.8775 251.044 55.4957 250.942 55.1424C250.839 54.7891 250.679 54.4858 250.463 54.2324C250.247 53.979 249.974 53.7792 249.644 53.6329C249.315 53.4901 248.896 53.4152 248.386 53.4152H247.305V59.2998H248.389C248.868 59.2998 249.272 59.2392 249.602 59.1214C249.931 59.0036 250.208 58.8216 250.431 58.5718C250.651 58.3256 250.818 58.0116 250.927 57.6333C251.037 57.255 251.094 56.8054 251.094 56.2844L251.098 56.2879Z" fill="#5A045A" style="fill:#5A045A;fill:color(display-p3 0.3529 0.0157 0.3529);fill-opacity:1;"/>
<path d="M259.166 59.5997C259.166 59.646 259.162 59.6889 259.155 59.7246C259.148 59.7602 259.137 59.7924 259.12 59.8173C259.102 59.8423 259.084 59.8637 259.063 59.8744C259.042 59.8887 259.017 59.8923 258.992 59.8923H255.702C255.639 59.8923 255.571 59.8673 255.5 59.8173C255.429 59.7674 255.397 59.6782 255.397 59.5461V53.1583C255.397 53.0263 255.433 52.937 255.5 52.8871C255.568 52.8371 255.635 52.8121 255.702 52.8121H258.946C258.971 52.8121 258.996 52.8193 259.017 52.83C259.038 52.8442 259.056 52.8621 259.07 52.8871C259.084 52.9121 259.095 52.9442 259.102 52.9834C259.109 53.0227 259.113 53.0655 259.113 53.119C259.113 53.1654 259.113 53.2082 259.102 53.2439C259.095 53.2796 259.084 53.3117 259.07 53.3332C259.056 53.3581 259.038 53.376 259.017 53.3867C258.996 53.401 258.971 53.4045 258.946 53.4045H256.06V55.8919H258.549C258.577 55.8919 258.602 55.899 258.623 55.9097C258.645 55.924 258.662 55.9418 258.677 55.9632C258.691 55.9846 258.701 56.0168 258.708 56.056C258.716 56.0953 258.719 56.1381 258.719 56.1916C258.719 56.238 258.716 56.2808 258.708 56.313C258.701 56.3486 258.691 56.3772 258.677 56.3986C258.662 56.42 258.645 56.4379 258.623 56.4486C258.602 56.4593 258.577 56.4664 258.549 56.4664H256.06V59.2892H258.992C259.017 59.2892 259.042 59.2963 259.063 59.307C259.084 59.3177 259.106 59.3391 259.12 59.3606C259.134 59.382 259.148 59.4141 259.155 59.4533C259.162 59.4926 259.166 59.5354 259.166 59.589V59.5997Z" fill="#5A045A" style="fill:#5A045A;fill:color(display-p3 0.3529 0.0157 0.3529);fill-opacity:1;"/>
<path d="M268 56.2558C268 56.8518 267.925 57.3728 267.776 57.8296C267.627 58.2828 267.408 58.6646 267.12 58.968C266.83 59.2749 266.472 59.5068 266.046 59.6638C265.621 59.8209 265.114 59.8994 264.522 59.8994H263.136C263.072 59.8994 263.005 59.8744 262.934 59.8244C262.863 59.7745 262.831 59.6853 262.831 59.5532V53.1654C262.831 53.0333 262.867 52.9441 262.934 52.8942C263.001 52.8442 263.069 52.8192 263.136 52.8192H264.614C265.213 52.8192 265.717 52.9013 266.128 53.0654C266.539 53.2296 266.883 53.4616 267.159 53.7613C267.436 54.0611 267.645 54.4215 267.787 54.8426C267.929 55.2637 268 55.7312 268 56.2487V56.2558ZM267.291 56.2879C267.291 55.8775 267.237 55.4957 267.135 55.1424C267.032 54.7891 266.872 54.4858 266.656 54.2324C266.44 53.979 266.167 53.7792 265.837 53.6329C265.508 53.4901 265.089 53.4152 264.579 53.4152H263.498V59.2998H264.582C265.061 59.2998 265.465 59.2392 265.795 59.1214C266.124 59.0036 266.401 58.8216 266.624 58.5718C266.844 58.3256 267.011 58.0116 267.12 57.6333C267.23 57.255 267.287 56.8054 267.287 56.2844L267.291 56.2879Z" fill="#5A045A" style="fill:#5A045A;fill:color(display-p3 0.3529 0.0157 0.3529);fill-opacity:1;"/>
<path d="M38.7113 75.3658C58.6793 75.3658 74.8665 59.0706 74.8665 38.9694C74.8665 18.8682 58.6793 2.573 38.7113 2.573C18.7434 2.573 2.55615 18.8682 2.55615 38.9694C2.55615 59.0706 18.7434 75.3658 38.7113 75.3658Z" fill="#FDD39E" style="fill:#FDD39E;fill:color(display-p3 0.9917 0.8290 0.6198);fill-opacity:1;"/>
<path d="M38.7111 77.9388C28.3704 77.9388 18.6501 73.8848 11.3368 66.5263C4.02709 59.1642 0 49.3791 0 38.9694C0 28.5597 4.02709 18.7745 11.3368 11.4125C18.6501 4.05396 28.3704 0 38.7111 0C49.0518 0 58.7721 4.05396 66.0854 11.4125C73.3987 18.7745 77.4222 28.5597 77.4222 38.9694C77.4222 49.3791 73.3951 59.1642 66.0854 66.5263C58.7721 73.8884 49.0518 77.9388 38.7111 77.9388ZM38.7111 0.920705C17.8702 0.920705 0.914603 17.9894 0.914603 38.9694C0.914603 59.9493 17.8702 77.0181 38.7111 77.0181C59.552 77.0181 76.5076 59.9493 76.5076 38.9694C76.5076 17.9894 59.552 0.920705 38.7111 0.920705Z" fill="#FDD39E" style="fill:#FDD39E;fill:color(display-p3 0.9917 0.8290 0.6198);fill-opacity:1;"/>
<path d="M72.3745 38.9695C72.3745 39.6511 71.8994 40.3148 71.8569 40.9893C71.8144 41.6638 72.2114 42.3882 72.1299 43.0555C72.0483 43.7336 71.4989 44.3331 71.3783 44.9969C71.2578 45.6606 71.5627 46.4243 71.4032 47.0809C71.2436 47.7376 70.6233 48.2729 70.4212 48.9152C70.2191 49.5576 70.4318 50.3569 70.1943 50.9886C69.9533 51.6238 69.2762 52.0734 68.9997 52.6908C68.7232 53.3082 68.8366 54.1218 68.5246 54.7214C68.2127 55.3209 67.4824 55.6885 67.135 56.2666C66.7876 56.8447 66.8018 57.6655 66.4189 58.2222C66.0361 58.7789 65.2668 59.0537 64.852 59.5854C64.4373 60.1207 64.3557 60.9343 63.9091 61.4411C63.4624 61.9478 62.6683 62.1263 62.1933 62.608C61.7183 63.0898 61.541 63.8856 61.0341 64.3352C60.5272 64.7849 59.7225 64.867 59.1907 65.2845C58.6625 65.702 58.3895 66.4764 57.8365 66.8618C57.2835 67.2472 56.4682 67.2294 55.8939 67.5827C55.3196 67.9324 54.958 68.6676 54.3589 68.9816C53.7634 69.2956 52.9587 69.1814 52.3418 69.4598C51.7285 69.7381 51.2819 70.4233 50.6509 70.6624C50.0199 70.9015 49.2364 70.691 48.5913 70.8908C47.9496 71.0907 47.4249 71.7152 46.7691 71.8793C46.1133 72.0435 45.3653 71.733 44.6989 71.8543C44.0395 71.9757 43.4404 72.5324 42.7704 72.6109C42.1039 72.693 41.395 72.2933 40.7179 72.3361C40.0408 72.3789 39.3885 72.8571 38.7114 72.8571C38.0343 72.8571 37.375 72.3789 36.705 72.3361C36.035 72.2933 35.3153 72.693 34.6524 72.6109C33.9789 72.5288 33.3833 71.9757 32.7239 71.8543C32.0575 71.733 31.306 72.0399 30.6537 71.8793C29.9979 71.7187 29.4697 71.0942 28.8316 70.8908C28.1864 70.6874 27.3994 70.9015 26.7719 70.6624C26.1409 70.4198 25.6943 69.7381 25.081 69.4598C24.4642 69.1814 23.6595 69.2956 23.0639 68.9816C22.4683 68.6676 22.1032 67.9324 21.5289 67.5827C20.9546 67.233 20.1393 67.2472 19.5863 66.8618C19.0333 66.4764 18.7603 65.702 18.2321 65.2845C17.7039 64.867 16.8921 64.7849 16.3887 64.3352C15.8853 63.8856 15.7081 63.0862 15.2295 62.608C14.7509 62.1298 13.9604 61.9514 13.5137 61.4411C13.0671 60.9343 12.9855 60.1207 12.5708 59.5854C12.156 59.0501 11.3868 58.7789 11.0039 58.2222C10.621 57.6655 10.6388 56.8447 10.2878 56.2666C9.93686 55.6885 9.21014 55.3245 8.89818 54.7214C8.58622 54.1218 8.69966 53.3118 8.42315 52.6908C8.14665 52.0734 7.46601 51.6238 7.2285 50.9886C6.99099 50.3569 7.20014 49.5647 7.00162 48.9152C6.8031 48.2657 6.18273 47.7411 6.01966 47.0809C5.85659 46.4207 6.16501 45.6678 6.04448 44.9969C5.92395 44.3331 5.37093 43.73 5.29294 43.0555C5.21141 42.3846 5.60845 41.6709 5.56591 40.9893C5.52691 40.3184 5.04834 39.6511 5.04834 38.9695C5.04834 38.2878 5.52337 37.6241 5.56591 36.9496C5.60845 36.2751 5.21141 35.5507 5.29294 34.8834C5.37448 34.2053 5.92395 33.6058 6.04448 32.942C6.16501 32.2711 5.86014 31.5146 6.01966 30.858C6.17919 30.1978 6.79956 29.6661 7.00162 29.0237C7.20368 28.3742 6.99099 27.582 7.2285 26.9503C7.46956 26.3151 8.14665 25.8655 8.42315 25.2481C8.69966 24.6272 8.58622 23.8171 8.89818 23.2175C9.21368 22.618 9.9404 22.2504 10.2878 21.6723C10.6352 21.0942 10.621 20.2734 11.0039 19.7167C11.3868 19.16 12.156 18.8852 12.5708 18.3535C12.9855 17.8182 13.0671 17.0046 13.5137 16.4978C13.9604 15.9911 14.7545 15.8126 15.2295 15.3309C15.7045 14.8491 15.8818 14.0533 16.3887 13.6037C16.8956 13.154 17.7004 13.0719 18.2321 12.6544C18.7638 12.2369 19.0333 11.4625 19.5863 11.0771C20.1393 10.6917 20.9546 10.7095 21.5289 10.3562C22.1032 10.0029 22.4648 9.27135 23.0639 8.95731C23.6595 8.64328 24.4642 8.75747 25.081 8.47912C25.6943 8.20077 26.1409 7.51559 26.7719 7.27649C27.4029 7.03739 28.1864 7.24794 28.8316 7.0481C29.4732 6.84826 29.9979 6.22375 30.6537 6.05959C31.3095 5.89543 32.0575 6.2059 32.7239 6.08457C33.3833 5.96324 33.9824 5.40653 34.6524 5.32802C35.3189 5.24594 36.0279 5.64563 36.705 5.60281C37.382 5.55998 38.0343 5.08179 38.7114 5.08179C39.3885 5.08179 40.0479 5.55998 40.7179 5.60281C41.395 5.64206 42.1075 5.24594 42.7704 5.32802C43.4439 5.4101 44.0395 5.96324 44.6989 6.08457C45.3582 6.2059 46.1169 5.899 46.7691 6.05959C47.4214 6.22018 47.9532 6.84469 48.5913 7.0481C49.2364 7.25151 50.0234 7.03739 50.6509 7.27649C51.2783 7.51559 51.7285 8.20077 52.3418 8.47912C52.9551 8.75747 53.7634 8.64328 54.3589 8.95731C54.9545 9.27135 55.3196 10.0065 55.8939 10.3562C56.4717 10.7095 57.2835 10.6917 57.8365 11.0771C58.3895 11.4625 58.6625 12.2369 59.1907 12.6544C59.7225 13.0719 60.5307 13.154 61.0341 13.6037C61.5375 14.0533 61.7147 14.8527 62.1933 15.3309C62.6719 15.8091 63.4624 15.9875 63.9091 16.4978C64.3557 17.0081 64.4373 17.8182 64.852 18.3535C65.2668 18.8852 66.0361 19.16 66.4189 19.7167C66.8018 20.2734 66.7841 21.0942 67.135 21.6723C67.4824 22.2504 68.2127 22.6144 68.5246 23.2175C68.8366 23.8171 68.7232 24.6272 68.9997 25.2481C69.2762 25.869 69.9568 26.3151 70.1943 26.9503C70.4318 27.5855 70.2227 28.3742 70.4212 29.0237C70.6197 29.6732 71.2401 30.1978 71.4032 30.858C71.5627 31.5146 71.2578 32.2711 71.3783 32.942C71.4989 33.6058 72.0519 34.2089 72.1299 34.8834C72.2114 35.5543 71.8144 36.268 71.8569 36.9496C71.8959 37.6205 72.3745 38.2878 72.3745 38.9695Z" fill="#FDD39E" style="fill:#FDD39E;fill:color(display-p3 0.9917 0.8290 0.6198);fill-opacity:1;"/>
<path d="M38.7112 73.089C38.3142 73.089 37.942 72.9499 37.5769 72.8107C37.2684 72.6929 36.9742 72.5859 36.6906 72.568C36.3999 72.5502 36.0951 72.6251 35.7689 72.7036C35.3967 72.7928 35.0103 72.8892 34.6239 72.8428C34.2304 72.7964 33.8759 72.6108 33.532 72.4324C33.2378 72.279 32.9613 72.1362 32.6812 72.0827C32.3976 72.0292 32.0821 72.0684 31.7525 72.1077C31.3696 72.1541 30.9761 72.2005 30.5968 72.1077C30.2139 72.0113 29.8843 71.7865 29.5652 71.5652C29.2922 71.3761 29.0335 71.2012 28.7605 71.1156C28.484 71.0299 28.172 71.0264 27.8388 71.0264C27.4524 71.0264 27.0554 71.0228 26.6902 70.8836C26.3216 70.7445 26.0202 70.4768 25.7295 70.2199C25.4814 69.9986 25.2474 69.7916 24.9851 69.6739C24.7228 69.5561 24.4108 69.5133 24.0811 69.474C23.6983 69.4241 23.3048 69.3741 22.9574 69.1921C22.61 69.0065 22.3441 68.7068 22.0853 68.4177C21.8655 68.1679 21.6564 67.9324 21.4118 67.7861C21.1636 67.6362 20.8623 67.5577 20.5397 67.4756C20.1675 67.3792 19.7811 67.2829 19.4585 67.0581C19.1359 66.8332 18.9055 66.5049 18.6857 66.1838C18.4978 65.909 18.317 65.652 18.0901 65.4736C17.8632 65.2952 17.5726 65.181 17.2606 65.0596C16.9026 64.9205 16.5303 64.7742 16.2361 64.5136C15.9419 64.2496 15.754 63.8963 15.5732 63.5537C15.4172 63.2575 15.2719 62.9791 15.0663 62.7757C14.8607 62.5723 14.5877 62.4224 14.2935 62.2654C13.9531 62.0834 13.6022 61.8943 13.3399 61.5981C13.0811 61.3019 12.9357 60.9272 12.7975 60.5667C12.677 60.2563 12.5635 59.9601 12.3863 59.7317C12.209 59.5033 11.9502 59.3249 11.6808 59.1322C11.3653 58.9109 11.0356 58.6825 10.8123 58.3542C10.589 58.0294 10.4897 57.6405 10.3975 57.2658C10.316 56.941 10.238 56.6341 10.0891 56.3879C9.94023 56.1416 9.70626 55.9311 9.46166 55.7098C9.17452 55.4493 8.87674 55.1817 8.6924 54.832C8.51161 54.4822 8.45843 54.0861 8.41235 53.7007C8.36981 53.3688 8.33081 53.0548 8.21383 52.7907C8.09684 52.5266 7.89124 52.2911 7.67145 52.0413C7.41621 51.7487 7.15388 51.4453 7.01208 51.0742C6.87383 50.7066 6.87028 50.3069 6.87028 49.918C6.87028 49.5825 6.87028 49.2685 6.78166 48.9901C6.69658 48.7153 6.51933 48.4548 6.33499 48.18C6.11875 47.8589 5.89187 47.527 5.79616 47.1416C5.70399 46.7597 5.75007 46.3636 5.79616 45.9782C5.83515 45.6463 5.8706 45.3323 5.82097 45.0432C5.77134 44.7613 5.626 44.4829 5.47356 44.1868C5.29632 43.8406 5.11198 43.4837 5.06589 43.0876C5.01981 42.6986 5.11198 42.3097 5.20415 41.9349C5.28214 41.6102 5.35658 41.2997 5.33886 41.0071C5.32113 40.7216 5.21124 40.4254 5.0978 40.115C4.96309 39.7509 4.82129 39.3727 4.82129 38.973C4.82129 38.5733 4.95954 38.1986 5.0978 37.831C5.21478 37.5206 5.32113 37.2244 5.33886 36.9389C5.35658 36.6462 5.28214 36.3393 5.20415 36.011C5.11552 35.6363 5.01981 35.2473 5.06589 34.8584C5.11198 34.4622 5.29632 34.1054 5.47356 33.7592C5.626 33.463 5.7678 33.1847 5.82097 32.9028C5.87415 32.6173 5.83515 32.2997 5.79616 31.9678C5.75007 31.5824 5.70399 31.1862 5.79616 30.8044C5.89187 30.419 6.1152 30.0871 6.33499 29.7659C6.52288 29.4912 6.69658 29.2306 6.78166 28.9559C6.86674 28.6775 6.87028 28.3599 6.87028 28.028C6.87028 27.639 6.87383 27.2394 7.01208 26.8718C7.15034 26.5006 7.41621 26.1973 7.67145 25.9047C7.89124 25.6549 8.09684 25.4194 8.21383 25.1553C8.33081 24.8912 8.37335 24.5772 8.41235 24.2453C8.46198 23.8599 8.51161 23.4637 8.6924 23.114C8.87674 22.7643 9.17452 22.4966 9.46166 22.2361C9.70981 22.0149 9.94378 21.8043 10.0891 21.5581C10.238 21.3083 10.316 21.005 10.3975 20.6802C10.4932 20.3055 10.589 19.9165 10.8123 19.5918C11.0356 19.267 11.3618 19.0351 11.6808 18.8138C11.9538 18.6247 12.209 18.4427 12.3863 18.2143C12.5635 17.9859 12.677 17.6933 12.7975 17.3792C12.9357 17.0188 13.0811 16.6441 13.3399 16.3479C13.6022 16.0517 13.9531 15.8626 14.2935 15.6806C14.5877 15.5236 14.8642 15.3772 15.0663 15.1703C15.2683 14.9668 15.4172 14.6885 15.5732 14.3923C15.754 14.0497 15.9419 13.6964 16.2361 13.4323C16.5303 13.1718 16.9026 13.0255 17.2606 12.8863C17.569 12.765 17.8632 12.6508 18.0901 12.4724C18.317 12.2939 18.4943 12.0334 18.6857 11.7622C18.9055 11.4446 19.1323 11.1127 19.4585 10.8879C19.7811 10.6631 20.1675 10.5667 20.5397 10.4704C20.8623 10.3883 21.1672 10.3098 21.4118 10.1599C21.6564 10.01 21.8655 9.7745 22.0853 9.52826C22.3441 9.23921 22.61 8.93944 22.9574 8.75387C23.3048 8.57187 23.6983 8.51834 24.0811 8.47195C24.4108 8.42913 24.7228 8.38987 24.9851 8.27211C25.2474 8.15434 25.4814 7.94736 25.7295 7.72611C26.0202 7.46917 26.3216 7.20509 26.6902 7.06234C27.0554 6.92317 27.4524 6.9196 27.8388 6.9196C28.172 6.9196 28.484 6.9196 28.7605 6.83038C29.0335 6.74474 29.2922 6.5663 29.5652 6.38074C29.8843 6.16305 30.2139 5.93466 30.5968 5.83831C30.9761 5.74552 31.3731 5.79191 31.7525 5.83831C32.0821 5.87756 32.3941 5.91325 32.6812 5.86329C32.9613 5.81333 33.2378 5.66701 33.532 5.51356C33.8759 5.33513 34.2304 5.14956 34.6239 5.10317C35.0103 5.05678 35.3967 5.14956 35.7689 5.24235C36.0915 5.32085 36.3999 5.3958 36.6906 5.37795C36.9742 5.36011 37.2684 5.24948 37.5769 5.13529C37.9384 4.99968 38.3142 4.85693 38.7112 4.85693C39.1083 4.85693 39.4805 4.99611 39.8456 5.13529C40.154 5.25305 40.4483 5.36011 40.7319 5.37795C41.0226 5.3958 41.3274 5.32085 41.6536 5.24235C42.0258 5.14956 42.4122 5.05678 42.7986 5.10317C43.1921 5.14956 43.5466 5.33513 43.8904 5.51356C44.1847 5.66701 44.4612 5.80976 44.7412 5.86329C45.0248 5.91682 45.3368 5.87756 45.67 5.83831C46.0529 5.79191 46.4464 5.74552 46.8257 5.83831C47.2085 5.93466 47.5382 6.15948 47.8573 6.38074C48.1302 6.56987 48.389 6.74474 48.662 6.83038C48.9385 6.91603 49.254 6.9196 49.5837 6.9196C49.9701 6.9196 50.3671 6.92317 50.7322 7.06234C51.1009 7.20152 51.4022 7.46917 51.6929 7.72611C51.9411 7.94736 52.175 8.15434 52.4374 8.27211C52.6997 8.38987 53.0117 8.4327 53.3413 8.47195C53.7242 8.52191 54.1177 8.57187 54.4651 8.75387C54.8125 8.93944 55.0784 9.23921 55.3372 9.52826C55.557 9.77807 55.7661 10.0136 56.0107 10.1599C56.2589 10.3098 56.5602 10.3883 56.8828 10.4704C57.255 10.5667 57.6414 10.6631 57.964 10.8879C58.2866 11.1127 58.517 11.441 58.7368 11.7622C58.9247 12.037 59.1055 12.2939 59.3324 12.4724C59.5592 12.6508 59.8499 12.765 60.1619 12.8863C60.5199 13.0255 60.8921 13.1718 61.1864 13.4323C61.4806 13.6964 61.6685 14.0497 61.8493 14.3923C62.0053 14.6885 62.1506 14.9668 62.3562 15.1703C62.5583 15.3737 62.8348 15.5236 63.129 15.6806C63.4693 15.8626 63.8203 16.0517 64.0826 16.3479C64.3414 16.6441 64.4867 17.0188 64.625 17.3792C64.7455 17.6897 64.859 17.9859 65.0362 18.2143C65.2135 18.4427 65.4722 18.6211 65.7417 18.8138C66.0572 19.0351 66.3868 19.2635 66.6102 19.5918C66.8335 19.9165 66.9292 20.3055 67.0249 20.6802C67.1065 21.005 67.1845 21.3119 67.3334 21.5581C67.4823 21.8043 67.7162 22.0149 67.9608 22.2361C68.248 22.4966 68.5457 22.7643 68.7301 23.114C68.9109 23.4637 68.964 23.8599 69.0101 24.2453C69.0527 24.5772 69.0917 24.8912 69.2086 25.1553C69.3256 25.4194 69.5312 25.6549 69.751 25.9047C70.0063 26.1973 70.2686 26.5006 70.4104 26.8718C70.5486 27.2394 70.5522 27.6426 70.5522 28.028C70.5522 28.3635 70.5522 28.6775 70.6408 28.9559C70.7259 29.2306 70.9031 29.4912 71.0875 29.7659C71.3037 30.0871 71.5306 30.419 71.6263 30.808C71.7185 31.1898 71.6724 31.5859 71.6263 31.9713C71.5873 32.3032 71.5519 32.6173 71.6015 32.9063C71.6511 33.1882 71.7965 33.4666 71.9489 33.7628C72.1262 34.109 72.3105 34.4658 72.3566 34.8619C72.4027 35.2509 72.3105 35.6399 72.2183 36.0146C72.1403 36.3393 72.0659 36.6498 72.0836 36.9424C72.1013 37.2279 72.2112 37.5241 72.3247 37.8346C72.4594 38.1986 72.6012 38.5769 72.6012 38.9766C72.6012 39.3762 72.4629 39.7509 72.3247 40.1185C72.2077 40.429 72.1013 40.7252 72.0836 41.0107C72.0659 41.3033 72.1403 41.6102 72.2183 41.9385C72.307 42.3132 72.4027 42.7022 72.3566 43.0912C72.3105 43.4873 72.1262 43.8442 71.9489 44.1903C71.7965 44.4865 71.6547 44.7649 71.6015 45.0468C71.5483 45.3323 71.5873 45.6499 71.6263 45.9818C71.6724 46.3672 71.7185 46.7633 71.6263 47.1451C71.5306 47.5306 71.3073 47.8624 71.0875 48.1872C70.8996 48.462 70.7259 48.7225 70.6408 48.9973C70.5557 49.2756 70.5522 49.5896 70.5522 49.9251C70.5522 50.3141 70.5486 50.7138 70.4104 51.0813C70.2721 51.4525 70.0063 51.7558 69.751 52.0484C69.5312 52.2982 69.3256 52.5338 69.2086 52.7978C69.0917 53.0619 69.0491 53.376 69.0101 53.7078C68.9605 54.0933 68.9109 54.4894 68.7301 54.8391C68.5457 55.1888 68.248 55.4565 67.9608 55.717C67.7127 55.9382 67.4787 56.1488 67.3334 56.395C67.1845 56.6448 67.1065 56.9482 67.0249 57.2729C66.9292 57.6476 66.8335 58.0366 66.6102 58.3613C66.3868 58.6861 66.0607 58.918 65.7417 59.1393C65.4687 59.3284 65.2135 59.5104 65.0362 59.7388C64.859 59.9672 64.7455 60.2598 64.625 60.5739C64.4867 60.9343 64.3414 61.309 64.0826 61.6052C63.8203 61.9014 63.4693 62.0905 63.129 62.2725C62.8348 62.4296 62.5583 62.5759 62.3562 62.7829C62.1541 62.9863 62.0053 63.2646 61.8493 63.5608C61.6685 63.9034 61.4806 64.2567 61.1864 64.5208C60.8921 64.7849 60.5199 64.9276 60.1619 65.0668C59.8535 65.1881 59.5592 65.3023 59.3324 65.4807C59.1055 65.6592 58.9282 65.9197 58.7368 66.1909C58.517 66.5085 58.2901 66.8404 57.964 67.0652C57.6414 67.29 57.255 67.39 56.8828 67.4827C56.5602 67.5648 56.2553 67.6433 56.0107 67.7932C55.7661 67.9431 55.557 68.1786 55.3372 68.4249C55.0784 68.7139 54.8125 69.0137 54.4651 69.1992C54.1177 69.3812 53.7242 69.4348 53.3413 69.4812C53.0117 69.524 52.6997 69.5632 52.4374 69.681C52.175 69.7988 51.9411 70.0058 51.6929 70.227C51.4022 70.4839 51.1009 70.748 50.7322 70.8908C50.3671 71.0299 49.9665 71.0335 49.5837 71.0335C49.2504 71.0335 48.9385 71.0335 48.662 71.1227C48.389 71.2084 48.1302 71.3868 47.8573 71.5724C47.5382 71.7901 47.2085 72.0185 46.8221 72.1148C46.4428 72.2076 46.0493 72.1612 45.6665 72.1148C45.3368 72.0756 45.0248 72.0399 44.7377 72.0898C44.4576 72.1398 44.1811 72.2861 43.8869 72.4396C43.543 72.618 43.1885 72.8036 42.7951 72.8499C42.4086 72.8963 42.0222 72.8036 41.65 72.7108C41.3274 72.6323 41.019 72.5573 40.7283 72.5752C40.4447 72.593 40.1505 72.7036 39.8421 72.8178C39.4805 72.9534 39.1047 73.0962 38.7077 73.0962L38.7112 73.089ZM36.6055 72.1041C36.6445 72.1041 36.68 72.1041 36.719 72.1041C37.0699 72.1255 37.4102 72.254 37.7364 72.3753C38.0767 72.5038 38.3957 72.6216 38.7112 72.6216C39.0267 72.6216 39.3458 72.5002 39.6861 72.3753C40.0122 72.254 40.3526 72.1255 40.7035 72.1041C41.0616 72.0827 41.4161 72.1683 41.7599 72.254C42.1073 72.3396 42.4406 72.4181 42.7454 72.3825C43.0574 72.3432 43.3587 72.1862 43.6813 72.0185C43.9933 71.8579 44.3123 71.6901 44.6597 71.6259C45.0107 71.5617 45.3722 71.6045 45.7232 71.6438C46.0812 71.6866 46.418 71.7258 46.7158 71.6509C47.0207 71.576 47.3007 71.3832 47.602 71.1763C47.8892 70.9764 48.1905 70.773 48.5273 70.666C48.8676 70.5589 49.2327 70.5589 49.5837 70.5553C49.9453 70.5553 50.2856 70.5553 50.5727 70.4411C50.8634 70.3305 51.1222 70.1021 51.3916 69.863C51.6539 69.6311 51.9269 69.392 52.2495 69.2421C52.5756 69.0958 52.9337 69.0494 53.2846 69.003C53.6427 68.9566 53.9794 68.9138 54.2524 68.7674C54.5289 68.6211 54.7558 68.3642 54.9968 68.093C55.2308 67.8289 55.4719 67.5577 55.7767 67.3721C56.0816 67.1865 56.4326 67.0973 56.7729 67.0117C57.1238 66.9225 57.4535 66.8404 57.7088 66.662C57.964 66.4835 58.159 66.2016 58.3646 65.9054C58.5666 65.6163 58.7722 65.3166 59.0523 65.0953C59.3324 64.8741 59.6727 64.742 59.9988 64.6171C60.3356 64.4851 60.6546 64.3638 60.8851 64.1568C61.119 63.9498 61.2785 63.6465 61.4452 63.3253C61.6082 63.0148 61.7784 62.6901 62.0301 62.4367C62.2818 62.1833 62.6008 62.012 62.9128 61.8479C63.2318 61.6766 63.5331 61.516 63.7388 61.284C63.9444 61.0521 64.0684 60.7309 64.1961 60.3919C64.3237 60.0636 64.4513 59.721 64.6746 59.4391C64.8944 59.1571 65.1922 58.9502 65.4793 58.7467C65.7771 58.5398 66.0536 58.3435 66.2309 58.0865C66.4081 57.8296 66.4897 57.4977 66.5783 57.1444C66.6634 56.8018 66.752 56.4486 66.9363 56.1416C67.1207 55.8347 67.3901 55.5921 67.6524 55.3565C67.9218 55.1139 68.1771 54.8855 68.3224 54.6071C68.4678 54.3324 68.5103 53.9933 68.5564 53.6329C68.6025 53.2832 68.645 52.9192 68.7939 52.5909C68.9392 52.2661 69.1768 51.9913 69.4107 51.7273C69.6482 51.4525 69.8751 51.1955 69.985 50.9029C70.0949 50.6138 70.0949 50.2713 70.0984 49.9073C70.0984 49.554 70.102 49.1864 70.2083 48.8438C70.3147 48.5048 70.5167 48.2015 70.7153 47.9124C70.9209 47.6126 71.1123 47.3271 71.1867 47.0202C71.2612 46.7205 71.2222 46.3779 71.1797 46.021C71.1371 45.6677 71.0981 45.3037 71.1619 44.9504C71.2257 44.6007 71.3923 44.276 71.5519 43.9655C71.7185 43.6408 71.8745 43.3374 71.9135 43.0234C71.9489 42.7165 71.8709 42.3846 71.7858 42.0313C71.7043 41.6851 71.6157 41.3283 71.637 40.9679C71.6582 40.6146 71.7858 40.272 71.9064 39.9437C72.034 39.6011 72.151 39.2799 72.151 38.9623C72.151 38.6447 72.0304 38.3235 71.9064 37.9809C71.7858 37.6526 71.6582 37.31 71.637 36.9567C71.6157 36.5963 71.7008 36.2394 71.7858 35.8933C71.8709 35.5435 71.9489 35.2117 71.9135 34.9012C71.8745 34.5872 71.7185 34.2838 71.5519 33.9591C71.3923 33.645 71.2257 33.3239 71.1619 32.9741C71.0981 32.6208 71.1407 32.2568 71.1797 31.9035C71.2222 31.5431 71.2612 31.2041 71.1867 30.9043C71.1123 30.5974 70.9209 30.3155 70.7153 30.0122C70.5167 29.7231 70.3147 29.4198 70.2083 29.0808C70.102 28.7382 70.102 28.3706 70.0984 28.0173C70.0984 27.6533 70.0984 27.3107 69.985 27.0217C69.8751 26.729 69.6482 26.4685 69.4107 26.1973C69.1803 25.9332 68.9392 25.6584 68.7939 25.3337C68.6485 25.0054 68.6025 24.645 68.5564 24.2917C68.5103 23.9312 68.4678 23.5922 68.3224 23.3174C68.1771 23.0391 67.9218 22.8107 67.6524 22.568C67.3901 22.3325 67.1207 22.0898 66.9363 21.7829C66.752 21.476 66.6634 21.1227 66.5783 20.7801C66.4897 20.4268 66.4081 20.095 66.2309 19.838C66.0536 19.5811 65.7736 19.3848 65.4793 19.1778C65.1922 18.9744 64.8944 18.7674 64.6746 18.4855C64.4548 18.2036 64.3237 17.861 64.1996 17.5327C64.0684 17.1937 63.9479 16.8725 63.7423 16.6405C63.5367 16.405 63.2354 16.2444 62.9163 16.0767C62.6079 15.9125 62.2853 15.7412 62.0336 15.4879C61.7819 15.2345 61.6118 14.9133 61.4487 14.5993C61.2785 14.2781 61.119 13.9748 60.8886 13.7678C60.6582 13.5608 60.3391 13.4359 60.0023 13.3074C59.6762 13.179 59.3359 13.0505 59.0558 12.8292C58.7758 12.608 58.5702 12.3082 58.3681 12.0192C58.1625 11.7194 57.9675 11.4375 57.7123 11.2626C57.4571 11.0842 57.1274 11.0021 56.7764 10.9129C56.4361 10.8272 56.0852 10.738 55.7803 10.5525C55.4754 10.3669 55.2344 10.0957 55.0004 9.8316C54.7593 9.56038 54.5325 9.30344 54.256 9.15713C53.983 9.01081 53.6462 8.96799 53.2882 8.9216C52.9408 8.87521 52.5792 8.83238 52.253 8.6825C51.9304 8.53619 51.6575 8.29709 51.3952 8.06156C51.1222 7.82246 50.867 7.59407 50.5763 7.48344C50.2891 7.37281 49.9488 7.37281 49.5872 7.36925C49.2363 7.36925 48.8711 7.36568 48.5308 7.25862C48.194 7.15156 47.8927 6.94815 47.6056 6.7483C47.3078 6.54132 47.0242 6.34862 46.7193 6.27368C46.4216 6.19874 46.0812 6.23799 45.7267 6.28082C45.3758 6.32364 45.0142 6.36289 44.6633 6.29866C44.3158 6.23442 43.9933 6.0667 43.6848 5.90611C43.3622 5.73838 43.0609 5.58136 42.749 5.54211C42.4441 5.50642 42.1144 5.58493 41.7635 5.67058C41.4196 5.75266 41.0686 5.84187 40.7071 5.82046C40.3561 5.79905 40.0158 5.67058 39.6897 5.54925C39.3493 5.42078 39.0303 5.30301 38.7148 5.30301C38.3993 5.30301 38.0802 5.42435 37.7399 5.54925C37.4138 5.67058 37.0735 5.79905 36.7225 5.82046C36.3645 5.84187 36.01 5.75623 35.6661 5.67058C35.3187 5.58493 34.989 5.50642 34.6806 5.54211C34.3686 5.58136 34.0673 5.73838 33.7447 5.90611C33.4328 6.0667 33.1137 6.23442 32.7663 6.29866C32.4154 6.36289 32.0538 6.32007 31.7028 6.28082C31.3448 6.23799 31.008 6.19874 30.7102 6.27368C30.4054 6.34862 30.1253 6.54132 29.824 6.7483C29.5368 6.94815 29.2355 7.15156 28.8988 7.25862C28.5584 7.36568 28.1933 7.36568 27.8424 7.36925C27.4808 7.36925 27.1404 7.36925 26.8533 7.48344C26.5626 7.59407 26.3038 7.82246 26.0344 8.06156C25.7721 8.29352 25.4991 8.53262 25.1765 8.6825C24.8504 8.82881 24.4923 8.87521 24.1414 8.9216C23.7834 8.96799 23.4466 9.01081 23.1736 9.15713C22.8971 9.30344 22.6702 9.56038 22.4292 9.8316C22.1952 10.0957 21.9541 10.3669 21.6493 10.5525C21.3444 10.738 20.9935 10.8272 20.6531 10.9129C20.3022 11.0021 19.9725 11.0842 19.7173 11.2626C19.462 11.441 19.2671 11.723 19.0614 12.0192C18.8594 12.3082 18.6538 12.608 18.3737 12.8292C18.0937 13.0505 17.7534 13.1825 17.4272 13.311C17.0904 13.443 16.7714 13.5644 16.541 13.7714C16.307 13.9783 16.1475 14.2817 15.9809 14.6028C15.8178 14.9133 15.6476 15.2381 15.3959 15.4914C15.1443 15.7448 14.8252 15.9161 14.5132 16.0803C14.1942 16.2516 13.8929 16.4121 13.6873 16.6441C13.4817 16.8761 13.3576 17.1972 13.23 17.5363C13.1023 17.8646 12.9747 18.2072 12.7549 18.4891C12.5352 18.771 12.2374 18.978 11.9502 19.1814C11.6525 19.3884 11.3724 19.5846 11.1987 19.8416C11.0214 20.0985 10.9399 20.4304 10.8513 20.7837C10.7662 21.1263 10.6776 21.4796 10.4932 21.7865C10.3089 22.0934 10.0395 22.3361 9.77716 22.5716C9.50774 22.8143 9.25251 23.0426 9.10716 23.321C8.96182 23.5958 8.91928 23.9384 8.87319 24.2952C8.82711 24.645 8.78457 25.009 8.63568 25.3373C8.49034 25.662 8.25282 25.9368 8.01886 26.2009C7.78134 26.4757 7.55446 26.7326 7.44457 27.0252C7.33468 27.3143 7.33468 27.6569 7.33113 28.0209C7.33113 28.3742 7.32759 28.7417 7.22124 29.0843C7.11489 29.4233 6.91282 29.7267 6.71431 30.0157C6.5087 30.3155 6.31727 30.601 6.24282 30.9079C6.16838 31.2077 6.20737 31.5503 6.24991 31.9071C6.29245 32.2604 6.33499 32.6244 6.26764 32.9777C6.20383 33.3274 6.03721 33.6522 5.87769 33.9626C5.71108 34.2874 5.5551 34.5943 5.5161 34.9048C5.48065 35.2117 5.55864 35.5435 5.64372 35.8968C5.72526 36.243 5.81388 36.5999 5.79261 36.9603C5.77134 37.3136 5.64372 37.6562 5.52319 37.9845C5.39557 38.3271 5.27859 38.6482 5.27859 38.9659C5.27859 39.2835 5.39912 39.6046 5.52319 39.9472C5.64372 40.2755 5.77134 40.6181 5.79261 40.9714C5.81388 41.3319 5.7288 41.6887 5.64372 42.0349C5.55864 42.3846 5.48065 42.7165 5.5161 43.0269C5.5551 43.341 5.71108 43.6443 5.87769 43.9691C6.03721 44.2831 6.20383 44.6043 6.26764 44.954C6.33145 45.3073 6.28891 45.6713 6.24991 46.0246C6.20737 46.385 6.16838 46.724 6.24282 47.0238C6.31727 47.3307 6.5087 47.6126 6.71431 47.916C6.91282 48.205 7.11489 48.5084 7.22124 48.8474C7.32759 49.19 7.32759 49.5575 7.33113 49.9108C7.33113 50.2748 7.33113 50.6174 7.44457 50.9065C7.55446 51.1991 7.78134 51.4596 8.01886 51.7308C8.24928 51.9949 8.48679 52.2697 8.63568 52.5944C8.78103 52.9227 8.82711 53.2832 8.87319 53.6365C8.91928 53.9969 8.96182 54.3359 9.10716 54.6107C9.25251 54.8891 9.50774 55.1175 9.77716 55.3601C10.0395 55.5956 10.3089 55.8383 10.4932 56.1452C10.6776 56.4521 10.7662 56.8054 10.8513 57.148C10.9399 57.5013 11.0214 57.8332 11.1987 58.0901C11.3759 58.3471 11.656 58.5433 11.9502 58.7503C12.2374 58.9537 12.5352 59.1607 12.7549 59.4426C12.9747 59.7245 13.1059 60.0671 13.23 60.3954C13.3611 60.7345 13.4817 61.0556 13.6873 61.2876C13.8929 61.5231 14.1942 61.6837 14.5132 61.8514C14.8217 62.0156 15.1443 62.1869 15.3959 62.4403C15.6476 62.6936 15.8178 63.0148 15.9809 63.3289C16.151 63.65 16.3105 63.9534 16.541 64.1603C16.7714 64.3673 17.0904 64.4922 17.4272 64.6207C17.7534 64.7492 18.0937 64.8776 18.3737 65.0989C18.6538 65.3201 18.8594 65.6199 19.0614 65.909C19.2671 66.2087 19.462 66.4907 19.7173 66.6655C19.9725 66.844 20.3022 66.926 20.6531 67.0152C20.9935 67.1009 21.3444 67.1901 21.6493 67.3757C21.9541 67.5612 22.1952 67.8325 22.4292 68.0965C22.6702 68.3678 22.8971 68.6247 23.1736 68.771C23.4466 68.9173 23.7869 68.9601 24.1414 69.0065C24.4888 69.0529 24.8504 69.0957 25.1765 69.2456C25.4991 69.3919 25.7721 69.6311 26.0344 69.8666C26.3074 70.1057 26.5626 70.3341 26.8533 70.4447C27.1404 70.5553 27.4808 70.5553 27.8424 70.5589C28.1933 70.5589 28.5584 70.5625 28.8988 70.6695C29.2355 70.7766 29.5368 70.98 29.824 71.1798C30.1218 71.3868 30.4054 71.5795 30.7102 71.6545C31.008 71.7294 31.3483 71.6901 31.7028 71.6473C32.0538 71.6045 32.4154 71.5652 32.7663 71.6295C33.1137 71.6937 33.4363 71.8614 33.7447 72.022C34.0673 72.1898 34.3686 72.3468 34.6806 72.386C34.9855 72.4217 35.3152 72.3432 35.6661 72.2576C35.971 72.1826 36.29 72.1041 36.6091 72.1041H36.6055Z" fill="#C67710" style="fill:#C67710;fill:color(display-p3 0.7750 0.4678 0.0646);fill-opacity:1;"/>
<path d="M11.9252 34.7869L8.01514 41.4495H15.8353L11.9252 34.7869ZM11.9252 36.432L14.3819 40.6144H9.47212L11.9288 36.432H11.9252Z" fill="#C67710" style="fill:#C67710;fill:color(display-p3 0.7750 0.4678 0.0646);fill-opacity:1;"/>
<path d="M65.497 42.2846L69.4071 35.6219H61.5869L65.497 42.2846ZM65.497 40.643L63.0404 36.4606H67.9501L65.4935 40.643H65.497Z" fill="#C67710" style="fill:#C67710;fill:color(display-p3 0.7750 0.4678 0.0646);fill-opacity:1;"/>
<path d="M42.5785 15.081L40.7209 11.9156H42.4863V11.0805H40.2317L38.6684 8.41833L37.1051 11.0805H34.8505V11.9156H36.6159L34.7583 15.081H42.5785ZM38.6684 10.0635L39.2675 11.0841H38.0693L38.6684 10.0635ZM39.7567 11.9156L41.1215 14.2459H36.2117L37.5801 11.9156H39.7567Z" fill="#C67710" style="fill:#C67710;fill:color(display-p3 0.7750 0.4678 0.0646);fill-opacity:1;"/>
<path d="M34.7832 62.8577L36.3749 65.5698H34.8506V66.4049H36.8641L38.6933 69.5203L40.5225 66.4049H42.4864V65.5698H41.0117L42.6034 62.8577H34.7832ZM38.6933 67.8752L37.8283 66.4013H39.5583L38.6933 67.8752ZM37.3391 65.5698L36.2366 63.6927H41.1464L40.0439 65.5698H37.3356H37.3391Z" fill="#C67710" style="fill:#C67710;fill:color(display-p3 0.7750 0.4678 0.0646);fill-opacity:1;"/>
<path d="M26.885 62.8042C26.4065 63.6357 25.3465 63.9212 24.5205 63.443C23.6945 62.9612 23.4109 61.8942 23.886 61.0627L24.0951 60.7023L21.6775 59.2998L21.2627 60.0242L22.9891 61.027C22.5531 62.1868 23.0033 63.5322 24.1058 64.171C25.2083 64.8098 26.5872 64.5314 27.3671 63.5714L29.0935 64.5742L29.5083 63.8498L27.0906 62.4473L26.8815 62.8078L26.885 62.8042Z" fill="#C67710" style="fill:#C67710;fill:color(display-p3 0.7750 0.4678 0.0646);fill-opacity:1;"/>
<path d="M22.3366 58.1453L21.9219 58.8685L29.7535 63.4203L30.1683 62.6971L22.3366 58.1453Z" fill="#C67710" style="fill:#C67710;fill:color(display-p3 0.7750 0.4678 0.0646);fill-opacity:1;"/>
<path d="M14.3073 49.3291L17.4127 50.6174L14.3108 52.4195L13.5628 51.1205L12.8467 51.5381L13.5912 52.837L12.0137 53.7542L12.4284 54.475L14.0059 53.5579L14.7539 54.8604L15.47 54.4429L14.7256 53.1404L17.8274 51.3382L17.3808 54.6892L18.2032 54.7998L18.8023 50.289L14.6228 48.5547L14.3073 49.3291Z" fill="#C67710" style="fill:#C67710;fill:color(display-p3 0.7750 0.4678 0.0646);fill-opacity:1;"/>
<path d="M50.3136 11.8407C50.6504 11.7479 50.9978 11.7979 51.2991 11.9727C51.6997 12.2047 51.9478 12.6401 51.9478 13.1325C51.9478 13.1504 52.0258 14.7955 50.0867 18.4855L50.8064 18.903C53.0113 15.3665 54.4683 14.6099 54.5073 14.5885C54.9079 14.3566 55.4042 14.3566 55.8048 14.5885C56.1061 14.7634 56.3188 15.0453 56.411 15.3808C56.4996 15.7162 56.4535 16.0695 56.2798 16.3728L56.9994 16.7904C57.283 16.2943 57.3575 15.7162 57.2121 15.1631C57.0632 14.6099 56.7123 14.1496 56.2195 13.8641C55.5637 13.4822 54.7484 13.4822 54.1245 13.8462C54.0819 13.8677 53.4155 14.196 52.3236 15.42C52.8305 13.8605 52.7809 13.1218 52.7774 13.0968C52.7774 12.3331 52.3697 11.623 51.7139 11.2447C51.2211 10.9592 50.6468 10.8843 50.1009 11.0306C49.5514 11.1805 49.0941 11.5338 48.8105 12.0298L49.5302 12.4473C49.7039 12.144 49.9839 11.9299 50.3172 11.8371L50.3136 11.8407Z" fill="#C67710" style="fill:#C67710;fill:color(display-p3 0.7750 0.4678 0.0646);fill-opacity:1;"/>
<path d="M58.9035 24.5343C58.2583 24.0525 57.5174 23.7028 56.7127 23.503L56.5142 24.313C57.9286 24.6628 59.1091 25.5514 59.8323 26.8146C60.5554 28.0779 60.7327 29.5482 60.325 30.9578L61.1226 31.1934C61.3566 30.3904 61.4239 29.5696 61.3318 28.7667L65.1284 26.5613C65.7736 27.043 66.511 27.3928 67.3192 27.5926L67.5178 26.7825C66.1033 26.4328 64.9228 25.5442 64.1997 24.2809C63.4765 23.0176 63.2992 21.5474 63.7069 20.1378L62.9093 19.9022C62.6753 20.7052 62.608 21.5259 62.7001 22.3289L58.9035 24.5343ZM64.4584 25.9832L61.1652 27.8959C61.0269 27.3785 60.8249 26.8753 60.5483 26.3971C60.2754 25.9189 59.9421 25.4907 59.5664 25.1124L62.8597 23.1996C62.9979 23.7171 63.2 24.2203 63.4765 24.6985C63.7495 25.1766 64.0827 25.6049 64.4584 25.9832Z" fill="#C67710" style="fill:#C67710;fill:color(display-p3 0.7750 0.4678 0.0646);fill-opacity:1;"/>
<path d="M23.3683 15.7091L22.1205 16.4157L22.5281 17.1437L23.776 16.4371C24.3219 17.6183 24.4141 18.9458 24.0312 20.2127L24.8253 20.4554C25.2755 18.9672 25.155 17.4113 24.4991 16.0267L26.261 15.0311C27.0941 16.3158 28.3525 17.2258 29.8485 17.6147L30.0577 16.8047C28.7815 16.4728 27.7073 15.7055 26.9877 14.6207L28.2355 13.9141L27.8279 13.1861L26.58 13.8927C26.0341 12.7114 25.9419 11.3839 26.3248 10.1171L25.5307 9.87439C25.0805 11.3625 25.201 12.9184 25.8569 14.3031L24.095 15.2987C23.2619 14.014 22.0035 13.104 20.5075 12.715L20.2983 13.5251C21.5745 13.857 22.6487 14.6242 23.3683 15.7091Z" fill="#C67710" style="fill:#C67710;fill:color(display-p3 0.7750 0.4678 0.0646);fill-opacity:1;"/>
<path d="M62.012 48.6225C61.6185 48.4048 61.1612 48.3477 60.7287 48.4654C60.2785 48.5868 59.9028 48.8758 59.6688 49.2827C59.4348 49.6895 59.3746 50.1641 59.4951 50.6137C59.6156 51.067 59.9028 51.4452 60.3069 51.6808C60.5763 51.8378 60.8741 51.9163 61.1754 51.9163C61.3279 51.9163 61.4803 51.8985 61.6292 51.8556C62.0794 51.7343 62.4552 51.4452 62.6891 51.0384C62.8486 50.7601 62.9266 50.4532 62.9231 50.1391C63.6675 50.7172 64.5041 51.6344 64.6991 52.9191L65.518 52.7942C65.0962 49.9678 62.2318 48.7117 62.012 48.6189V48.6225ZM61.9695 50.6245C61.7178 51.0634 61.1541 51.2168 60.7181 50.9599C60.5054 50.8386 60.3565 50.6387 60.2927 50.3996C60.2289 50.1605 60.2608 49.9143 60.3849 49.7002C60.555 49.404 60.8635 49.2398 61.179 49.2398C61.3349 49.2398 61.4909 49.2791 61.6363 49.3647C61.849 49.4861 61.9979 49.6859 62.0617 49.925C62.1255 50.1641 62.0936 50.4103 61.9695 50.6245Z" fill="#C67710" style="fill:#C67710;fill:color(display-p3 0.7750 0.4678 0.0646);fill-opacity:1;"/>
<path d="M63.5436 52.9084C63.1395 52.6728 62.668 52.6122 62.2214 52.7335C61.7711 52.8548 61.3954 53.1439 61.1614 53.5507C61.0019 53.8291 60.9239 54.136 60.9274 54.45C60.183 53.8719 59.3428 52.9547 59.1514 51.67L58.3325 51.7949C58.7615 54.6713 61.7215 55.9238 61.8491 55.9774C62.1044 56.1166 62.3844 56.1879 62.668 56.1879C62.8205 56.1879 62.9729 56.1701 63.1218 56.1273C63.572 56.0059 63.9478 55.7169 64.1817 55.31C64.4157 54.9032 64.476 54.4286 64.3554 53.9789C64.2349 53.5257 63.9478 53.1475 63.5436 52.9119V52.9084ZM63.4621 54.8889C63.2104 55.3279 62.6503 55.4778 62.2107 55.2244C61.998 55.1031 61.8491 54.9032 61.7853 54.6641C61.7215 54.425 61.7534 54.1788 61.8775 53.9647C62.0016 53.7506 62.1965 53.5971 62.4341 53.5364C62.512 53.515 62.5936 53.5043 62.6716 53.5043C62.8311 53.5043 62.9871 53.5471 63.1253 53.6292C63.338 53.7506 63.4869 53.9504 63.5507 54.1895C63.6145 54.4286 63.5826 54.6748 63.4585 54.8889H63.4621Z" fill="#C67710" style="fill:#C67710;fill:color(display-p3 0.7750 0.4678 0.0646);fill-opacity:1;"/>
<path d="M19.1323 22.7C18.8948 22.8498 18.753 23.0711 18.6537 23.246C18.3524 23.792 18.2177 24.3772 18.1219 24.966C17.7745 24.8447 17.42 24.652 17.0585 24.445C16.6153 24.1916 16.1758 23.9169 15.7326 23.6456C15.3179 23.3887 14.9031 23.1353 14.4883 22.8927C13.5383 22.3395 12.3401 22.6357 11.8154 23.5457C11.507 24.0846 11.5035 24.7234 11.7481 25.2658C11.3227 25.2943 10.8583 25.4478 10.4932 25.8725L11.1206 26.4185C11.5886 25.8725 12.4783 26.1687 12.6237 26.2186L16.5125 28.4811L16.9273 27.7567L13.0065 25.4763C12.4535 25.1552 12.2408 24.4736 12.5351 23.9597C12.8293 23.4458 13.5206 23.2888 14.0736 23.61C14.4813 23.8455 14.8889 24.0989 15.3001 24.3522C15.7504 24.6306 16.2006 24.9054 16.6472 25.1659C17.0797 25.4157 17.5299 25.6583 17.9943 25.7975C17.9766 25.926 17.9553 26.0509 17.9305 26.1758C17.7355 27.2392 17.3527 28.2492 16.789 29.1734L17.498 29.6088C18.1113 28.5953 18.5332 27.4926 18.7459 26.3292C18.7707 26.1972 18.7919 26.0652 18.8132 25.9296C18.9727 25.9296 19.1323 25.9117 19.2918 25.876C19.9831 25.719 20.5609 25.2051 20.8019 24.5378C20.9898 24.0203 20.9402 23.4743 20.6708 23.0782C20.3234 22.5679 19.6179 22.3931 19.1287 22.7H19.1323ZM20.0256 24.2559C19.8803 24.6556 19.5222 24.9732 19.111 25.066C19.0543 25.0802 18.9976 25.0874 18.9408 25.0945C19.0259 24.5771 19.1429 24.0882 19.3804 23.6563C19.4265 23.5743 19.4939 23.4601 19.5718 23.4137C19.6002 23.3958 19.6392 23.3851 19.6782 23.3851C19.7881 23.3851 19.9192 23.4494 19.9901 23.5529C20.1071 23.7242 20.1213 23.9954 20.0256 24.2559Z" fill="#C67710" style="fill:#C67710;fill:color(display-p3 0.7750 0.4678 0.0646);fill-opacity:1;"/>
<path d="M56.7902 61.1626L54.0889 57.2122L53.4047 57.6868L56.1237 61.6622C56.3223 61.9513 56.418 62.2832 56.3896 62.5972C56.3648 62.8791 56.2443 63.1111 56.0458 63.2467C55.8472 63.3823 55.5885 63.4144 55.319 63.3395C55.0177 63.2538 54.7447 63.0469 54.5462 62.7542C54.2697 62.3474 53.7947 61.6337 53.3055 60.9021C52.7525 60.0706 52.1817 59.2106 51.8627 58.7502L51.4515 59.0357L51.1395 59.2498L53.8585 63.2253C54.057 63.5143 54.1527 63.8462 54.1244 64.1603C54.0996 64.4422 53.979 64.6742 53.7805 64.8098C53.348 65.1095 52.6745 64.8918 52.281 64.3173C52.008 63.9176 51.4798 63.1254 50.9304 62.301C50.7141 61.9727 50.4908 61.6444 50.2816 61.3303C50.4057 60.4311 50.6999 59.464 51.1891 58.3327L50.427 57.9973C50.0547 58.8502 49.7924 59.621 49.6223 60.3454C49.4911 60.1491 49.3741 59.9814 49.289 59.8529L48.6084 60.3276C48.7892 60.5916 49.0834 61.027 49.4202 61.5338C49.4096 61.6551 49.3954 61.7764 49.3918 61.8942C49.3103 63.4144 49.7038 64.824 50.4979 65.8589C50.6432 66.0481 50.8417 66.2765 51.1324 66.4014C51.2459 66.4513 51.3699 66.4727 51.494 66.4727C51.7811 66.4727 52.0683 66.3478 52.2349 66.1266C52.3661 65.9517 52.4263 65.7483 52.4441 65.5378C52.7312 65.6876 53.0396 65.7697 53.3409 65.7697C53.6635 65.7697 53.979 65.6805 54.2485 65.4914C54.6561 65.2094 54.9043 64.7598 54.9504 64.2245C54.9539 64.1781 54.9539 64.1317 54.9539 64.0889C54.9964 64.1032 55.039 64.121 55.0815 64.1317C55.2552 64.1817 55.4289 64.2067 55.5955 64.2067C55.9252 64.2067 56.2372 64.1103 56.5066 63.9247C56.9143 63.6428 57.1624 63.1932 57.2085 62.6579C57.2121 62.5972 57.2156 62.533 57.2156 62.4723C57.4389 62.5687 57.6871 62.6365 57.9459 62.6365C58.1302 62.6365 58.3216 62.6044 58.5166 62.5258L58.2046 61.7514C57.6055 61.9977 56.8895 61.2697 56.7831 61.1555L56.7902 61.1626ZM51.5897 65.6234C51.5649 65.6412 51.494 65.652 51.4656 65.6412C51.3522 65.5949 51.2459 65.4628 51.1643 65.3558C50.629 64.6599 50.3135 63.7534 50.2426 62.7507C50.2462 62.7578 50.2497 62.7614 50.2533 62.7685C50.6184 63.3181 50.9764 63.8498 51.253 64.2638C51.4976 64.692 51.7457 65.42 51.5933 65.6234H51.5897Z" fill="#C67710" style="fill:#C67710;fill:color(display-p3 0.7750 0.4678 0.0646);fill-opacity:1;"/>
<path d="M38.7112 58.4327C49.3893 58.4327 58.0455 49.7187 58.0455 38.9694C58.0455 28.2201 49.3893 19.5061 38.7112 19.5061C28.0332 19.5061 19.377 28.2201 19.377 38.9694C19.377 49.7187 28.0332 58.4327 38.7112 58.4327Z" fill="#C67710" style="fill:#C67710;fill:color(display-p3 0.7750 0.4678 0.0646);fill-opacity:1;"/>
<path d="M38.7112 50.6102C45.0976 50.6102 50.2749 45.3984 50.2749 38.9693C50.2749 32.5403 45.0976 27.3285 38.7112 27.3285C32.3247 27.3285 27.1475 32.5403 27.1475 38.9693C27.1475 45.3984 32.3247 50.6102 38.7112 50.6102Z" fill="#FDD39E" style="fill:#FDD39E;fill:color(display-p3 0.9917 0.8290 0.6198);fill-opacity:1;"/>
<path d="M33.3937 26.0367C33.1526 27.7104 32.9151 29.2735 32.7059 30.8365C32.5535 31.9642 32.1423 32.9634 31.4617 33.8806C29.6431 36.3358 27.86 38.8196 26.0627 41.2926C25.8961 41.521 25.7259 41.7494 25.5664 41.9885C25.0843 42.7129 24.4143 43.1875 23.6166 43.4945C23.4075 43.573 23.3295 43.68 23.3295 43.912C23.3366 50.0572 23.3401 56.2023 23.3295 62.3439C23.3295 62.6223 23.4039 62.7329 23.684 62.815C24.868 63.1754 25.3005 64.5636 24.5915 65.5878C24.3044 66.0018 24.0385 66.4371 23.8152 66.8868C23.6875 67.1437 23.5918 67.4756 23.996 67.654C24.0385 67.6719 24.081 67.8075 24.0562 67.8503C24.0243 67.9039 23.8825 67.9609 23.8612 67.9395C23.7017 67.7754 23.4465 67.6005 23.4323 67.4149C23.411 67.1045 23.4926 66.7547 23.6273 66.4693C23.8081 66.0874 24.0739 65.7484 24.3115 65.3987C24.7546 64.7492 24.673 63.907 24.1129 63.4181C23.5564 62.9363 22.7517 62.9363 22.2022 63.4181C21.6315 63.9248 21.5712 64.7206 22.0001 65.3987C22.3334 65.9268 22.6382 66.4764 22.8793 67.0509C22.9573 67.2401 22.8474 67.5613 22.7304 67.7682C22.6347 67.936 22.3972 68.0609 22.2057 67.7932C22.6524 67.3257 22.6843 67.1402 22.3653 66.5478C22.1951 66.2373 21.9895 65.9411 21.7803 65.6556C20.9792 64.5493 21.401 63.1897 22.6949 62.7864C22.936 62.7115 22.975 62.5937 22.975 62.376C22.975 58.7182 22.9821 55.0639 22.9856 51.4061C22.9856 49.1115 22.9785 46.8168 22.975 44.5187C22.975 44.3723 22.975 44.226 22.975 44.0761C22.7233 44.1547 22.4822 44.3117 22.305 44.2581C22.0781 44.1903 21.8796 43.9762 21.713 43.7835C21.4613 43.4945 21.2415 43.1768 21.0217 42.8628C20.8126 42.563 20.6672 42.2169 20.1922 42.2633C20.0965 42.274 19.9015 42.0956 19.8909 41.9921C19.8767 41.8422 19.944 41.6138 20.0575 41.5317C20.3553 41.3212 20.6956 41.1713 21.0217 41C21.1352 40.9393 21.2592 40.8965 21.4542 40.8144C20.9508 40.6788 20.529 40.5896 20.1284 40.4433C19.9901 40.3933 19.9086 40.1935 19.8022 40.0614C19.9689 40.0008 20.1745 39.8438 20.295 39.8937C20.7948 40.1043 21.2415 39.9472 21.7272 39.8473C22.1029 39.7688 22.5142 39.8723 22.9431 39.9008V18.3749C22.4362 18.771 22.0462 19.3206 21.2734 19.3991C21.3549 19.1957 21.3868 19.0565 21.4613 18.9423C21.713 18.5498 21.9753 18.1643 22.2376 17.7789C22.4539 17.4578 22.6559 17.1437 22.6028 16.7191C22.585 16.587 22.7056 16.4086 22.8084 16.298C23.5209 15.545 24.1377 14.7349 24.4887 13.7393C24.5525 13.5608 24.7049 13.4109 24.8148 13.2504C24.868 13.2611 24.9212 13.2718 24.9744 13.2789C24.9815 13.493 25.0453 13.7214 24.9885 13.9141C24.8751 14.3067 24.6979 14.6814 24.549 15.0632C24.2654 15.7912 24.0598 16.5656 23.6734 17.2329C23.2196 18.0109 23.3295 18.8174 23.326 19.6239C23.3189 26.3187 23.3189 33.0134 23.3224 39.7081C23.3224 39.8152 23.333 39.9223 23.3366 40.0472C23.4004 40.065 23.4465 40.0828 23.4997 40.09C24.5561 40.2577 24.3115 40.2934 24.8042 39.4441C25.5203 38.2129 26.247 36.9853 26.9844 35.7648C27.6154 34.7228 28.2641 33.695 28.9022 32.6565C28.9483 32.5816 28.9802 32.4817 28.9766 32.3925C28.9306 30.1228 29.3772 27.9103 29.753 25.6941C29.8522 25.1089 29.9054 24.5522 29.8026 23.9527C29.4375 21.8543 30.6251 20.1021 32.6918 19.6132C32.9364 19.5561 33.0924 19.4633 33.2058 19.2207C33.578 18.4249 34.1842 17.8075 34.9535 17.4256C35.8043 17.001 36.7011 16.6691 37.6016 16.3515C37.9206 16.2409 37.9667 16.091 37.9242 15.8162C37.8213 15.131 36.928 14.3852 36.2545 14.2638C33.8155 13.8213 31.8374 14.9205 29.909 16.1552C29.4977 16.4193 29.1893 16.8618 28.8774 17.2543C28.4945 17.7361 28.1542 18.2536 27.7891 18.7532C27.6863 18.8923 27.5586 19.0137 27.3459 19.1136C27.3601 18.9352 27.3566 18.7567 27.392 18.5854C27.7324 16.9082 28.5406 15.4772 29.8771 14.4351C31.5786 13.1076 33.3228 11.83 35.113 10.6274C37.4172 9.0822 39.9377 9.22494 42.4369 10.035C45.5246 11.0342 47.6303 13.1933 49.0412 16.0696C50.328 18.6854 50.7463 21.4974 50.7392 24.388C50.7392 24.4416 50.7215 24.4951 50.7038 24.5914H48.4634C48.4634 24.7984 48.4634 24.959 48.4634 25.1196C48.5555 29.0344 48.6512 32.9527 48.747 36.8675C48.7966 38.9159 48.7363 40.975 48.9455 43.0056C49.0731 44.2581 48.9207 45.4643 48.8569 46.6884C48.8108 47.5805 48.396 48.3692 47.7827 49.0401L47.8146 49.1614C48.3074 49.115 48.8037 49.0722 49.3638 49.0187C49.3531 49.2506 49.339 49.5326 49.3248 49.7931C48.6406 49.7181 48.0238 49.6503 47.3361 49.5718C47.407 50.2891 47.4672 50.9386 47.5381 51.5845C47.57 51.8843 47.6161 52.1841 47.6764 52.4803C47.7366 52.7657 47.6374 52.9013 47.3467 52.8978C47.0347 52.8978 46.7263 52.8978 46.386 52.8978C46.4498 51.8022 46.5136 50.7423 46.5845 49.5861C45.9642 49.6539 45.3828 49.7146 44.7305 49.7859C44.7199 49.5397 44.7057 49.2649 44.695 49.0151C45.2445 49.0651 45.755 49.115 46.3328 49.1686C45.9429 48.5548 45.5068 48.0801 45.319 47.5234C45.1311 46.9667 45.0708 46.3101 45.482 45.757C45.5565 45.657 45.6203 45.5464 45.7408 45.3644C45.1665 45.707 44.6844 45.9996 44.1562 46.3137C44.1775 46.5171 44.2094 46.7847 44.2377 47.0559C44.2555 47.2415 44.3973 47.4592 44.0853 47.5591C44.0463 47.5698 44.0534 47.7625 44.057 47.8696C44.0782 48.4441 44.103 49.0223 44.1314 49.5968C44.1349 49.686 44.1527 49.7931 44.2023 49.8644C45.1949 51.3062 45.56 52.9692 45.8578 54.65C46.3612 57.4728 46.4817 60.3277 46.5136 63.1897C46.5172 63.543 46.6377 63.907 46.744 64.2496C47.0276 65.1631 47.3928 66.0553 47.6126 66.9831C47.843 67.9609 47.3219 68.5319 46.3257 68.4891C44.1208 68.3892 41.9122 68.2714 39.7108 68.1287C39.3634 68.1073 39.0018 67.9395 38.697 67.7575C38.5658 67.679 38.502 67.3828 38.5197 67.1973C38.5268 67.1188 38.8175 67.0402 38.9876 67.0081C39.3351 66.9475 39.6931 66.951 40.0334 66.8689C41.6109 66.4978 42.9226 65.6021 44.2023 64.6564C44.298 64.585 44.3547 64.3638 44.3299 64.2317C44.064 62.8293 43.8513 61.4125 43.4756 60.0386C42.8233 57.6583 42.1037 55.2959 41.338 52.9477C41.0225 51.9771 40.4907 51.0813 40.1043 50.1321C39.842 49.4862 39.6541 48.8081 39.4485 48.1408C39.3811 47.9231 39.2854 47.8303 39.0444 47.8482C38.7076 47.8732 38.3673 47.8553 38.0021 47.8553C37.8426 49.0972 37.5058 50.2427 37.6193 51.4632C37.7824 53.2011 37.5661 54.9319 37.2152 56.627C36.726 59.0037 36.141 61.3626 35.5774 63.7214C35.5065 64.0176 35.4994 64.2639 35.6341 64.5422C35.9992 65.288 36.2651 66.066 36.2686 66.9082C36.2722 67.7326 35.9 68.1501 35.0846 68.1537C32.8903 68.1608 30.6959 68.1572 28.4981 68.118C28.1081 68.1108 27.704 67.9467 27.3459 67.7718C27.2112 67.7076 27.1297 67.4114 27.1333 67.2222C27.1333 67.1473 27.4275 67.0224 27.5906 67.0153C28.6363 66.9724 29.558 66.5371 30.4301 66.0375C31.2312 65.5771 31.958 64.9811 32.6989 64.4209C32.8229 64.3281 32.9151 64.1318 32.9328 63.9712C33.1774 62.012 33.5 60.0529 33.617 58.083C33.7411 56.031 33.6773 53.9648 33.6631 51.9057C33.6631 51.581 33.4752 51.2598 33.4008 50.9279C33.344 50.6924 33.3015 50.4426 33.305 50.2035C33.3121 49.8609 33.3263 49.5076 33.4185 49.1828C33.7198 48.1051 33.4788 46.9881 33.6879 45.8961C33.8935 44.8041 33.9857 43.6907 34.1381 42.588C34.4855 40.1007 34.8719 37.6169 35.1697 35.1225C35.2583 34.3588 35.1343 33.563 35.0456 32.7886C34.8542 31.1541 34.6734 29.5126 34.131 27.9424C33.9183 27.325 33.6525 26.7255 33.3759 26.0296L33.3937 26.0367ZM44.4469 25.4693L44.3264 25.4765C43.9683 26.365 43.589 27.2465 43.2593 28.1458C42.7134 29.6268 42.2171 31.122 41.6641 32.5994C41.5294 32.9634 41.4975 33.281 41.5826 33.6629C42.3518 37.203 43.1034 40.7466 43.8549 44.2867C43.9577 44.7685 44.025 45.2574 44.1101 45.7427C44.7624 45.3644 44.8262 44.7221 44.9503 44.1225C45.0176 43.8049 45.1665 43.6015 45.4466 43.473C45.8436 43.2875 46.2477 43.1197 46.6271 42.9056C46.7405 42.8414 46.8575 42.6344 46.8398 42.5095C46.6909 41.3533 46.4817 40.2042 46.347 39.0444C46.1166 37.0674 45.8365 35.0903 45.7479 33.1062C45.6841 31.7144 45.6061 30.3405 45.2941 28.9844C45.0247 27.8103 44.7305 26.6434 44.4469 25.4729V25.4693ZM48.2967 47.1273C47.5913 47.0559 47.0525 46.9988 46.5136 46.9489C46.1698 46.9168 45.9677 47.1701 46.1201 47.477C46.2513 47.7411 46.4073 48.0088 46.6058 48.2229C46.8929 48.5298 47.2616 48.5476 47.5381 48.2407C47.8182 47.9303 48.0167 47.5448 48.2967 47.1273ZM35.9 12.3939C35.6908 12.2333 34.8684 12.037 34.7585 12.0406C34.6451 12.0442 34.365 12.3296 34.2551 12.4224C34.3508 12.5295 34.6521 12.7436 34.762 12.765C34.8719 12.7829 35.666 12.5224 35.8964 12.3939H35.9Z" fill="#5A045A" style="fill:#5A045A;fill:color(display-p3 0.3514 0.0163 0.3514);fill-opacity:1;"/>
</g>
<defs>
<clipPath id="clip0_4608_1699">
<rect width="268" height="77.9388" fill="white" style="fill:white;fill-opacity:1;"/>
</clipPath>
</defs>
</svg>
