<svg width="21" height="21" viewBox="0 0 21 21" fill="none" xmlns="http://www.w3.org/2000/svg">
<path d="M2.125 4.75H12.125C12.788 4.75 13.4239 5.01339 13.8928 5.48223C14.3616 5.95107 14.625 6.58696 14.625 7.25V14.75C14.625 14.9158 14.5592 15.0747 14.4419 15.1919C14.3247 15.3092 14.1658 15.375 14 15.375H4C3.33696 15.375 2.70107 15.1116 2.23223 14.6428C1.76339 14.1739 1.5 13.538 1.5 12.875V5.375C1.5 5.20924 1.56585 5.05027 1.68306 4.93306C1.80027 4.81585 1.95924 4.75 2.125 4.75Z" fill="white" stroke="#5A045A" style="fill:white;fill-opacity:1;stroke:#5A045A;stroke:color(display-p3 0.3529 0.0157 0.3529);stroke-opacity:1;" stroke-width="2" stroke-linecap="round" stroke-linejoin="round"/>
<path d="M14.625 8.8125L19 6.3125V13.8125L14.625 11.3125" stroke="#5A045A" style="stroke:#5A045A;stroke:color(display-p3 0.3529 0.0157 0.3529);stroke-opacity:1;" stroke-width="2" stroke-linecap="round" stroke-linejoin="round"/>
</svg>
