<svg width="633" height="136" viewBox="0 0 633 136" fill="none" xmlns="http://www.w3.org/2000/svg">
<path d="M67.4244 39.7082C73.725 51.7717 83.503 61.6276 95.4699 67.9771C83.504 74.331 73.7266 84.1886 67.4244 96.2525C61.1265 84.1876 51.3507 74.3294 39.3853 67.9771C51.3517 61.6292 61.1281 51.7727 67.4244 39.7082ZM67.4244 0C67.4244 18.0287 60.3208 35.3189 47.6763 48.0671C35.0317 60.8153 17.8821 67.9771 0 67.9771C17.8827 67.9788 35.0323 75.1421 47.6767 87.8913C60.321 100.641 67.4244 117.931 67.4244 135.961C67.4261 117.931 74.5309 100.64 87.1763 87.8909C99.8216 75.1419 116.972 67.9788 134.855 67.9771C116.973 67.9771 99.8222 60.8155 87.1767 48.0675C74.5311 35.3195 67.4261 18.0292 67.4244 0Z" fill="white" style="fill:white;fill-opacity:1;"/>
<path d="M104.415 17.245C104.408 21.5838 102.694 25.7427 99.6486 28.8083C96.6031 31.8739 92.4754 33.5958 88.1719 33.5958C90.305 33.5958 92.4172 34.0194 94.3879 34.8424C96.3586 35.6654 98.1492 36.8716 99.6575 38.3923C101.166 39.913 102.362 41.7183 103.179 43.7052C103.995 45.692 104.415 47.8216 104.415 49.9721C104.415 45.6289 106.126 41.4635 109.173 38.3923C112.219 35.3212 116.35 33.5958 120.658 33.5958C116.355 33.5958 112.227 31.8739 109.182 28.8083C106.136 25.7427 104.422 21.5838 104.415 17.245Z" fill="white" style="fill:white;fill-opacity:1;"/>
<path d="M43.1103 104.166C43.1103 96.1164 36.6378 89.5909 28.6536 89.5909C20.6694 89.5909 14.1969 96.1164 14.1969 104.166C14.1969 112.216 20.6694 118.741 28.6536 118.741C36.6378 118.741 43.1103 112.216 43.1103 104.166Z" fill="white" style="fill:white;fill-opacity:1;"/>
<path d="M242.192 96.0412L211.446 26.7227L179.827 99.809C177.799 104.563 175.665 106.596 170.855 106.596V107.428H186.346V106.56C181.536 106.56 179.402 105.063 180.581 102.364L192.076 75.9184H222.657L231.829 96.588C235.142 104.124 232.796 106.596 228.198 106.596V107.428H254.889V106.56C248.817 106.596 245.823 104.124 242.192 96.0412ZM192.866 74.1474L207.166 40.9858L221.914 74.1474H192.866Z" fill="white" style="fill:white;fill-opacity:1;"/>
<path d="M255.962 63.0104C255.962 57.626 260.984 53.6324 270.109 53.6324C277.678 53.6324 285.164 57.4002 288.476 67.1942H289.325V57.6855C283.136 53.05 274.707 51.8614 270.863 51.8614C257.082 51.8614 248.535 57.3527 248.535 66.1245C248.535 85.6173 284.952 81.8495 284.952 96.267C284.952 104.242 277.678 107.475 270.215 107.475C265.499 107.475 253.769 104.67 249.383 92.2853H248.535V101.794C254.851 106.421 262.41 109.011 270.215 109.223C282.924 109.223 292.426 103.517 292.426 93.771C292.379 73.7671 255.962 76.1324 255.962 63.0104Z" fill="white" style="fill:white;fill-opacity:1;"/>
<path d="M370.435 63.4501C370.553 63.664 370.659 63.878 370.754 64.0919H371.614V54.5832C369.256 53.1807 364.128 51.8851 358.469 51.8851C357.892 51.8851 357.29 51.8851 356.701 51.8851C349.439 52.2892 341.882 55.1894 337.437 63.3669V53.3471C337.437 52.2655 336.907 51.6236 335.728 51.8376L319.294 54.1078V54.9636C325.059 54.9636 327.817 57.2219 327.817 64.8526V95.9698C327.866 97.8128 327.598 99.6503 327.027 101.402C324.669 104.872 319.706 105.847 316.617 105.847C309.355 105.847 305.182 102.222 305.182 87.1505V53.6323H315.651V51.9089H305.182V37.3724C305.182 36.2908 304.651 35.649 303.472 35.8629L287.038 38.1213V38.9889C292.803 38.9889 295.585 41.2472 295.585 48.8899V51.9089H288.96V53.6323H295.585V86.0333C295.585 103.244 303.685 107.63 314.802 107.63C316.337 107.647 317.872 107.579 319.4 107.428H345.961V106.56C340.726 106.56 337.414 103.66 337.414 96.0055V70.9263C337.759 66.2429 339.839 61.8617 343.239 58.6517C346.639 55.4417 351.112 53.6374 355.769 53.5967C356.072 53.5792 356.375 53.5792 356.677 53.5967C359.638 53.839 362.478 54.8823 364.9 56.6165C367.321 58.3507 369.234 60.7116 370.435 63.4501Z" fill="white" style="fill:white;fill-opacity:1;"/>
<path d="M471.233 96.0412V70.9619C471.233 58.9097 462.05 51.9445 452.017 51.9445C444.319 51.9445 437.162 55.3914 432.246 63.4738V53.454C432.246 52.3724 431.716 51.7306 430.537 51.9445L414.103 54.2147V55.0705C419.868 55.0705 422.65 57.3288 422.65 64.9596V96.0768C422.65 99.5 421.99 101.96 420.799 103.636C415.352 107.547 411.981 104.563 411.981 94.4484V75.0745C411.981 58.8264 402.372 51.9326 389.239 51.9326C385.292 52.0498 381.385 52.7671 377.65 54.0602V57.626C380.95 54.9998 385.035 53.5793 389.239 53.5967C396.82 53.7036 402.372 57.5903 402.372 66.2908C402.372 73.8383 393.613 76.3106 384.535 79.5436C374.184 83.2044 365.213 88.0538 365.213 96.7662C365.213 103.446 370.659 109.151 383.356 109.151C387.081 109.217 390.764 108.356 394.081 106.646C397.397 104.936 400.245 102.429 402.372 99.3454C402.351 100.421 402.547 101.489 402.948 102.486C403.35 103.483 403.948 104.386 404.707 105.142C405.465 105.899 406.369 106.491 407.362 106.884C408.355 107.277 409.417 107.462 410.483 107.428C411.662 107.428 412.841 107.428 414.114 107.428H440.829V106.56C435.594 106.56 432.282 103.66 432.282 96.0055V70.9263C434.097 60.3835 442.538 53.5967 449.706 53.5967C456.002 53.5967 461.649 58.5531 461.649 70.9263V96.0055C461.649 103.66 458.336 106.56 453.125 106.56V107.428H479.733V106.56C474.546 106.596 471.233 103.696 471.233 96.0412ZM402.361 91.8455C400.981 100.166 394.674 107.463 384.099 107.463C377.792 107.463 374.821 102.709 374.821 96.2551C374.821 90.4548 377.049 84.3692 385.49 81.3026C390.395 79.4722 398.623 76.8811 402.361 73.874V91.8455Z" fill="white" style="fill:white;fill-opacity:1;"/>
<path d="M503.701 51.9089C489.271 51.9089 474.44 63.3312 474.44 80.5539C474.44 97.7765 489.271 109.187 503.701 109.187C518.131 109.187 532.785 97.7646 532.785 80.5539C532.785 63.3431 518.001 51.9089 503.701 51.9089ZM503.701 107.464C493.09 107.464 484.036 99.702 484.036 80.5539C484.036 61.4057 493.126 53.6323 503.701 53.6323C514.052 53.6323 523.023 61.3938 523.023 80.5539C523.023 99.7139 514.052 107.428 503.701 107.428V107.464Z" fill="white" style="fill:white;fill-opacity:1;"/>
<path d="M586.65 52.7528V51.8852H571.171V52.7528C575.981 52.7528 578.115 54.2623 576.947 56.9485L559.9 96.0412L545.164 62.7607C541.851 55.2132 544.209 52.7409 548.807 52.7409V51.8733H522.057V52.7528C528.152 52.7528 531.123 55.2251 534.754 63.3075L554.312 107.428H556.87L577.69 59.5278C579.718 54.821 581.864 52.7528 586.65 52.7528Z" fill="white" style="fill:white;fill-opacity:1;"/>
<path d="M623.821 94.4247V75.0507C623.821 58.8027 614.201 51.9089 601.08 51.9089C597.543 51.9089 588.466 53.0975 582.276 57.733V67.2417H583.125C586.438 57.6735 593.594 53.7869 601.08 53.6799C608.66 53.7869 614.201 57.6735 614.201 66.374C614.201 73.9215 605.454 76.3938 596.376 79.6267C586.013 83.2876 577.054 88.1371 577.054 96.8494C577.054 103.529 582.5 109.234 595.197 109.234C598.92 109.3 602.602 108.44 605.917 106.729C609.231 105.019 612.077 102.512 614.201 99.4286C614.193 100.503 614.4 101.568 614.811 102.559C615.223 103.55 615.829 104.446 616.594 105.194C617.359 105.942 618.266 106.525 619.261 106.909C620.256 107.293 621.318 107.47 622.383 107.428C625.839 107.289 629.241 106.524 632.428 105.17V104.302C625.849 105.847 623.821 104.551 623.821 94.4247ZM614.201 91.8455C612.81 100.166 606.527 107.464 595.952 107.464C589.644 107.464 586.65 102.709 586.65 96.2551C586.65 90.4548 588.902 84.3692 597.331 81.3027C602.247 79.4722 610.464 76.8811 614.201 73.874V91.8455Z" fill="white" style="fill:white;fill-opacity:1;"/>
</svg>
